<svg width="20" height="21" viewBox="0 0 20 21" fill="none" xmlns="http://www.w3.org/2000/svg">
<g clip-path="url(#clip0)">
<path d="M19.7031 7.72978C19.439 7.39845 19.0428 7.20837 18.616 7.20837H14.7643L12.6756 2.42583C12.5461 2.12931 12.2007 1.9938 11.9042 2.12337C11.6076 2.25286 11.4722 2.59829 11.6017 2.89486L13.4855 7.20841H6.51449L8.39828 2.89486C8.52778 2.59829 8.39239 2.2529 8.09582 2.12337C7.7993 1.9938 7.45387 2.12923 7.32438 2.42583L5.23574 7.20841H1.38403C0.957229 7.20841 0.561018 7.39845 0.296917 7.72982C0.0376587 8.05513 -0.0580054 8.47333 0.0344556 8.87732L2.09137 17.8617C2.235 18.489 2.78996 18.9272 3.44094 18.9272H16.5591C17.21 18.9272 17.765 18.489 17.9086 17.8617L19.9655 8.87728C20.058 8.47329 19.9623 8.05509 19.7031 7.72978ZM16.5591 17.7552H3.44094C3.34145 17.7552 3.2543 17.69 3.23371 17.6001L1.1768 8.61579C1.16067 8.54528 1.18774 8.49224 1.21336 8.46017C1.23711 8.43032 1.2909 8.38029 1.38403 8.38029H4.72399L4.57051 8.73173C4.44102 9.02829 4.57641 9.37368 4.87297 9.50321C4.9493 9.53657 5.02883 9.55236 5.10715 9.55236C5.33301 9.55236 5.54824 9.42099 5.64442 9.20079L6.00274 8.38036H13.9973L14.3557 9.20079C14.4518 9.42103 14.6671 9.55236 14.8929 9.55236C14.9712 9.55236 15.0508 9.53657 15.1271 9.50321C15.4237 9.37372 15.5591 9.02829 15.4296 8.73173L15.2761 8.38029H18.6161C18.7092 8.38029 18.763 8.43032 18.7867 8.46017C18.8123 8.49228 18.8394 8.54532 18.8233 8.61575L16.7664 17.6001C16.7457 17.69 16.6586 17.7552 16.5591 17.7552Z" fill="white"/>
<path d="M6.48438 10.9189C6.16078 10.9189 5.89844 11.1813 5.89844 11.5049V15.8018C5.89844 16.1254 6.16078 16.3877 6.48438 16.3877C6.80797 16.3877 7.07031 16.1254 7.07031 15.8018V11.5049C7.07031 11.1813 6.80801 10.9189 6.48438 10.9189Z" fill="white"/>
<path d="M10 10.9189C9.67641 10.9189 9.41406 11.1813 9.41406 11.5049V15.8018C9.41406 16.1254 9.67641 16.3877 10 16.3877C10.3236 16.3877 10.5859 16.1254 10.5859 15.8018V11.5049C10.5859 11.1813 10.3236 10.9189 10 10.9189Z" fill="white"/>
<path d="M13.5156 10.9189C13.192 10.9189 12.9297 11.1813 12.9297 11.5049V15.8018C12.9297 16.1254 13.192 16.3877 13.5156 16.3877C13.8392 16.3877 14.1016 16.1254 14.1016 15.8018V11.5049C14.1015 11.1813 13.8392 10.9189 13.5156 10.9189Z" fill="white"/>
</g>
<defs>
<clipPath id="clip0">
<rect width="20" height="20" fill="white" transform="translate(0 0.5)"/>
</clipPath>
</defs>
</svg>
