<svg width="49" height="49" viewBox="0 0 49 49" fill="none" xmlns="http://www.w3.org/2000/svg">
<path d="M24.5 47.25C37.0645 47.25 47.25 37.0645 47.25 24.5C47.25 11.9355 37.0645 1.75 24.5 1.75C11.9355 1.75 1.75 11.9355 1.75 24.5C1.75 37.0645 11.9355 47.25 24.5 47.25Z" stroke="white" stroke-width="3.5"/>
<path d="M33.7702 16.3867L19.7324 30.4245L13.8722 24.5644C13.5627 24.2549 13.1429 24.081 12.7052 24.081C12.2674 24.081 11.8476 24.2549 11.5381 24.5644C11.2286 24.8739 11.0547 25.2937 11.0547 25.7315C11.0547 25.9482 11.0974 26.1628 11.1803 26.3631C11.2633 26.5633 11.3848 26.7453 11.5381 26.8985L18.557 33.9174C19.2026 34.563 20.2455 34.563 20.8911 33.9174L36.0878 18.7208C36.242 18.5659 36.3641 18.382 36.4468 18.1797C36.5296 17.9773 36.5714 17.7606 36.5699 17.542C36.5683 17.3234 36.5235 17.1073 36.4379 16.9061C36.3523 16.705 36.2277 16.5228 36.0712 16.3701C35.4587 15.7411 34.4158 15.7411 33.7702 16.3867Z" fill="white"/>
</svg>
