<svg width="163" height="163" viewBox="0 0 163 163" fill="none" xmlns="http://www.w3.org/2000/svg">
  <defs>
    <clipPath id="clip0">
      <rect width="81.5" height="81.5" fill="white" transform="translate(40.75 40.75)"/>
    </clipPath>
  </defs>
<rect width="163" height="163" fill="#F6F0EB"/>
<g opacity="0.7" clip-path="url(#clip0)">
<path d="M57.5055 44.6012V46.6979C57.5055 47.6815 58.3033 48.4787 59.2869 48.4787H61.8158C62.6962 48.4787 63.4107 49.1931 63.4107 50.0736V57.9617H69.0777V45.7975C69.0777 44.1746 67.7657 42.8576 66.1429 42.8521L59.295 42.8197C58.3082 42.8154 57.5055 43.6144 57.5055 44.6012Z" fill="#FDD79B"/>
<path d="M69.0771 45.7984V57.9608H66.5016V45.7984C66.5016 44.1743 65.1902 42.858 63.5686 42.8517H66.1435C67.7657 42.858 69.0771 44.1743 69.0771 45.7984Z" fill="#FCCD7F"/>
<path d="M81.8842 56.912H49.5422C48.5044 56.912 47.5456 57.5033 47.0282 58.4615L43.8552 64.3437H87.5712L84.3982 58.4615C83.8808 57.5033 82.922 56.912 81.8842 56.912V56.912Z" fill="white" fill-opacity="0.96"/>
<path d="M87.5706 64.3437H43.8546L45.0957 62.0431H81.0678C81.6847 62.0431 82.0783 61.3846 81.7848 60.8411L79.6657 56.9126H81.8843C82.9214 56.9126 83.8815 57.5027 84.3988 58.4621L87.5706 64.3437Z" fill="#FDE6BF"/>
<path d="M76.9528 120.237H54.034C53.2984 120.237 52.6188 119.872 52.2526 119.281L50.0042 115.653H80.9833L78.7348 119.281C78.368 119.872 77.6884 120.237 76.9528 120.237Z" fill="#FDD79B"/>
<path d="M87.463 71.262L86.9519 81.2381L85.7139 111.771C85.6157 114.1 83.7161 115.942 81.3918 115.98C81.3669 115.982 81.3427 115.982 81.3178 115.982H49.6697C47.3131 115.982 45.3737 114.125 45.2736 111.771L43.5251 71.262H87.463Z" fill="#EA4444"/>
<path d="M87.4624 71.262L87.0924 79.2894L86.7529 80.6014L85.7139 111.771C85.6169 114.071 83.7645 115.895 81.4819 115.977C81.5572 115.683 81.605 115.376 81.6181 115.059L83.3256 75.5095C83.3479 74.9859 82.9295 74.5488 82.4053 74.5488H43.6656L43.5244 71.262H87.4624Z" fill="#D93131"/>
<path d="M44.2469 87.9871C44.2469 87.9871 64.7817 90.7335 87.116 79.2888L86.2492 99.3765C86.2492 99.3765 67.5481 107.359 44.9148 103.475L44.2469 87.9871Z" fill="white" fill-opacity="0.96"/>
<path d="M88.6507 72.1055H42.7758C41.6566 72.1055 40.75 71.199 40.75 70.0804V65.4617C40.75 64.343 41.6566 63.4365 42.7758 63.4365H88.6507C89.7693 63.4365 90.6765 64.343 90.6765 65.4617V70.0804C90.6765 71.199 89.7693 72.1055 88.6507 72.1055Z" fill="#FDD79B"/>
<path d="M118.403 110.325H80.8297C78.705 110.325 76.9826 108.602 76.9826 106.477V102.605C76.9826 100.48 78.705 98.7579 80.8297 98.7579H118.404C120.528 98.7579 122.25 100.48 122.25 102.605V106.477C122.25 108.602 120.528 110.325 118.403 110.325V110.325Z" fill="#945B44"/>
<path d="M118.403 110.325H80.8297C78.705 110.325 76.9826 108.602 76.9826 106.477V102.605C76.9826 100.48 78.705 98.7579 80.8297 98.7579H118.404C120.528 98.7579 122.25 100.48 122.25 102.605V106.477C122.25 108.602 120.528 110.325 118.403 110.325V110.325Z" fill="#945B44"/>
<path d="M115.708 120.232H83.5245C79.961 120.232 77.0722 117.344 77.0722 113.78V111.557C77.0722 110.389 78.0185 109.443 79.1863 109.443H120.047C121.214 109.443 122.16 110.389 122.16 111.557V113.78C122.16 117.344 119.272 120.232 115.708 120.232V120.232Z" fill="#FFC265"/>
<path d="M122.161 111.558V113.779C122.161 117.344 119.272 120.233 115.707 120.233H83.5245C80.8377 120.233 78.5352 118.59 77.5659 116.254C78.4892 116.763 79.5494 117.054 80.6786 117.054H112.861C116.426 117.054 119.313 114.166 119.313 110.603V109.442H120.048C121.214 109.442 122.161 110.389 122.161 111.558V111.558Z" fill="#FFB541"/>
<path d="M82.6191 98.7579L91.7601 104.935C92.9745 105.756 94.5744 105.721 95.7508 104.847L103.954 98.7579H82.6191Z" fill="#FBC700"/>
<path d="M121.237 93.6225C119.224 88.2234 114.966 85.0261 110.755 83.1346C103.686 79.9585 95.5463 79.9585 88.4765 83.1346C84.2669 85.0261 80.0083 88.2234 77.9955 93.6225C77.4682 95.0377 77.227 96.5437 77.2282 98.0546C77.2288 98.9481 77.9613 99.6694 78.8548 99.6694H120.378C121.271 99.6694 122.004 98.9481 122.004 98.0546C122.006 96.5437 121.764 95.0377 121.237 93.6225V93.6225Z" fill="#FFC265"/>
<path d="M122.005 98.0545C122.003 98.9474 121.272 99.6687 120.378 99.6687H78.8542C77.9619 99.6687 77.2289 98.9474 77.2289 98.0545C77.2289 97.5372 77.2568 97.0211 77.314 96.5081C77.4602 96.5579 77.615 96.5821 77.776 96.5821H116.033C116.856 96.5821 117.53 95.9187 117.531 95.0954C117.531 93.7032 117.31 92.316 116.823 91.0115C115.383 87.1507 112.698 84.5118 109.755 82.7086C110.09 82.8435 110.423 82.9847 110.755 83.1345C114.966 85.0261 119.224 88.2239 121.237 93.6224C121.765 95.0376 122.006 96.5442 122.005 98.0545V98.0545Z" fill="#FFB541"/>
</g>

</svg>
