<svg width="17" height="16" viewBox="0 0 17 16" fill="none" xmlns="http://www.w3.org/2000/svg">
<path d="M8.50033 10.667L5.63373 7.8004C5.37464 7.54131 5.37097 7.1224 5.62547 6.8588C5.88637 6.58859 6.31814 6.5848 6.58373 6.8504L7.83366 8.10033V3.33366C7.83366 2.96547 8.13214 2.66699 8.50033 2.66699C8.86852 2.66699 9.16699 2.96547 9.16699 3.33366V8.10033L10.4169 6.8504C10.6825 6.5848 11.1143 6.58859 11.3752 6.8588C11.6297 7.1224 11.626 7.54131 11.3669 7.8004L8.50033 10.667ZM4.50033 13.3337C4.13366 13.3337 3.81988 13.2032 3.55899 12.9423C3.2981 12.6814 3.16744 12.3674 3.16699 12.0003V10.667C3.16699 10.2988 3.46547 10.0003 3.83366 10.0003C4.20185 10.0003 4.50033 10.2988 4.50033 10.667V12.0003H12.5003V10.667C12.5003 10.2988 12.7988 10.0003 13.167 10.0003C13.5352 10.0003 13.8337 10.2988 13.8337 10.667V12.0003C13.8337 12.367 13.7032 12.681 13.4423 12.9423C13.1814 13.2037 12.8674 13.3341 12.5003 13.3337H4.50033Z" fill="#363636"/>
</svg>
