<svg width="22" height="24" viewBox="0 0 22 24" fill="none" xmlns="http://www.w3.org/2000/svg">
<path d="M13.8969 15.7168C13.6297 15.7027 13.3766 15.8152 13.236 16.0402L11 19.5277L8.76402 16.0402C8.62344 15.8152 8.37031 15.6887 8.10312 15.7168C3.44844 16.209 0.453125 17.7981 0.453125 19.7808C0.453125 22.523 5.88125 23.9996 11 23.9996C16.1187 23.9996 21.5469 22.523 21.5469 19.7808C21.5469 17.7981 18.5516 16.209 13.8969 15.7168Z" fill="#E9E9E9"/>
<path d="M11 0C6.78125 0 3.26562 3.40308 3.26562 7.73438C3.26562 9.37964 3.75777 10.8562 4.71411 12.2344L10.4094 21.2156C10.55 21.4406 10.775 21.539 11 21.539C11.225 21.539 11.45 21.4406 11.5906 21.2156L17.3141 12.2062C18.2422 10.8844 18.7344 9.3375 18.7344 7.73438C18.7344 3.47339 15.261 0 11 0ZM11 11.25C9.06148 11.25 7.48438 9.67289 7.48438 7.73438C7.48438 5.79586 9.06148 4.21875 11 4.21875C12.9385 4.21875 14.5156 5.79586 14.5156 7.73438C14.5156 9.67289 12.9385 11.25 11 11.25Z" fill="#F89523"/>
<path d="M11 0V4.21875C12.9385 4.21875 14.5156 5.79586 14.5156 7.73438C14.5156 9.67289 12.9385 11.25 11 11.25V21.5391C11.225 21.5391 11.45 21.4406 11.5906 21.2157L17.3141 12.2062C18.2422 10.8844 18.7344 9.3375 18.7344 7.73438C18.7344 3.47339 15.261 0 11 0Z" fill="#EB7E00"/>
</svg>
