<svg width="18" height="19" viewBox="0 0 18 19" fill="none" xmlns="http://www.w3.org/2000/svg">
<path d="M8.9925 2C4.8525 2 1.5 5.36 1.5 9.5C1.5 13.64 4.8525 17 8.9925 17C13.14 17 16.5 13.64 16.5 9.5C16.5 5.36 13.14 2 8.9925 2ZM12.0232 12.3377C11.9538 12.4072 11.8714 12.4624 11.7807 12.5C11.6899 12.5376 11.5927 12.557 11.4944 12.557C11.3962 12.557 11.299 12.5376 11.2082 12.5C11.1175 12.4624 11.0351 12.4072 10.9657 12.3377L7.875 10.25C7.80413 10.1805 7.74776 10.0977 7.70913 10.0063C7.67051 9.91489 7.65041 9.81673 7.65 9.7175V6.7175C7.65 6.305 7.9875 5.9675 8.4 5.9675C8.8125 5.9675 9.15 6.305 9.15 6.7175V9.41L12.0232 11.2802C12.3157 11.5727 12.3157 12.0452 12.0232 12.3377Z" fill="#A7B5CA"/>
</svg>
