<svg width="20" height="20" viewBox="0 0 20 20" fill="none" xmlns="http://www.w3.org/2000/svg">
<circle cx="10" cy="10" r="10" fill="#F89523"/>
<path d="M13.7834 6.68872L8.05363 12.4185L5.66173 10.0266C5.5354 9.90023 5.36405 9.82925 5.18538 9.82925C5.00672 9.82925 4.83537 9.90023 4.70903 10.0266C4.58269 10.1529 4.51172 10.3242 4.51172 10.5029C4.51172 10.5914 4.52914 10.679 4.563 10.7607C4.59685 10.8424 4.64647 10.9167 4.70903 10.9793L7.5739 13.8441C7.83741 14.1076 8.26309 14.1076 8.5266 13.8441L14.7293 7.64143C14.7923 7.57821 14.8421 7.50314 14.8759 7.42056C14.9096 7.33797 14.9267 7.24951 14.9261 7.16029C14.9255 7.07106 14.9071 6.98285 14.8722 6.90075C14.8373 6.81865 14.7864 6.74428 14.7225 6.68197C14.4725 6.42521 14.0469 6.42521 13.7834 6.68872V6.68872Z" fill="white" stroke="white" stroke-width="0.2"/>
</svg>
