<svg width="19" height="20" viewBox="0 0 19 20" fill="none" xmlns="http://www.w3.org/2000/svg">
<path d="M16.3331 9.54103H18.1664C18.1664 4.62478 14.6161 0.916992 9.90723 0.916992V2.83366C13.6307 2.83366 16.3331 5.65403 16.3331 9.54103Z" fill="#F89523"/>
<path d="M9.91693 6.66681C11.8447 6.66681 12.6669 7.52644 12.6669 9.54181H14.5003C14.5003 6.45119 12.8732 4.75015 9.91693 4.75015V6.66681ZM13.0538 11.883C12.8776 11.7157 12.6462 11.6264 12.4082 11.6341C12.1703 11.6418 11.9446 11.7458 11.7787 11.9242L9.58509 14.2827C9.05709 14.1773 7.99559 13.8313 6.90293 12.6919C5.81026 11.5486 5.47934 10.4359 5.38126 9.88777L7.63534 7.59352C7.80622 7.42019 7.90588 7.18414 7.91324 6.93535C7.9206 6.68655 7.83507 6.44452 7.67476 6.26048L4.28768 2.36677C4.1273 2.18216 3.9044 2.07017 3.66632 2.0546C3.42823 2.03904 3.19372 2.12111 3.01259 2.2834L1.02343 4.06686C0.864944 4.23314 0.770351 4.45445 0.757592 4.68881C0.743842 4.9284 0.481675 10.6036 4.69101 15.0062C8.36317 18.8444 12.963 19.1251 14.2298 19.1251C14.415 19.1251 14.5287 19.1194 14.5589 19.1175C14.7831 19.1044 14.9946 19.005 15.1529 18.8386L16.8579 16.7581C17.0133 16.5688 17.0919 16.3237 17.0772 16.0748C17.0625 15.8259 16.9555 15.5928 16.7791 15.425L13.0538 11.883Z" fill="#F89523"/>
</svg>
