<svg width="18" height="18" viewBox="0 0 18 18" fill="none" xmlns="http://www.w3.org/2000/svg">
<path d="M17.4194 3.77382H4.06452V4.06414C4.06452 4.22463 3.93465 4.35446 3.7742 4.35446C3.61371 4.35446 3.48388 4.22459 3.48388 4.06414V3.77382H0.580641C0.25998 3.77382 0 4.03376 0 4.35446V6.91021C0 7.05657 0.0719648 7.19565 0.196418 7.27264C0.775055 7.63053 1.16128 8.26921 1.16128 8.99962C1.16128 9.72999 0.775055 10.3687 0.196418 10.7266C0.0719648 10.8036 0 10.9427 0 11.089V13.6448C0 13.9654 0.25998 14.2254 0.580641 14.2254H3.48388V13.9351C3.48388 13.7746 3.61375 13.6448 3.7742 13.6448C3.93469 13.6448 4.06452 13.7746 4.06452 13.9351V14.2254H17.4194C17.74 14.2254 18 13.9654 18 13.6448V4.35446C18 4.03376 17.74 3.77382 17.4194 3.77382ZM4.06452 12.7738C4.06452 12.9343 3.93465 13.0641 3.7742 13.0641C3.61371 13.0641 3.48388 12.9343 3.48388 12.7738V12.1932C3.48388 12.0327 3.61375 11.9029 3.7742 11.9029C3.93469 11.9029 4.06452 12.0327 4.06452 12.1932V12.7738ZM4.06452 11.0319C4.06452 11.1923 3.93465 11.3222 3.7742 11.3222C3.61371 11.3222 3.48388 11.1923 3.48388 11.0319V10.4512C3.48388 10.2907 3.61375 10.1609 3.7742 10.1609C3.93469 10.1609 4.06452 10.2908 4.06452 10.4512V11.0319ZM4.06452 9.28994C4.06452 9.45043 3.93465 9.58026 3.7742 9.58026C3.61371 9.58026 3.48388 9.45039 3.48388 9.28994V8.7093C3.48388 8.54881 3.61375 8.41898 3.7742 8.41898C3.93469 8.41898 4.06452 8.54885 4.06452 8.7093V9.28994ZM4.06452 7.54802C4.06452 7.70851 3.93465 7.83834 3.7742 7.83834C3.61371 7.83834 3.48388 7.70847 3.48388 7.54802V6.96738C3.48388 6.80689 3.61375 6.67706 3.7742 6.67706C3.93469 6.67706 4.06452 6.80692 4.06452 6.96738V7.54802ZM4.06452 5.80606C4.06452 5.96655 3.93465 6.09638 3.7742 6.09638C3.61371 6.09638 3.48388 5.96651 3.48388 5.80606V5.22542C3.48388 5.06493 3.61375 4.9351 3.7742 4.9351C3.93469 4.9351 4.06452 5.06497 4.06452 5.22542V5.80606Z" fill="#EF8000"/>
<path d="M17.129 13.6451H4.93548C4.77514 13.6451 4.64516 13.5152 4.64516 13.3548V4.64513C4.64516 4.48478 4.77514 4.3548 4.93548 4.3548H17.129C17.2894 4.3548 17.4194 4.48478 17.4194 4.64513V13.3548C17.4194 13.5152 17.2894 13.6451 17.129 13.6451Z" fill="#F89523"/>
<path d="M10.7921 11.0061L9.28723 11.9508C8.9556 12.159 8.53942 11.8567 8.63494 11.4769L9.06841 9.75378L7.70491 8.61455C7.4044 8.36346 7.56337 7.87423 7.95406 7.84775L9.72678 7.72756L10.3889 6.07873C10.5349 5.71535 11.0493 5.71535 11.1952 6.07873L11.8573 7.72756L13.63 7.84775C14.0207 7.87426 14.1797 8.3635 13.8792 8.61455L12.5157 9.75378L12.9492 11.4769C13.0447 11.8567 12.6285 12.159 12.2969 11.9508L10.7921 11.0061Z" fill="white"/>
<path d="M12.7603 10.7262C10.8791 10.6112 9.2841 9.44669 8.55527 7.80687L7.95407 7.84762C7.56337 7.87412 7.4044 8.36336 7.70491 8.61441L9.06841 9.75364L8.6349 11.4768C8.53938 11.8565 8.95553 12.1589 9.28719 11.9507L10.792 11.0059L12.2968 11.9507C12.6284 12.1589 13.0446 11.8565 12.9491 11.4768L12.7603 10.7262Z" fill="#FFE9C9"/>
</svg>
