<svg width="24" height="24" viewBox="0 0 24 24" fill="none" xmlns="http://www.w3.org/2000/svg">
<path d="M11.9515 5.0067L12.9547 7.04485L15.2029 7.36932C15.4339 7.40232 15.5252 7.6861 15.3591 7.84779L13.7323 9.43167L14.1173 11.6711C14.1262 11.7227 14.1204 11.7758 14.1007 11.8243C14.081 11.8728 14.0482 11.9148 14.0058 11.9456C13.9635 11.9764 13.9133 11.9947 13.8611 11.9985C13.8089 12.0023 13.7566 11.9914 13.7103 11.967L11.6997 10.9089L9.69011 11.967C9.64377 11.9914 9.59153 12.0023 9.53931 11.9985C9.48708 11.9947 9.43696 11.9764 9.39461 11.9456C9.35226 11.9148 9.31937 11.8728 9.29967 11.8243C9.27997 11.7758 9.27425 11.7227 9.28314 11.6711L9.66811 9.43277L8.04023 7.84889C8.0024 7.81236 7.9756 7.76592 7.9629 7.71489C7.95019 7.66385 7.95209 7.61028 7.96838 7.56027C7.98466 7.51026 8.01468 7.46584 8.055 7.43208C8.09533 7.39832 8.14433 7.37657 8.19642 7.36932L10.4447 7.04485L11.4478 5.0067C11.4709 4.95958 11.5067 4.91987 11.5512 4.8921C11.5958 4.86433 11.6472 4.84961 11.6997 4.84961C11.7521 4.84961 11.8036 4.86433 11.8481 4.8921C11.8926 4.91987 11.9285 4.95958 11.9515 5.0067Z" fill="#F89523"/>
<path d="M19.3988 8.7005C19.399 7.4376 19.0885 6.19405 18.4948 5.07944C17.901 3.96483 17.0422 3.01339 15.994 2.30897C14.9458 1.60456 13.7404 1.16879 12.4841 1.04009C11.2278 0.911385 9.95907 1.09369 8.78981 1.57094C7.62056 2.04819 6.58666 2.80573 5.77922 3.77679C4.97179 4.74785 4.41561 5.90262 4.15971 7.13933C3.90382 8.37603 3.95606 9.65669 4.31183 10.8684C4.66761 12.0802 5.31599 13.1858 6.19984 14.0879V22.1745L6.20864 22.29C6.22839 22.4299 6.28378 22.5625 6.36949 22.6749C6.45521 22.7873 6.56836 22.8758 6.69811 22.9319C6.82785 22.988 6.96984 23.0098 7.11044 22.9952C7.25104 22.9807 7.38554 22.9302 7.50104 22.8487L11.6983 19.8933L15.8989 22.8498L15.9968 22.9092C16.1226 22.9737 16.2629 23.0047 16.4041 22.9994C16.5454 22.9941 16.6829 22.9525 16.8034 22.8788C16.924 22.805 17.0236 22.7015 17.0927 22.5782C17.1618 22.4549 17.198 22.3158 17.1979 22.1745L17.2001 14.0879C18.6118 12.6504 19.4016 10.7153 19.3988 8.7005ZM15.5491 15.3704V20.5851L12.1724 18.2093L12.0624 18.1433C11.9295 18.0779 11.7814 18.0496 11.6337 18.0612C11.4861 18.0728 11.3442 18.124 11.2232 18.2093L7.85081 20.5851V15.3704C9.02052 16.0468 10.3482 16.402 11.6994 16.3999C13.1018 16.3999 14.4162 16.026 15.5491 15.3704ZM5.64988 8.7005C5.64988 7.09606 6.28724 5.55734 7.42175 4.42283C8.55626 3.28832 10.095 2.65096 11.6994 2.65096C13.3039 2.65096 14.8426 3.28832 15.9771 4.42283C17.1116 5.55734 17.749 7.09606 17.749 8.7005C17.749 10.3049 17.1116 11.8437 15.9771 12.9782C14.8426 14.1127 13.3039 14.75 11.6994 14.75C10.095 14.75 8.55626 14.1127 7.42175 12.9782C6.28724 11.8437 5.64988 10.3049 5.64988 8.7005Z" fill="#F89523"/>
</svg>
