<svg width="15" height="16" viewBox="0 0 15 16" fill="none" xmlns="http://www.w3.org/2000/svg">
<path d="M7.5 15.5C11.6421 15.5 15 12.1421 15 8C15 3.85786 11.6421 0.5 7.5 0.5C3.35786 0.5 0 3.85786 0 8C0 12.1421 3.35786 15.5 7.5 15.5Z" fill="#AAAAAA"/>
<path d="M5.73464 6.99417C5.5818 7.14804 5.56317 7.39012 5.69067 7.56572C5.99067 7.97822 6.32275 8.36641 6.68377 8.72694C7.08669 9.13117 7.52453 9.49891 7.99241 9.82607C8.16801 9.94917 8.40699 9.92849 8.55877 9.77694L9.39154 8.94417C9.62067 8.71504 9.99256 8.71504 10.2217 8.94417L11.6752 10.3976C11.9043 10.6268 11.9043 10.9986 11.6752 11.2278L11.2821 11.6209C10.7092 12.1997 9.8757 12.4371 9.0838 12.2468C8.34907 12.052 7.65054 11.7401 7.01483 11.3235C6.42956 10.9526 5.88672 10.5192 5.39585 10.0304C4.94456 9.58144 4.53904 9.08852 4.18551 8.55886C3.79654 7.98575 3.48854 7.3617 3.26998 6.70454C3.00127 5.86686 3.22396 4.94928 3.84672 4.32781L4.30449 3.86228C4.53362 3.63315 4.90551 3.63315 5.13467 3.86228L6.58812 5.31572C6.81725 5.54486 6.81725 5.91675 6.58812 6.14591L5.73464 6.99417Z" fill="white"/>
</svg>
