<svg width="235" height="109" viewBox="0 0 235 109" fill="none" xmlns="http://www.w3.org/2000/svg">
  <defs>
    <linearGradient id="paint0_linear_2142:27258" x1="10.4407" y1="78.708" x2="22.9744" y2="78.708"
                    gradientUnits="userSpaceOnUse">
      <stop offset="0.355" stop-color="#FFC34E"/>
      <stop offset="0.633" stop-color="#F89523"/>
    </linearGradient>
    <linearGradient id="paint1_linear_2142:27258" x1="57.6372" y1="32.4688" x2="65.3295" y2="32.4688"
                    gradientUnits="userSpaceOnUse">
      <stop stop-color="#FF8D79"/>
      <stop offset="0.649" stop-color="#FF7079"/>
    </linearGradient>
  </defs>
  <path opacity="0.1"
        d="M118.022 109C142.827 109 162.935 88.8918 162.935 64.0872C162.935 39.2826 142.827 19.1746 118.022 19.1746C93.2176 19.1746 73.1095 39.2826 73.1095 64.0872C73.1095 88.8918 93.2176 109 118.022 109Z"
        fill="#26AB33"/>
  <path
    d="M118.022 101.688C138.789 101.688 155.623 84.8538 155.623 64.0871C155.623 43.3205 138.789 26.4858 118.022 26.4858C97.2554 26.4858 80.4208 43.3205 80.4208 64.0871C80.4208 84.8538 97.2554 101.688 118.022 101.688Z"
    fill="#26AB33"/>
  <path opacity="0.2"
        d="M147.12 70.9636C150.912 54.9111 140.969 38.8252 124.911 35.0348C108.854 31.2443 92.7635 41.1847 88.9719 57.2372C85.1804 73.2896 95.1236 89.3755 111.181 93.1659C127.238 96.9564 143.329 87.016 147.12 70.9636Z"
        fill="black"/>
  <path
    d="M114.329 78.3511C113.538 78.3511 112.768 78.0434 112.197 77.472L99.5126 65.0553C98.3036 63.8686 98.2816 61.9567 99.4687 60.748C100.656 59.5393 102.568 59.5173 103.777 60.704L114.175 70.8791L132.157 50.8146C133.278 49.562 135.213 49.4521 136.466 50.5729C137.719 51.6937 137.829 53.6276 136.708 54.8803L116.615 77.3402C116.066 77.9555 115.274 78.3291 114.439 78.3511C114.395 78.3511 114.351 78.3511 114.329 78.3511Z"
    fill="white"/>
  <path opacity="0.3"
        d="M19.6631 84.6007L17.4581 83.5194C17.296 83.44 17.1176 83.4023 16.9382 83.4097C16.7589 83.4171 16.584 83.4694 16.4286 83.562L14.3147 84.8217C14.1358 84.9283 13.9316 84.9812 13.7251 84.9743C13.5186 84.9675 13.3181 84.9012 13.1463 84.7829C12.9744 84.6646 12.8381 84.4991 12.7528 84.3051C12.6674 84.111 12.6365 83.8962 12.6633 83.685L12.9792 81.1886C13.0024 81.005 12.982 80.8184 12.9198 80.6448C12.8576 80.4711 12.7554 80.3157 12.6221 80.1918L10.8069 78.5077C10.6534 78.3651 10.5417 78.1811 10.4843 77.9765C10.4269 77.7719 10.4261 77.5548 10.4821 77.3497C10.5381 77.1446 10.6485 76.9598 10.801 76.8161C10.9534 76.6724 11.1419 76.5755 11.3449 76.5364L13.7446 76.0748C13.921 76.041 14.0868 75.9633 14.2277 75.8487C14.3685 75.734 14.4802 75.5857 14.5532 75.4166L15.5459 73.1189C15.6298 72.9242 15.7649 72.7577 15.9358 72.6381C16.1067 72.5185 16.3067 72.4506 16.5131 72.4421C16.7194 72.4336 16.924 72.4848 17.1037 72.5899C17.2833 72.6951 17.4308 72.85 17.5295 73.0371L18.6972 75.2483C18.783 75.4109 18.9059 75.5496 19.0552 75.6524C19.2045 75.7552 19.3758 75.819 19.5543 75.8383L21.9822 76.1005C22.1877 76.1226 22.3831 76.2035 22.5463 76.3342C22.7096 76.4648 22.8341 76.64 22.9057 76.8399C22.9774 77.0398 22.9934 77.2564 22.9519 77.4651C22.9104 77.6739 22.813 77.8665 22.6709 78.0211L20.992 79.8458C20.8686 79.9802 20.7787 80.1436 20.7301 80.3219C20.6814 80.5001 20.6755 80.6878 20.7129 80.8689L21.2214 83.3315C21.2646 83.5399 21.2503 83.7566 21.1803 83.9571C21.1102 84.1576 20.9872 84.3339 20.825 84.466C20.6628 84.598 20.4681 84.6807 20.2627 84.7045C20.0574 84.7283 19.8497 84.6923 19.6631 84.6007Z"
        fill="url(#paint0_linear_2142:27258)"/>
  <path opacity="0.3"
        d="M119.898 14.8709L117.765 13.86C117.608 13.7855 117.435 13.7503 117.26 13.7572C117.086 13.7641 116.916 13.8131 116.765 13.8999L114.721 15.0771C114.548 15.1768 114.351 15.2262 114.151 15.2199C113.951 15.2135 113.757 15.1515 113.591 15.041C113.425 14.9304 113.293 14.7757 113.21 14.5944C113.128 14.4131 113.098 14.2123 113.124 14.0149L113.431 11.6826C113.454 11.511 113.435 11.3365 113.374 11.1741C113.314 11.0117 113.215 10.8664 113.086 10.7507L111.331 9.17722C111.183 9.04396 111.075 8.87222 111.02 8.68137C110.965 8.49051 110.964 8.28811 111.018 8.09694C111.073 7.90577 111.179 7.73343 111.326 7.59931C111.473 7.4652 111.655 7.37463 111.851 7.33782L114.172 6.90708C114.343 6.8755 114.503 6.80323 114.639 6.69644C114.775 6.58966 114.884 6.45155 114.955 6.29396L115.914 4.14415C115.995 3.96139 116.125 3.8049 116.291 3.6925C116.457 3.5801 116.651 3.51628 116.851 3.5083C117.052 3.50032 117.25 3.54849 117.424 3.64735C117.599 3.7462 117.742 3.89176 117.837 4.0675L118.965 6.13684C119.049 6.28847 119.168 6.41775 119.312 6.5137C119.456 6.60965 119.622 6.66941 119.795 6.68789L122.143 6.93315C122.342 6.95364 122.531 7.02918 122.689 7.15123C122.847 7.27328 122.967 7.43694 123.036 7.6237C123.106 7.81045 123.121 8.01282 123.081 8.20788C123.041 8.40293 122.947 8.58288 122.809 8.72733L121.185 10.4357C121.066 10.5614 120.979 10.7141 120.932 10.8808C120.885 11.0474 120.88 11.2229 120.916 11.3922L121.408 13.6914C121.448 13.886 121.433 14.0881 121.365 14.2747C121.296 14.4614 121.177 14.6253 121.02 14.7479C120.863 14.8705 120.675 14.947 120.476 14.9688C120.278 14.9905 120.078 14.9566 119.898 14.8709Z"
        fill="#22B573"/>
  <path opacity="0.5"
        d="M194.723 33.8994L193.476 33.3085C193.263 33.2076 193.029 33.1598 192.793 33.1693C192.557 33.1788 192.328 33.2452 192.123 33.3629L190.929 34.0527C190.694 34.1882 190.425 34.2553 190.154 34.2467C189.882 34.238 189.619 34.1538 189.393 34.0037C189.167 33.8535 188.988 33.6434 188.875 33.397C188.763 33.1506 188.722 32.8779 188.757 32.6096L188.936 31.2461C188.966 31.0129 188.939 30.7758 188.857 30.5553C188.776 30.3347 188.641 30.1373 188.466 29.98L187.44 29.0603C187.238 28.8793 187.091 28.6456 187.016 28.3857C186.94 28.1257 186.939 27.8499 187.012 27.5893C187.086 27.3288 187.231 27.094 187.432 26.9114C187.632 26.7289 187.88 26.6059 188.147 26.5564L189.503 26.3042C189.735 26.2612 189.953 26.1625 190.138 26.0169C190.324 25.8712 190.471 25.6829 190.566 25.4681L191.127 24.2119C191.238 23.9646 191.415 23.7529 191.64 23.6009C191.865 23.4489 192.127 23.3626 192.399 23.3518C192.67 23.3409 192.939 23.406 193.176 23.5396C193.412 23.6731 193.606 23.8699 193.736 24.1077L194.396 25.3155C194.508 25.5221 194.67 25.6982 194.866 25.8287C195.063 25.9592 195.288 26.04 195.523 26.0643L196.895 26.2077C197.165 26.2358 197.422 26.3386 197.636 26.5046C197.851 26.6706 198.015 26.8931 198.109 27.147C198.203 27.4008 198.224 27.6758 198.169 27.941C198.115 28.2061 197.987 28.4507 197.8 28.6472L196.851 29.6435C196.689 29.8143 196.571 30.0217 196.507 30.248C196.443 30.4743 196.435 30.7126 196.484 30.9426L196.772 32.2869C196.829 32.5516 196.81 32.8268 196.718 33.0815C196.626 33.3361 196.464 33.56 196.251 33.7278C196.038 33.8956 195.782 34.0006 195.512 34.0309C195.242 34.0613 194.969 34.0157 194.723 33.8994Z"
        fill="#D9E2F9"/>
  <path opacity="0.5"
        d="M160.255 39.1219L159.008 38.5309C158.795 38.43 158.561 38.3822 158.325 38.3917C158.089 38.4012 157.86 38.4676 157.655 38.5854L156.461 39.2751C156.226 39.4106 155.957 39.4777 155.686 39.4691C155.414 39.4604 155.151 39.3762 154.925 39.2261C154.699 39.0759 154.52 38.8658 154.407 38.6194C154.295 38.3731 154.254 38.1003 154.289 37.832L154.468 36.4685C154.498 36.2353 154.471 35.9982 154.389 35.7777C154.308 35.5571 154.173 35.3597 153.998 35.2024L152.972 34.2827C152.77 34.1017 152.623 33.868 152.548 33.6081C152.472 33.3481 152.471 33.0723 152.544 32.8117C152.618 32.5512 152.763 32.3164 152.964 32.1338C153.164 31.9513 153.412 31.8283 153.679 31.7788L155.035 31.5266C155.267 31.4836 155.485 31.385 155.67 31.2393C155.856 31.0936 156.003 30.9053 156.098 30.6905L156.659 29.4343C156.769 29.187 156.947 28.9754 157.172 28.8233C157.397 28.6713 157.659 28.585 157.931 28.5742C158.202 28.5633 158.471 28.6284 158.708 28.762C158.944 28.8956 159.138 29.0924 159.268 29.3301L159.928 30.538C160.04 30.7445 160.202 30.9206 160.398 31.0511C160.595 31.1816 160.82 31.2624 161.055 31.2868L162.427 31.4301C162.697 31.4582 162.954 31.561 163.168 31.727C163.383 31.893 163.547 32.1156 163.641 32.3694C163.735 32.6232 163.756 32.8982 163.701 33.1634C163.647 33.4285 163.519 33.6731 163.332 33.8696L162.383 34.8659C162.221 35.0367 162.103 35.2441 162.039 35.4704C161.975 35.6967 161.967 35.9351 162.016 36.165L162.304 37.5093C162.361 37.774 162.342 38.0492 162.25 38.3039C162.158 38.5585 161.996 38.7824 161.783 38.9502C161.57 39.118 161.314 39.223 161.044 39.2533C160.774 39.2837 160.501 39.2381 160.255 39.1219Z"
        fill="#FFE3E4"/>
  <path opacity="0.2"
        d="M61.4833 36.3009C63.6075 36.3009 65.3295 34.5852 65.3295 32.4688C65.3295 30.3524 63.6075 28.6367 61.4833 28.6367C59.3592 28.6367 57.6372 30.3524 57.6372 32.4688C57.6372 34.5852 59.3592 36.3009 61.4833 36.3009Z"
        fill="url(#paint1_linear_2142:27258)"/>
  <path opacity="0.3"
        d="M43.0219 11.7754C44.2964 11.7754 45.3296 10.746 45.3296 9.47614C45.3296 8.20629 44.2964 7.17688 43.0219 7.17688C41.7474 7.17688 40.7142 8.20629 40.7142 9.47614C40.7142 10.746 41.7474 11.7754 43.0219 11.7754Z"
        fill="#AAAAAA"/>
  <path opacity="0.2"
        d="M220.714 88.4174C222.838 88.4174 224.56 86.7017 224.56 84.5853C224.56 82.4689 222.838 80.7532 220.714 80.7532C218.589 80.7532 216.867 82.4689 216.867 84.5853C216.867 86.7017 218.589 88.4174 220.714 88.4174Z"
        fill="#E296DB"/>

</svg>
