<svg width="15" height="15" viewBox="0 0 15 15" fill="none" xmlns="http://www.w3.org/2000/svg">
<path d="M7.4375 0C3.33027 0 0 3.33027 0 7.4375C0 11.5447 3.33027 14.875 7.4375 14.875C11.5447 14.875 14.875 11.5447 14.875 7.4375C14.875 3.33027 11.5447 0 7.4375 0ZM7.4375 13.6133C4.02754 13.6133 1.26172 10.8475 1.26172 7.4375C1.26172 4.02754 4.02754 1.26172 7.4375 1.26172C10.8475 1.26172 13.6133 4.02754 13.6133 7.4375C13.6133 10.8475 10.8475 13.6133 7.4375 13.6133Z" fill="#EB2028"/>
<path d="M7.4375 1.26172C4.02754 1.26172 1.26172 4.02754 1.26172 7.4375C1.26172 10.8475 4.02754 13.6133 7.4375 13.6133C10.8475 13.6133 13.6133 10.8475 13.6133 7.4375C13.6133 4.02754 10.8475 1.26172 7.4375 1.26172ZM7.96875 11.0234C7.96875 11.0965 7.90898 11.1562 7.83594 11.1562H7.03906C6.96602 11.1562 6.90625 11.0965 6.90625 11.0234V6.50781C6.90625 6.43477 6.96602 6.375 7.03906 6.375H7.83594C7.90898 6.375 7.96875 6.43477 7.96875 6.50781V11.0234ZM7.4375 5.3125C7.22897 5.30824 7.03042 5.22242 6.88445 5.07344C6.73848 4.92446 6.65673 4.7242 6.65673 4.51562C6.65673 4.30705 6.73848 4.10679 6.88445 3.95781C7.03042 3.80883 7.22897 3.72301 7.4375 3.71875C7.64603 3.72301 7.84458 3.80883 7.99055 3.95781C8.13652 4.10679 8.21827 4.30705 8.21827 4.51562C8.21827 4.7242 8.13652 4.92446 7.99055 5.07344C7.84458 5.22242 7.64603 5.30824 7.4375 5.3125Z" fill="#EB2028" fill-opacity="0.1"/>
<path d="M6.64062 4.51562C6.64063 4.72697 6.72458 4.92966 6.87402 5.0791C7.02347 5.22854 7.22616 5.3125 7.4375 5.3125C7.64884 5.3125 7.85153 5.22854 8.00098 5.0791C8.15042 4.92966 8.23438 4.72697 8.23438 4.51562C8.23438 4.30428 8.15042 4.10159 8.00098 3.95215C7.85153 3.80271 7.64884 3.71875 7.4375 3.71875C7.22616 3.71875 7.02347 3.80271 6.87402 3.95215C6.72458 4.10159 6.64063 4.30428 6.64062 4.51562V4.51562ZM7.83594 6.375H7.03906C6.96602 6.375 6.90625 6.43477 6.90625 6.50781V11.0234C6.90625 11.0965 6.96602 11.1562 7.03906 11.1562H7.83594C7.90898 11.1562 7.96875 11.0965 7.96875 11.0234V6.50781C7.96875 6.43477 7.90898 6.375 7.83594 6.375Z" fill="#EB2028"/>
</svg>
