<svg width="20" height="21" viewBox="0 0 20 21" fill="none" xmlns="http://www.w3.org/2000/svg">
<path d="M10 20.9375C15.5228 20.9375 20 16.4603 20 10.9375C20 5.41465 15.5228 0.9375 10 0.9375C4.47715 0.9375 0 5.41465 0 10.9375C0 16.4603 4.47715 20.9375 10 20.9375Z" fill="#363636"/>
<path d="M7.64619 9.5964C7.4424 9.80155 7.41756 10.1243 7.58756 10.3585C7.98756 10.9085 8.43033 11.426 8.9117 11.9067C9.44892 12.4457 10.0327 12.936 10.6565 13.3723C10.8907 13.5364 11.2093 13.5088 11.4117 13.3067L12.522 12.1964C12.8276 11.8909 13.3234 11.8909 13.629 12.1964L15.5669 14.1343C15.8724 14.4398 15.8724 14.9357 15.5669 15.2412L15.0428 15.7654C14.279 16.5371 13.1676 16.8537 12.1117 16.5999C11.1321 16.3402 10.2007 15.9244 9.3531 15.3689C8.57275 14.8744 7.84896 14.2964 7.19447 13.6447C6.59275 13.0461 6.05205 12.3889 5.58068 11.6826C5.06205 10.9185 4.65138 10.0864 4.35998 9.21022C4.0017 8.09331 4.29861 6.86987 5.12896 6.04124L5.73931 5.42054C6.04482 5.11503 6.54068 5.11503 6.84623 5.42054L8.78416 7.35847C9.08966 7.66397 9.08966 8.15983 8.78416 8.46538L7.64619 9.5964Z" fill="white"/>
</svg>
