<svg width="14" height="14" viewBox="0 0 14 14" fill="none" xmlns="http://www.w3.org/2000/svg">
<path d="M1.74419 4.30488C1.67628 4.37261 1.62241 4.45307 1.58565 4.54166C1.54889 4.63025 1.52997 4.72522 1.52997 4.82113C1.52997 4.91704 1.54889 5.01201 1.58565 5.10059C1.62241 5.18918 1.67628 5.26964 1.74419 5.33738L6.59169 10.1849C6.64565 10.239 6.70976 10.2819 6.78032 10.3111C6.85089 10.3404 6.92654 10.3555 7.00294 10.3555C7.07934 10.3555 7.15498 10.3404 7.22555 10.3111C7.29612 10.2819 7.36022 10.239 7.41419 10.1849L12.2617 5.33738C12.5475 5.05154 12.5475 4.59071 12.2617 4.30487C11.9759 4.01904 11.515 4.01904 11.2292 4.30487L7.00002 8.52821L2.77085 4.29904C2.49085 4.01904 2.02419 4.01904 1.74419 4.30488Z" fill="#363636" stroke="#363636" stroke-width="0.2"/>
</svg>
