<svg width="17" height="23" viewBox="0 0 17 23" fill="none" xmlns="http://www.w3.org/2000/svg">
<path d="M8.50001 0.326172C6.33696 0.327979 4.2625 1.18568 2.72974 2.71193C1.19698 4.23819 0.330465 6.30898 0.319458 8.47201C0.319458 11.7151 2.1389 14.4303 3.47224 16.4095L3.71529 16.7706C5.04187 18.6933 6.46499 20.5475 7.97918 22.3262L8.50696 22.9442L9.03473 22.3262C10.5487 20.5473 11.9718 18.6931 13.2986 16.7706L13.5417 16.4026C14.8681 14.4234 16.6875 11.7151 16.6875 8.47201C16.6765 6.30777 15.809 4.23594 14.2748 2.70949C12.7405 1.18303 10.6643 0.326144 8.50001 0.326172V0.326172ZM8.50001 12.1317C7.59901 12.1317 6.71824 11.8645 5.96908 11.364C5.21992 10.8634 4.63603 10.1519 4.29123 9.31951C3.94643 8.48709 3.85621 7.57112 4.03199 6.68743C4.20777 5.80374 4.64164 4.99201 5.27875 4.35491C5.91585 3.7178 6.72758 3.28393 7.61127 3.10815C8.49496 2.93237 9.41093 3.02259 10.2433 3.36739C11.0758 3.71219 11.7872 4.29608 12.2878 5.04524C12.7884 5.7944 13.0556 6.67517 13.0556 7.57617C13.0556 8.78438 12.5756 9.9431 11.7213 10.7974C10.8669 11.6518 9.70822 12.1317 8.50001 12.1317V12.1317Z" fill="#363636"/>
<path d="M8.49995 10.1669C9.93052 10.1669 11.0902 9.00718 11.0902 7.57661C11.0902 6.14604 9.93052 4.98633 8.49995 4.98633C7.06938 4.98633 5.90967 6.14604 5.90967 7.57661C5.90967 9.00718 7.06938 10.1669 8.49995 10.1669Z" fill="#363636"/>
</svg>
