<svg width="205" height="171" viewBox="0 0 205 171" fill="none" xmlns="http://www.w3.org/2000/svg">
<g opacity="0.8" clip-path="url(#clip0)">
<path opacity="0.3" d="M102.282 171C138.889 171 168.564 141.433 168.564 104.96C168.564 68.4869 138.889 38.9197 102.282 38.9197C65.6752 38.9197 35.9996 68.4869 35.9996 104.96C35.9996 141.433 65.6752 171 102.282 171Z" fill="url(#paint0_linear)"/>
<path opacity="0.3" d="M102.282 160.36C132.991 160.36 157.885 135.557 157.885 104.96C157.885 74.3632 132.991 49.5596 102.282 49.5596C71.5729 49.5596 46.6784 74.3632 46.6784 104.96C46.6784 135.557 71.5729 160.36 102.282 160.36Z" fill="url(#paint1_linear)"/>
<path opacity="0.2" d="M102.282 141.282C122.416 141.282 138.737 125.02 138.737 104.96C138.737 84.8998 122.416 68.6379 102.282 68.6379C82.1482 68.6379 65.8266 84.8998 65.8266 104.96C65.8266 125.02 82.1482 141.282 102.282 141.282Z" fill="url(#paint2_linear)"/>
<path opacity="0.9" d="M48.6175 67.3535C48.1756 63.7815 45.7151 55.765 42.7913 54.1793C42.7719 54.1693 42.7498 54.1658 42.7283 54.1694C42.7068 54.173 42.687 54.1834 42.672 54.1991C42.4918 54.3763 42.3741 54.6071 42.3368 54.8566C42.2995 55.1062 42.3445 55.3611 42.465 55.583C43.2818 57.0579 44.8704 61.1957 44.933 71.1457C44.9337 71.3065 44.8705 71.461 44.7572 71.5754C44.6439 71.6899 44.4896 71.7549 44.3283 71.7562H42.7257C42.7257 71.7562 42.7257 56.3468 38.3069 54.1455C38.2096 54.1434 38.1129 54.161 38.0226 54.1971C37.9323 54.2332 37.8503 54.2872 37.7815 54.3557C37.7126 54.4243 37.6585 54.506 37.6222 54.596C37.586 54.686 37.5683 54.7824 37.5705 54.8793C37.5705 54.8793 39.0434 64.4184 38.3069 71.7562H36.834C36.834 71.7562 36.834 59.282 34.6246 54.1455L34.425 53.9467C34.2825 53.805 34.0894 53.7254 33.8881 53.7254C33.6868 53.7254 33.4937 53.805 33.3512 53.9467L33.1516 54.1455C30.9422 59.282 30.9422 71.7562 30.9422 71.7562H29.4693C28.7328 64.4184 30.2058 54.8793 30.2058 54.8793C30.2079 54.7824 30.1903 54.686 30.154 54.596C30.1177 54.506 30.0636 54.4243 29.9948 54.3557C29.9259 54.2872 29.8439 54.2332 29.7536 54.1971C29.6633 54.161 29.5666 54.1434 29.4693 54.1455C25.0505 56.3468 25.0505 71.7562 25.0505 71.7562H23.4479C23.2866 71.7549 23.1323 71.6899 23.019 71.5754C22.9057 71.461 22.8425 71.3065 22.8433 71.1457C22.9059 61.1957 24.4944 57.0572 25.3112 55.583C25.4317 55.3611 25.4767 55.1062 25.4394 54.8566C25.4021 54.6071 25.2845 54.3763 25.1042 54.1991C25.0892 54.1834 25.0694 54.173 25.0479 54.1694C25.0264 54.1658 25.0043 54.1693 24.9849 54.1793C22.0611 55.765 19.5991 63.7815 19.1587 67.3535C18.7043 71.0357 19.1587 76.1589 21.3681 82.0291C23.5775 87.8994 30.2058 93.0358 30.2058 93.0358C30.2058 93.0358 27.9963 139.998 27.9963 148.803C27.9963 158.342 33.8881 157.608 33.8881 157.608C33.8881 157.608 39.7799 158.342 39.7799 148.803C39.7799 139.998 37.5705 93.0358 37.5705 93.0358C37.5705 93.0358 44.1987 87.8994 46.4081 82.0291C48.6175 76.1589 49.0719 71.0357 48.6175 67.3535Z" fill="url(#paint3_linear)"/>
<path opacity="0.9" d="M169.469 53.4119C157.685 53.4119 154.003 68.8213 154.003 73.9578C153.91 79.3056 155.739 84.5104 159.158 88.6334C160.263 89.9542 161.236 91.2104 162.056 92.3199C164.004 94.9591 164.987 98.1833 164.841 101.456C164.32 113.372 162.993 144.058 162.852 150.829C162.821 151.645 162.93 152.46 163.174 153.24C164.63 157.609 169.469 157.609 169.469 157.609C169.469 157.609 174.307 157.609 175.763 153.24C176.008 152.46 176.116 151.645 176.085 150.829C175.945 144.058 174.618 113.372 174.097 101.456C173.951 98.1833 174.933 94.9591 176.881 92.3199C177.702 91.2104 178.674 89.9549 179.779 88.6334C183.199 84.5104 185.027 79.3056 184.935 73.9578C184.935 68.8213 181.252 53.4119 169.469 53.4119Z" fill="url(#paint4_linear)"/>
<path opacity="0.8" d="M171.99 57.6796C170.38 57.1318 168.638 57.0969 167.008 57.5798C163.361 58.6849 156.949 62.1968 156.949 73.224C156.949 80.1832 159.6 88.4617 168.039 90.55C169.038 90.7966 170.082 90.8016 171.084 90.5647C174.468 89.7619 181.989 86.6346 181.989 74.6916C181.989 68.0413 179.57 60.1862 171.99 57.6796Z" fill="#AAAAAA"/>
<path opacity="0.9" d="M171.99 57.6796C170.38 57.1318 168.638 57.0969 167.008 57.5798C163.361 58.6849 156.949 62.1968 156.949 73.224C156.949 80.1832 159.6 88.4617 168.039 90.55C169.038 90.7966 170.082 90.8016 171.084 90.5647C174.468 89.7619 181.989 86.6346 181.989 74.6916C181.989 68.0413 179.57 60.1862 171.99 57.6796Z" fill="url(#paint5_linear)"/>
<path opacity="0.3" d="M8.82932 77.6415L6.71818 76.6062C6.56299 76.5301 6.39219 76.4941 6.2205 76.5012C6.0488 76.5083 5.88137 76.5583 5.73258 76.647L3.70865 77.853C3.53741 77.9551 3.3419 78.0058 3.1442 77.9992C2.94651 77.9926 2.75454 77.9291 2.59002 77.8159C2.42551 77.7026 2.29502 77.5442 2.2133 77.3584C2.13159 77.1726 2.10192 76.967 2.12766 76.7647L2.43006 74.3747C2.45227 74.1989 2.43277 74.0203 2.37321 73.854C2.31365 73.6878 2.21582 73.5389 2.08814 73.4203L0.350294 71.8079C0.203353 71.6714 0.0963678 71.4953 0.0414104 71.2994C-0.0135471 71.1034 -0.0142752 70.8956 0.0393043 70.6992C0.0928838 70.5029 0.19863 70.326 0.344608 70.1884C0.490585 70.0508 0.670975 69.958 0.865381 69.9206L3.16283 69.4787C3.33175 69.4462 3.49049 69.3719 3.62536 69.2621C3.76023 69.1524 3.86719 69.0104 3.93702 68.8485L4.88749 66.6486C4.96783 66.4623 5.09713 66.3028 5.26076 66.1883C5.4244 66.0738 5.61584 66.0088 5.81343 66.0006C6.01103 65.9925 6.2069 66.0415 6.37888 66.1422C6.55085 66.2429 6.69207 66.3912 6.78657 66.5703L7.90457 68.6874C7.98672 68.8431 8.10433 68.9758 8.24728 69.0742C8.39024 69.1726 8.55424 69.2337 8.72517 69.2522L11.0496 69.5033C11.2464 69.5244 11.4335 69.6019 11.5898 69.727C11.7461 69.8521 11.8652 70.0198 11.9339 70.2112C12.0025 70.4025 12.0178 70.6099 11.978 70.8098C11.9383 71.0096 11.8451 71.194 11.709 71.3421L10.1016 73.089C9.98347 73.2178 9.89742 73.3742 9.85086 73.5448C9.80431 73.7155 9.79865 73.8952 9.83438 74.0686L10.3212 76.4263C10.3626 76.6259 10.349 76.8334 10.2819 77.0253C10.2148 77.2173 10.097 77.386 9.94175 77.5125C9.78649 77.6389 9.6 77.718 9.4034 77.7408C9.2068 77.7636 9.00794 77.7292 8.82932 77.6415V77.6415Z" fill="url(#paint6_linear)"/>
<path opacity="0.3" d="M104.795 10.8813L102.754 9.91342C102.603 9.8421 102.437 9.80831 102.27 9.81496C102.103 9.82161 101.941 9.86849 101.796 9.95158L99.8394 11.0787C99.6738 11.1741 99.4846 11.2214 99.2934 11.2153C99.1021 11.2092 98.9164 11.1499 98.7572 11.0441C98.598 10.9382 98.4718 10.7901 98.3927 10.6165C98.3136 10.4429 98.2849 10.2507 98.3098 10.0616L98.6044 7.82875C98.6262 7.66445 98.6074 7.49733 98.5498 7.34186C98.4922 7.18638 98.3974 7.04724 98.2737 6.93647L96.5931 5.43003C96.4516 5.30244 96.3486 5.13802 96.2958 4.95529C96.243 4.77256 96.2424 4.57878 96.2942 4.39575C96.3459 4.21272 96.4479 4.04772 96.5887 3.91932C96.7294 3.79091 96.9034 3.70421 97.0909 3.66896L99.3136 3.25657C99.4768 3.22633 99.6301 3.15713 99.7606 3.0549C99.891 2.95266 99.9947 2.82043 100.063 2.66955L100.981 0.611296C101.058 0.436317 101.184 0.2865 101.342 0.178883C101.501 0.071267 101.687 0.0101697 101.879 0.00252586C102.07 -0.00511801 102.26 0.0410084 102.427 0.135653C102.594 0.230298 102.731 0.369659 102.822 0.537913L103.903 2.51913C103.982 2.6643 104.096 2.78808 104.235 2.87994C104.373 2.9718 104.531 3.02902 104.696 3.04671L106.945 3.28153C107.135 3.30114 107.316 3.37347 107.467 3.49032C107.619 3.60717 107.734 3.76386 107.8 3.94266C107.867 4.12146 107.881 4.31522 107.843 4.50196C107.805 4.68871 107.714 4.86099 107.583 4.9993L106.028 6.63489C105.914 6.75522 105.83 6.90148 105.786 7.06103C105.741 7.22059 105.735 7.38863 105.77 7.55065L106.241 9.75199C106.28 9.93831 106.265 10.1317 106.2 10.3104C106.134 10.4892 106.02 10.6461 105.87 10.7635C105.719 10.8809 105.539 10.9541 105.349 10.9749C105.159 10.9957 104.967 10.9633 104.795 10.8813V10.8813Z" fill="#22B573"/>
<path opacity="0.5" d="M176.434 29.0994L175.24 28.5336C175.036 28.437 174.812 28.3912 174.586 28.4003C174.361 28.4094 174.141 28.473 173.945 28.5857L172.801 29.2461C172.576 29.3758 172.319 29.4401 172.059 29.4318C171.799 29.4235 171.547 29.3429 171.331 29.1992C171.114 29.0554 170.943 28.8542 170.835 28.6183C170.728 28.3825 170.689 28.1213 170.722 27.8644L170.893 26.559C170.922 26.3358 170.897 26.1088 170.818 25.8976C170.74 25.6864 170.611 25.4974 170.443 25.3468L169.461 24.4663C169.268 24.293 169.127 24.0693 169.055 23.8204C168.982 23.5715 168.981 23.3074 169.052 23.058C169.122 22.8085 169.261 22.5837 169.453 22.4089C169.645 22.2342 169.883 22.1164 170.138 22.069L171.437 21.8276C171.659 21.7864 171.867 21.692 172.045 21.5525C172.222 21.413 172.363 21.2327 172.454 21.0271L172.991 19.8244C173.097 19.5876 173.267 19.385 173.482 19.2394C173.697 19.0939 173.949 19.0113 174.209 19.0009C174.469 18.9905 174.726 19.0528 174.952 19.1807C175.179 19.3086 175.364 19.497 175.489 19.7246L176.121 20.881C176.228 21.0788 176.383 21.2474 176.571 21.3723C176.759 21.4972 176.975 21.5747 177.199 21.5979L178.513 21.7352C178.772 21.7621 179.018 21.8606 179.223 22.0195C179.429 22.1784 179.585 22.3914 179.676 22.6345C179.766 22.8775 179.786 23.1408 179.734 23.3946C179.681 23.6485 179.559 23.8827 179.38 24.0708L178.471 25.0247C178.316 25.1882 178.203 25.3868 178.142 25.6034C178.081 25.8201 178.073 26.0483 178.12 26.2685L178.396 27.5555C178.45 27.8089 178.432 28.0724 178.344 28.3162C178.256 28.56 178.101 28.7744 177.897 28.935C177.693 29.0957 177.448 29.1962 177.189 29.2253C176.931 29.2543 176.669 29.2107 176.434 29.0994V29.0994Z" fill="#D9E2F9"/>
<path opacity="0.5" d="M143.434 34.0994L142.24 33.5336C142.036 33.437 141.812 33.3912 141.586 33.4003C141.361 33.4094 141.141 33.473 140.945 33.5857L139.801 34.2461C139.576 34.3758 139.319 34.4401 139.059 34.4318C138.799 34.4235 138.547 34.3429 138.331 34.1992C138.114 34.0554 137.943 33.8542 137.835 33.6183C137.728 33.3825 137.689 33.1213 137.722 32.8644L137.893 31.559C137.922 31.3358 137.897 31.1088 137.818 30.8976C137.74 30.6864 137.611 30.4974 137.443 30.3468L136.461 29.4663C136.268 29.293 136.127 29.0693 136.055 28.8204C135.982 28.5715 135.981 28.3074 136.052 28.058C136.122 27.8085 136.261 27.5837 136.453 27.4089C136.645 27.2342 136.883 27.1164 137.138 27.069L138.437 26.8276C138.659 26.7864 138.867 26.692 139.045 26.5525C139.222 26.413 139.363 26.2327 139.454 26.0271L139.991 24.8244C140.097 24.5876 140.267 24.385 140.482 24.2394C140.697 24.0939 140.949 24.0113 141.209 24.0009C141.469 23.9905 141.726 24.0528 141.952 24.1807C142.179 24.3086 142.364 24.497 142.489 24.7246L143.121 25.881C143.228 26.0788 143.383 26.2474 143.571 26.3723C143.759 26.4972 143.975 26.5747 144.199 26.5979L145.513 26.7352C145.772 26.7621 146.018 26.8606 146.223 27.0195C146.429 27.1784 146.585 27.3914 146.676 27.6345C146.766 27.8775 146.786 28.1408 146.734 28.3946C146.681 28.6485 146.559 28.8827 146.38 29.0708L145.471 30.0247C145.316 30.1882 145.203 30.3868 145.142 30.6034C145.081 30.8201 145.073 31.0483 145.12 31.2685L145.396 32.5555C145.45 32.8089 145.432 33.0724 145.344 33.3162C145.256 33.56 145.101 33.7744 144.897 33.935C144.693 34.0957 144.448 34.1962 144.189 34.2253C143.931 34.2543 143.669 34.2107 143.434 34.0994V34.0994Z" fill="#FFE3E4"/>
<path opacity="0.2" d="M48.8685 31.3985C50.9022 31.3985 52.5508 29.7558 52.5508 27.7296C52.5508 25.7033 50.9022 24.0607 48.8685 24.0607C46.8348 24.0607 45.1861 25.7033 45.1861 27.7296C45.1861 29.7558 46.8348 31.3985 48.8685 31.3985Z" fill="url(#paint7_linear)"/>
<path opacity="0.3" d="M31.1933 7.91751C32.4135 7.91751 33.4027 6.93194 33.4027 5.71617C33.4027 4.5004 32.4135 3.51483 31.1933 3.51483C29.9731 3.51483 28.9839 4.5004 28.9839 5.71617C28.9839 6.93194 29.9731 7.91751 31.1933 7.91751Z" fill="#AAAAAA"/>
<path opacity="0.2" d="M201.318 81.2954C203.351 81.2954 205 79.6528 205 77.6265C205 75.6003 203.351 73.9576 201.318 73.9576C199.284 73.9576 197.635 75.6003 197.635 77.6265C197.635 79.6528 199.284 81.2954 201.318 81.2954Z" fill="#AAAAAA"/>
<g style="mix-blend-mode:color" opacity="0">
<rect x="12" y="39" width="186" height="156" fill="url(#paint8_linear)"/>
</g>
</g>
<defs>
<linearGradient id="paint0_linear" x1="35.9996" y1="104.96" x2="168.564" y2="104.96" gradientUnits="userSpaceOnUse">
<stop stop-color="#C4C4C4"/>
<stop offset="1" stop-color="#AAAAAA"/>
</linearGradient>
<linearGradient id="paint1_linear" x1="46.6784" y1="104.96" x2="157.885" y2="104.96" gradientUnits="userSpaceOnUse">
<stop stop-color="#C4C4C4"/>
<stop offset="1" stop-color="#AAAAAA"/>
</linearGradient>
<linearGradient id="paint2_linear" x1="65.8266" y1="104.96" x2="138.737" y2="104.96" gradientUnits="userSpaceOnUse">
<stop stop-color="#9F9F9F"/>
<stop offset="1" stop-color="#AAAAAA"/>
</linearGradient>
<linearGradient id="paint3_linear" x1="18.9996" y1="105.673" x2="48.7766" y2="105.673" gradientUnits="userSpaceOnUse">
<stop offset="0.355" stop-color="#C4C4C4"/>
<stop offset="0.633" stop-color="#AAAAAA"/>
</linearGradient>
<linearGradient id="paint4_linear" x1="154" y1="105.51" x2="184.938" y2="105.51" gradientUnits="userSpaceOnUse">
<stop offset="0.355" stop-color="#C4C4C4"/>
<stop offset="0.633" stop-color="#AAAAAA"/>
</linearGradient>
<linearGradient id="paint5_linear" x1="156.949" y1="73.9901" x2="181.989" y2="73.9901" gradientUnits="userSpaceOnUse">
<stop stop-color="#C4C4C4"/>
<stop offset="0.791734" stop-color="#AAAAAA"/>
</linearGradient>
<linearGradient id="paint6_linear" x1="-0.000350952" y1="71.9998" x2="11.9996" y2="71.9998" gradientUnits="userSpaceOnUse">
<stop offset="0.355" stop-color="#FFC34E"/>
<stop offset="0.633" stop-color="#F89523"/>
</linearGradient>
<linearGradient id="paint7_linear" x1="45.1861" y1="27.7296" x2="52.5508" y2="27.7296" gradientUnits="userSpaceOnUse">
<stop stop-color="#FF8D79"/>
<stop offset="0.649" stop-color="#FF7079"/>
</linearGradient>
<linearGradient id="paint8_linear" x1="12" y1="117" x2="198" y2="117" gradientUnits="userSpaceOnUse">
<stop offset="0.355" stop-color="#FFC34E"/>
<stop offset="0.633" stop-color="#F89523"/>
</linearGradient>
<clipPath id="clip0">
<rect width="205" height="171" fill="white"/>
</clipPath>
</defs>
</svg>
