<svg width="20" height="20" viewBox="0 0 20 20" fill="none" xmlns="http://www.w3.org/2000/svg">
<g clip-path="url(#clip0_2186:27724)">
<path d="M16.5218 4.59622V9.56516C16.5218 10.1656 16.5204 10.6068 16.5178 10.8889C16.5152 11.171 16.5113 11.5424 16.5061 12.0031C16.5008 12.4637 16.4891 12.8053 16.4708 13.0279C16.4525 13.2505 16.4277 13.5313 16.3963 13.8703C16.365 14.2093 16.3245 14.4746 16.2748 14.6661C16.2252 14.8576 16.1664 15.075 16.0985 15.3183C16.0305 15.5615 15.9482 15.7763 15.8515 15.9627C15.7549 16.149 15.6438 16.3353 15.5184 16.5217H3.47827C3.89111 15.2691 4.16154 14.111 4.28957 13.0473C4.4176 11.9836 4.48162 10.4917 4.48162 8.57137V4.59622L6.48831 4.61175V9.06827C6.48831 9.5134 6.62679 9.87313 6.90375 10.1475C7.18072 10.4218 7.54391 10.559 7.99332 10.559C8.7197 10.559 9.19002 10.3183 9.40427 9.8369C9.46698 9.69197 9.49834 9.43576 9.49834 9.06827V5.59001H8.49499V9.06827C8.49499 9.27013 8.46364 9.40341 8.40093 9.46811C8.33822 9.53281 8.20235 9.56516 7.99332 9.56516C7.82087 9.54963 7.69284 9.50434 7.60923 9.42929C7.52562 9.35424 7.48642 9.2339 7.49165 9.06827V4.59622H16.5218ZM7.60923 3.84311C7.766 3.58432 7.98026 3.45492 8.252 3.45492C8.56554 3.45492 8.8007 3.51832 8.95747 3.64513C9.11425 3.77194 9.2057 3.98545 9.23183 4.28566H10.2352C10.2352 3.99581 10.2012 3.76547 10.1333 3.59467C10.0288 3.34104 9.81842 3.1133 9.50226 2.91144C9.1861 2.70957 8.79025 2.60864 8.31471 2.60864C7.79213 2.60864 7.36101 2.75098 7.02133 3.03566C6.66598 3.34104 6.48831 3.72148 6.48831 4.17697V4.59622H7.49165V4.40988L7.49949 4.20026L7.53476 4.03721L7.60923 3.84311Z" fill="#C4C4C4"/>
</g>
<defs>
<clipPath id="clip0_2186:27724">
<rect width="13.0435" height="13.913" fill="white" transform="translate(3.47827 2.60864)"/>
</clipPath>
</defs>
</svg>
