<svg width="16" height="15" viewBox="0 0 16 15" fill="none" xmlns="http://www.w3.org/2000/svg">
<path d="M8.39844 0.9375C4.77441 0.9375 1.83594 3.87598 1.83594 7.5C1.83594 11.124 4.77441 14.0625 8.39844 14.0625C12.0225 14.0625 14.9609 11.124 14.9609 7.5C14.9609 3.87598 12.0225 0.9375 8.39844 0.9375ZM8.39844 12.9492C5.38965 12.9492 2.94922 10.5088 2.94922 7.5C2.94922 4.49121 5.38965 2.05078 8.39844 2.05078C11.4072 2.05078 13.8477 4.49121 13.8477 7.5C13.8477 10.5088 11.4072 12.9492 8.39844 12.9492Z" fill="#808080" fill-opacity="0.8"/>
<path d="M8.39844 2.05078C5.38965 2.05078 2.94922 4.49121 2.94922 7.5C2.94922 10.5088 5.38965 12.9492 8.39844 12.9492C11.4072 12.9492 13.8477 10.5088 13.8477 7.5C13.8477 4.49121 11.4072 2.05078 8.39844 2.05078ZM8.86719 10.6641C8.86719 10.7285 8.81445 10.7812 8.75 10.7812H8.04688C7.98242 10.7812 7.92969 10.7285 7.92969 10.6641V6.67969C7.92969 6.61523 7.98242 6.5625 8.04688 6.5625H8.75C8.81445 6.5625 8.86719 6.61523 8.86719 6.67969V10.6641ZM8.39844 5.625C8.21444 5.62124 8.03925 5.54551 7.91045 5.41406C7.78166 5.28261 7.70952 5.10591 7.70952 4.92188C7.70952 4.73784 7.78166 4.56114 7.91045 4.42969C8.03925 4.29824 8.21444 4.22251 8.39844 4.21875C8.58243 4.22251 8.75763 4.29824 8.88642 4.42969C9.01522 4.56114 9.08736 4.73784 9.08736 4.92188C9.08736 5.10591 9.01522 5.28261 8.88642 5.41406C8.75763 5.54551 8.58243 5.62124 8.39844 5.625Z" fill="#AAAAAA" fill-opacity="0.1"/>
<path d="M7.69531 4.92188C7.69531 5.10836 7.76939 5.2872 7.90125 5.41906C8.03311 5.55092 8.21196 5.625 8.39844 5.625C8.58492 5.625 8.76376 5.55092 8.89562 5.41906C9.02748 5.2872 9.10156 5.10836 9.10156 4.92188C9.10156 4.73539 9.02748 4.55655 8.89562 4.42469C8.76376 4.29283 8.58492 4.21875 8.39844 4.21875C8.21196 4.21875 8.03311 4.29283 7.90125 4.42469C7.76939 4.55655 7.69531 4.73539 7.69531 4.92188V4.92188ZM8.75 6.5625H8.04688C7.98242 6.5625 7.92969 6.61523 7.92969 6.67969V10.6641C7.92969 10.7285 7.98242 10.7812 8.04688 10.7812H8.75C8.81445 10.7812 8.86719 10.7285 8.86719 10.6641V6.67969C8.86719 6.61523 8.81445 6.5625 8.75 6.5625Z" fill="#808080" fill-opacity="0.8"/>
</svg>
