<svg width="28" height="29" viewBox="0 0 28 29" fill="none" xmlns="http://www.w3.org/2000/svg">
<path d="M14 28.5C21.732 28.5 28 22.232 28 14.5C28 6.76801 21.732 0.5 14 0.5C6.26801 0.5 0 6.76801 0 14.5C0 22.232 6.26801 28.5 14 28.5Z" fill="#26AB33"/>
<path d="M12.625 19.8105C12.3303 19.8105 12.0438 19.6959 11.831 19.4832L7.10837 14.8601C6.6582 14.4183 6.65001 13.7064 7.092 13.2564C7.53398 12.8063 8.24607 12.7981 8.69623 13.24L12.5677 17.0285L19.2629 9.5579C19.6803 9.0915 20.4006 9.05059 20.8671 9.46789C21.3336 9.88519 21.3746 10.6052 20.9571 11.0716L13.4762 19.4341C13.2716 19.6632 12.9769 19.8023 12.6659 19.8105C12.6495 19.8105 12.6332 19.8105 12.625 19.8105Z" fill="white"/>
</svg>
