<svg width="24" height="24" viewBox="0 0 24 24" fill="none" xmlns="http://www.w3.org/2000/svg">
<path d="M7.08356 9.23438L8.02287 3H3.1375L1.09619 8.34375C1.03325 8.53375 1 8.73088 1 8.9375C1 10.2485 2.36563 11.3125 4.05306 11.3125C5.60869 11.3125 6.89475 10.4053 7.08356 9.23438ZM11.6875 11.3125C13.3737 11.3125 14.7406 10.2485 14.7406 8.9375C14.7406 8.88881 14.737 8.84013 14.7346 8.79381L14.1302 3H9.24481L8.63919 8.78906C8.63681 8.83775 8.63444 8.88644 8.63444 8.9375C8.63444 10.2485 10.0012 11.3125 11.6875 11.3125ZM17.625 12.5546V17.25H5.75V12.5618C5.22987 12.7494 4.6575 12.8562 4.05306 12.8562C3.8215 12.8562 3.59706 12.8289 3.375 12.7981V20.3375C3.375 21.2519 4.12194 22 5.03512 22H18.3375C19.2519 22 20 21.2507 20 20.3375V12.7992C19.7755 12.8337 19.549 12.8532 19.3219 12.8574C18.7429 12.8569 18.1685 12.7544 17.625 12.5546ZM22.28 8.34375L20.2363 3H15.3521L16.2902 9.22487C16.4731 10.4005 17.7592 11.3125 19.3219 11.3125C21.0082 11.3125 22.375 10.2485 22.375 8.9375C22.375 8.73088 22.3417 8.53375 22.28 8.34375Z" fill="#A7B5CA"/>
</svg>
