<svg width="28" height="28" viewBox="0 0 28 28" fill="none" xmlns="http://www.w3.org/2000/svg">
<path d="M12.1921 15.7299L13.2955 15.0923L11.8646 13.8887L12.1921 15.7299Z" fill="#00B14F"/>
<path d="M28 13.9854C28 13.6633 27.8437 13.3799 27.6055 13.2012C27.6033 13.1996 27.6027 13.1966 27.6041 13.1942V13.1942C27.6056 13.1916 27.6047 13.1884 27.6021 13.1869L25.407 11.9098C24.7509 11.5281 24.5259 10.6883 24.9033 10.0297L26.168 7.82218C26.1691 7.82023 26.1685 7.81774 26.1666 7.81656V7.81656C26.1648 7.81547 26.1641 7.81323 26.1649 7.81132C26.2255 7.67205 26.2529 7.52043 26.2449 7.36857C26.2369 7.21549 26.1932 7.06647 26.1174 6.93359C26.041 6.80084 25.9346 6.68811 25.8068 6.60458C25.6803 6.52186 25.5364 6.47007 25.3866 6.4533C25.384 6.45302 25.3821 6.45087 25.3821 6.44831V6.44831C25.3821 6.44554 25.3799 6.4433 25.3771 6.4433H22.8532C22.0906 6.4433 21.4723 5.82503 21.4723 5.06235V2.51896C21.4723 2.51664 21.4704 2.51475 21.4681 2.51475V2.51475C21.4659 2.51475 21.4641 2.51313 21.4639 2.51099C21.4472 2.35993 21.3957 2.21488 21.3135 2.0874C21.2306 1.95886 21.1188 1.85181 20.9872 1.77493C20.8551 1.69826 20.707 1.65416 20.5548 1.64621C20.4041 1.63834 20.2537 1.66613 20.1156 1.72733C20.1132 1.72838 20.1104 1.72746 20.1092 1.7252V1.7252C20.1078 1.72277 20.1047 1.72192 20.1023 1.72333L17.8658 3.02453C17.2035 3.40988 16.3541 3.18227 15.9731 2.51737L14.7601 0.399908C14.7589 0.397896 14.7563 0.397209 14.7543 0.398378V0.398378C14.7525 0.399459 14.7501 0.398958 14.7488 0.397226C14.6594 0.274854 14.5428 0.175206 14.4084 0.106238C14.2728 0.0366959 14.1229 0.000301247 13.9708 0C13.6511 0 13.3696 0.157475 13.1926 0.397528C13.191 0.39971 13.188 0.400333 13.1856 0.39896V0.39896C13.1831 0.397472 13.1799 0.398337 13.1784 0.400884L11.9343 2.57231C11.5534 3.23718 10.7039 3.46478 10.0416 3.07943L7.91002 1.83925C7.90801 1.83808 7.90543 1.83877 7.90427 1.84079V1.84079C7.9032 1.84266 7.90088 1.84341 7.89891 1.84254C7.76075 1.78159 7.61035 1.754 7.4597 1.76201C7.3078 1.77008 7.15991 1.81412 7.02805 1.89055C6.89622 1.96748 6.78427 2.07467 6.70131 2.20342C6.61918 2.33087 6.56774 2.47587 6.55108 2.62685C6.55079 2.62948 6.54858 2.63147 6.54594 2.63147V2.63147C6.54309 2.63147 6.54078 2.63378 6.54078 2.63663V5.15602C6.54078 5.91869 5.9225 6.53697 5.15982 6.53697H2.69167C2.68944 6.53697 2.68762 6.53878 2.68762 6.54102V6.54102C2.68762 6.54309 2.68606 6.54482 2.68401 6.54505C2.53406 6.56188 2.39007 6.61379 2.26353 6.69665C2.13598 6.78018 2.02975 6.89281 1.95345 7.02543C1.87757 7.15844 1.83388 7.3076 1.82593 7.46081C1.81807 7.61248 1.84544 7.76388 1.90584 7.90297C1.9069 7.90541 1.90601 7.90826 1.90374 7.90965V7.90965C1.90129 7.91115 1.90048 7.91433 1.90191 7.91682L3.12225 10.0469C3.49958 10.7056 3.27459 11.5453 2.61849 11.927L0.396882 13.2196C0.394862 13.2208 0.394171 13.2234 0.395336 13.2254V13.2254C0.396412 13.2273 0.395909 13.2297 0.394175 13.231C0.272746 13.3211 0.173865 13.4386 0.105426 13.5741C0.036416 13.7107 0.000298946 13.8617 0 14.015C0 14.3371 0.156264 14.6208 0.394472 14.7992C0.396656 14.8008 0.397281 14.8038 0.395914 14.8062V14.8062C0.394431 14.8087 0.395301 14.812 0.397859 14.8135L2.59296 16.0905C3.2491 16.4723 3.47412 17.312 3.09675 17.9707L1.83196 20.1783C1.83088 20.1802 1.83154 20.1826 1.83344 20.1836V20.1836C1.83519 20.1846 1.83591 20.1868 1.83511 20.1886C1.77455 20.3279 1.74714 20.4795 1.75509 20.6314C1.7631 20.7845 1.8068 20.9335 1.88264 21.0664C1.95905 21.1992 2.06545 21.3119 2.19321 21.3954C2.31965 21.4781 2.46349 21.5299 2.61326 21.5467C2.6159 21.547 2.61791 21.5492 2.61791 21.5519V21.5519C2.61791 21.5547 2.62024 21.5571 2.62311 21.5571H5.14639C5.90907 21.5571 6.52734 22.1753 6.52734 22.938V25.481C6.52734 25.4834 6.52923 25.4852 6.53156 25.4852V25.4852C6.53371 25.4852 6.53551 25.4869 6.53576 25.489C6.57013 25.7862 6.73583 26.064 7.01244 26.2251C7.14453 26.3017 7.2927 26.3457 7.44489 26.3537C7.59556 26.3615 7.74594 26.3338 7.88404 26.2727C7.88641 26.2716 7.88919 26.2725 7.89045 26.2748V26.2748C7.89182 26.2772 7.89492 26.2781 7.89733 26.2767L10.1338 24.9755C10.7961 24.5901 11.6456 24.8177 12.0265 25.4826L13.2396 27.6001C13.2407 27.6021 13.2433 27.6028 13.2453 27.6016V27.6016C13.2472 27.6005 13.2495 27.601 13.2508 27.6028C13.3403 27.7251 13.4568 27.8248 13.5913 27.8938C13.7268 27.9633 13.8768 27.9997 14.0289 28C14.3486 28 14.6302 27.8424 14.8072 27.6026C14.8087 27.6006 14.8116 27.6 14.8138 27.6012V27.6012C14.8163 27.6026 14.8194 27.6018 14.8208 27.5993L16.065 25.4276C16.4459 24.7628 17.2953 24.5352 17.9576 24.9205L20.0896 26.1607C20.0916 26.1619 20.0942 26.1612 20.0954 26.1592V26.1592C20.0964 26.1573 20.0988 26.1566 20.1007 26.1575C20.2389 26.2184 20.3893 26.246 20.5399 26.238C20.6918 26.2299 20.8397 26.1859 20.9716 26.1095C21.1035 26.0326 21.2154 25.9254 21.2984 25.7966C21.3805 25.6692 21.432 25.5242 21.4486 25.3732C21.4488 25.3705 21.4511 25.3685 21.4537 25.3685V25.3685C21.4566 25.3685 21.4589 25.3662 21.4589 25.3634V22.8444C21.4589 22.0817 22.0771 21.4634 22.8398 21.4634H25.3083C25.3106 21.4634 25.3124 21.4616 25.3124 21.4593V21.4593C25.3124 21.4573 25.3139 21.4555 25.316 21.4553C25.4659 21.4385 25.6099 21.3866 25.7365 21.3037C25.864 21.2202 25.9703 21.1076 26.0466 20.9749C26.1224 20.8419 26.1661 20.6928 26.1741 20.5396C26.1819 20.3879 26.1546 20.2364 26.0941 20.0973C26.0931 20.0949 26.094 20.0922 26.0963 20.0909V20.0909C26.0987 20.0895 26.0995 20.0864 26.0981 20.084L24.8778 17.9538C24.5004 17.2952 24.7254 16.4554 25.3815 16.0737L27.6031 14.7811C27.6051 14.7799 27.6058 14.7773 27.6047 14.7753V14.7753C27.6036 14.7734 27.6041 14.7711 27.6058 14.7698C27.7273 14.6796 27.8261 14.562 27.8946 14.4265C27.9636 14.2898 27.9997 14.1387 28 13.9854Z" fill="#00B14F"/>
<path d="M10.1527 11.5399C10.1527 10.6387 10.4999 10.0279 11.1354 10.0279C11.7486 10.0279 12.1107 10.6089 12.1107 11.5548V11.6219C12.1107 12.5753 11.7339 13.1562 11.128 13.1562C10.5221 13.1562 10.1527 12.5604 10.1527 11.607V11.5399ZM9 11.6814C9 13.0892 9.77582 14.1916 11.1132 14.1916C12.4949 14.1916 13.2633 13.0445 13.2633 11.6963V11.4803C13.2633 10.08 12.4727 9 11.1354 9C9.79799 9 9 10.0949 9 11.4654V11.6814ZM16.8893 17.3483C16.8893 16.4545 17.2292 15.8438 17.872 15.8438C18.4853 15.8438 18.84 16.4247 18.84 17.3632V17.4377C18.84 18.3837 18.4631 18.9647 17.8646 18.9647C17.2514 18.9647 16.8893 18.3688 16.8893 17.4228V17.3483ZM15.7293 17.4973C15.7293 18.9051 16.5051 20 17.8499 20C19.2316 20 20 18.8529 20 17.5122V17.2962C20 15.8959 19.202 14.8084 17.872 14.8084C16.5347 14.8084 15.7293 15.9033 15.7293 17.2813V17.4973ZM11.0097 19.4024C11.1784 19.4024 11.3375 19.3233 11.4393 19.1887L15.0459 14.4194L18.3534 10.106C18.6265 9.74991 18.3726 9.23526 17.9238 9.23526V9.23526C17.754 9.23526 17.594 9.31493 17.4917 9.45045L13.9376 14.1587L10.5822 18.5361C10.3106 18.8904 10.5632 19.4024 11.0097 19.4024V19.4024Z" fill="#E0F5E9" stroke="#E0F5E9" stroke-width="0.2"/>
</svg>
