<svg width="17" height="22" viewBox="0 0 17 22" fill="none" xmlns="http://www.w3.org/2000/svg">
<path d="M8.50003 6.49338e-10C6.45688 0.0017065 4.49742 0.81186 3.04962 2.25351C1.60183 3.69516 0.783346 5.65116 0.772949 7.69429C0.772949 10.7576 2.49154 13.3223 3.75096 15.1918L3.98054 15.5329C5.23359 17.349 6.57782 19.1004 8.00807 20.7805L8.50659 21.3643L9.00512 20.7805C10.4352 19.1003 11.7794 17.3488 13.0326 15.5329L13.2622 15.1852C14.5151 13.3158 16.2337 10.7576 16.2337 7.69429C16.2233 5.65002 15.4039 3.69304 13.9547 2.2512C12.5055 0.809361 10.5443 -2.64715e-05 8.50003 6.49338e-10ZM8.50003 11.1511C7.64898 11.1511 6.81703 10.8988 6.1094 10.426C5.40177 9.95313 4.85024 9.28109 4.52455 8.49481C4.19887 7.70853 4.11365 6.84334 4.27969 6.00863C4.44572 5.17393 4.85554 4.4072 5.45733 3.80541C6.05912 3.20362 6.82585 2.7938 7.66055 2.62777C8.49526 2.46173 9.36046 2.54695 10.1467 2.87263C10.933 3.19832 11.605 3.74985 12.0779 4.45748C12.5507 5.16511 12.8031 5.99705 12.8031 6.84811C12.8031 7.98935 12.3497 9.08384 11.5427 9.89081C10.7358 10.6978 9.64127 11.1511 8.50003 11.1511Z" fill="#F89523"/>
</svg>
