<svg width="18" height="18" viewBox="0 0 18 18" fill="none" xmlns="http://www.w3.org/2000/svg">
<path d="M6.75 7.3125C6.75 7.00184 7.00184 6.75 7.3125 6.75C7.62316 6.75 7.875 7.00184 7.875 7.3125V12.9375C7.875 13.2482 7.62316 13.5 7.3125 13.5C7.00184 13.5 6.75 13.2482 6.75 12.9375V7.3125Z" fill="#E22727"/>
<path d="M10.125 7.3125C10.125 7.00184 10.3768 6.75 10.6875 6.75C10.9982 6.75 11.25 7.00184 11.25 7.3125V12.9375C11.25 13.2482 10.9982 13.5 10.6875 13.5C10.3768 13.5 10.125 13.2482 10.125 12.9375V7.3125Z" fill="#E22727"/>
<path d="M2.8125 3.375C2.50184 3.375 2.25 3.62684 2.25 3.9375C2.25 4.24816 2.50184 4.5 2.8125 4.5H3.375V15.75C3.375 16.0484 3.49353 16.3345 3.7045 16.5455C3.91548 16.7565 4.20163 16.875 4.5 16.875H13.5C13.7984 16.875 14.0845 16.7565 14.2955 16.5455C14.5065 16.3345 14.625 16.0484 14.625 15.75V4.5H15.1875C15.4982 4.5 15.75 4.24816 15.75 3.9375C15.75 3.62684 15.4982 3.375 15.1875 3.375H2.8125ZM4.5 15.75V4.5H13.5V15.75H4.5Z" fill="#E22727"/>
<path d="M6.75 1.6875C6.75 1.37684 7.00184 1.125 7.3125 1.125H10.6875C10.9982 1.125 11.25 1.37684 11.25 1.6875C11.25 1.99816 10.9982 2.25 10.6875 2.25H7.3125C7.00184 2.25 6.75 1.99816 6.75 1.6875Z" fill="#E22727"/>
</svg>
