<svg width="158" height="71" viewBox="0 0 158 71" fill="none" xmlns="http://www.w3.org/2000/svg">
<path d="M104.345 44.5107C104.345 58.2259 93.2264 69.3443 79.5112 69.3443C65.7959 69.3443 54.6775 58.2259 54.6775 44.5107C54.6775 30.7954 65.7959 19.6771 79.5112 19.6771C93.2264 19.6771 104.345 30.7954 104.345 44.5107Z" stroke="#26AB33" stroke-width="3.31115"/>
<path d="M76.881 53.5615C76.3818 53.5615 75.8966 53.3674 75.5361 53.0071L67.5363 45.1759C66.7737 44.4275 66.7598 43.2216 67.5085 42.4593C68.2572 41.697 69.4634 41.6831 70.226 42.4316L76.7839 48.8489L88.1251 36.1944C88.8322 35.4043 90.0523 35.335 90.8425 36.0419C91.6328 36.7488 91.7021 37.9685 90.995 38.7585L78.3229 52.9239C77.9762 53.312 77.4771 53.5476 76.9503 53.5615C76.9225 53.5615 76.8948 53.5615 76.881 53.5615Z" fill="#26AB33"/>
<path opacity="0.3" d="M6.78596 59.6698L5.16346 58.8742C5.04419 58.8157 4.91293 58.788 4.78097 58.7934C4.64902 58.7989 4.52034 58.8373 4.40599 58.9055L2.85052 59.8324C2.71891 59.9108 2.56865 59.9497 2.41672 59.9447C2.26478 59.9397 2.11724 59.8909 1.9908 59.8038C1.86437 59.7168 1.76408 59.595 1.70128 59.4522C1.63848 59.3095 1.61568 59.1514 1.63546 58.996L1.86786 57.1591C1.88494 57.024 1.86995 56.8867 1.82418 56.759C1.7784 56.6312 1.70322 56.5168 1.60509 56.4256L0.269485 55.1865C0.156555 55.0816 0.0743322 54.9462 0.0320952 54.7956C-0.0101417 54.645 -0.0107013 54.4853 0.0304767 54.3344C0.0716547 54.1835 0.152925 54.0475 0.265115 53.9418C0.377304 53.836 0.515941 53.7647 0.66535 53.736L2.43103 53.3964C2.56085 53.3714 2.68285 53.3143 2.78651 53.2299C2.89016 53.1456 2.97236 53.0365 3.02603 52.912L3.7565 51.2213C3.81825 51.0781 3.91762 50.9556 4.04338 50.8676C4.16914 50.7795 4.31627 50.7296 4.46813 50.7233C4.61999 50.7171 4.77052 50.7548 4.90269 50.8321C5.03486 50.9095 5.14339 51.0235 5.21602 51.1612L6.07525 52.7882C6.13838 52.9079 6.22877 53.0099 6.33864 53.0855C6.4485 53.1611 6.57455 53.2081 6.70591 53.2223L8.49234 53.4152C8.64357 53.4315 8.78738 53.491 8.90749 53.5872C9.02759 53.6833 9.11918 53.8122 9.17192 53.9593C9.22466 54.1064 9.23643 54.2657 9.20588 54.4193C9.17534 54.5729 9.10371 54.7147 8.9991 54.8284L7.76378 56.1711C7.67297 56.27 7.60683 56.3902 7.57105 56.5214C7.53527 56.6525 7.53092 56.7906 7.55838 56.9239L7.93255 58.7359C7.96434 58.8893 7.95387 59.0487 7.90232 59.1962C7.85078 59.3438 7.76023 59.4735 7.6409 59.5706C7.52158 59.6678 7.37826 59.7286 7.22716 59.7461C7.07607 59.7637 6.92323 59.7372 6.78596 59.6698Z" fill="url(#paint0_linear_2884_41436)"/>
<path opacity="0.3" d="M80.5394 8.36139L78.9704 7.61755C78.8546 7.56274 78.7271 7.53677 78.5989 7.54188C78.4707 7.54699 78.3457 7.58302 78.2346 7.64688L76.7307 8.51308C76.6034 8.58643 76.4581 8.62282 76.3111 8.61812C76.1641 8.61342 76.0213 8.56782 75.899 8.48649C75.7767 8.40515 75.6796 8.29133 75.6189 8.15789C75.5581 8.02446 75.536 7.87675 75.5551 7.73146L75.7816 6.0154C75.7983 5.88912 75.7839 5.76068 75.7396 5.6412C75.6953 5.52171 75.6225 5.41478 75.5274 5.32965L74.2358 4.17188C74.127 4.07382 74.0479 3.94746 74.0073 3.80703C73.9667 3.66659 73.9663 3.51767 74.0061 3.377C74.0458 3.23633 74.1242 3.10952 74.2324 3.01084C74.3406 2.91216 74.4743 2.84552 74.6184 2.81843L76.3266 2.50149C76.452 2.47825 76.5699 2.42507 76.6702 2.3465C76.7704 2.26792 76.85 2.1663 76.9022 2.05035L77.608 0.468492C77.6676 0.334014 77.7638 0.218873 77.8858 0.136166C78.0077 0.0534581 78.1505 0.00650242 78.2979 0.000627799C78.4453 -0.00524682 78.5914 0.0302032 78.7196 0.102942C78.8478 0.17568 78.9529 0.282784 79.0231 0.412095L79.8534 1.93474C79.9148 2.04631 80.0023 2.14144 80.1086 2.21203C80.2148 2.28263 80.3366 2.32661 80.4635 2.34021L82.1916 2.52067C82.3378 2.53574 82.477 2.59133 82.5931 2.68114C82.7093 2.77094 82.798 2.89137 82.849 3.02878C82.9 3.16619 82.9114 3.3151 82.8818 3.45863C82.8523 3.60215 82.7829 3.73456 82.6817 3.84085L81.4869 5.09787C81.399 5.19035 81.3351 5.30275 81.3005 5.42538C81.266 5.548 81.262 5.67714 81.2888 5.80167L81.6505 7.49348C81.6803 7.63667 81.6694 7.78533 81.619 7.92268C81.5686 8.06003 81.4807 8.18061 81.3652 8.27084C81.2496 8.36108 81.1111 8.41736 80.9652 8.43336C80.8193 8.44936 80.6718 8.42443 80.5394 8.36139Z" fill="#22B573"/>
<path opacity="0.5" d="M135.597 22.3626L134.68 21.9277C134.523 21.8535 134.35 21.8183 134.177 21.8253C134.003 21.8323 133.834 21.8812 133.684 21.9678L132.805 22.4753C132.632 22.575 132.434 22.6244 132.235 22.618C132.035 22.6117 131.841 22.5497 131.675 22.4392C131.509 22.3288 131.377 22.1741 131.294 21.9929C131.211 21.8116 131.181 21.6109 131.207 21.4134L131.338 20.4102C131.361 20.2386 131.341 20.0641 131.281 19.9019C131.221 19.7396 131.122 19.5943 130.993 19.4786L130.238 18.8018C130.09 18.6687 129.981 18.4967 129.926 18.3055C129.87 18.1142 129.869 17.9112 129.923 17.7195C129.977 17.5278 130.084 17.355 130.232 17.2207C130.379 17.0864 130.562 16.9959 130.758 16.9594L131.756 16.7739C131.927 16.7422 132.087 16.6697 132.224 16.5625C132.36 16.4553 132.468 16.3167 132.538 16.1587L132.951 15.2344C133.032 15.0524 133.163 14.8966 133.328 14.7848C133.494 14.6729 133.687 14.6094 133.887 14.6014C134.086 14.5935 134.284 14.6413 134.458 14.7396C134.632 14.8379 134.775 14.9827 134.87 15.1577L135.356 16.0464C135.439 16.1984 135.558 16.328 135.702 16.424C135.847 16.52 136.012 16.5795 136.185 16.5974L137.195 16.7029C137.394 16.7235 137.583 16.7992 137.741 16.9214C137.898 17.0435 138.019 17.2072 138.088 17.394C138.157 17.5808 138.173 17.7831 138.133 17.9782C138.093 18.1733 137.999 18.3533 137.861 18.4979L137.163 19.231C137.043 19.3566 136.956 19.5093 136.909 19.6758C136.862 19.8423 136.857 20.0177 136.893 20.1869L137.104 21.176C137.146 21.3708 137.132 21.5733 137.065 21.7607C136.997 21.948 136.878 22.1128 136.721 22.2362C136.564 22.3597 136.376 22.437 136.177 22.4593C135.979 22.4816 135.778 22.4481 135.597 22.3626Z" fill="#D9E2F9"/>
<path opacity="0.5" d="M110.235 26.2053L109.317 25.7705C109.161 25.6963 108.988 25.6611 108.815 25.6681C108.641 25.675 108.472 25.7239 108.322 25.8106L107.443 26.3181C107.27 26.4178 107.072 26.4672 106.872 26.4608C106.673 26.4544 106.479 26.3925 106.313 26.282C106.146 26.1715 106.014 26.0169 105.932 25.8356C105.849 25.6543 105.819 25.4536 105.845 25.2562L105.976 24.253C105.999 24.0814 105.979 23.9069 105.919 23.7446C105.858 23.5823 105.759 23.4371 105.63 23.3213L104.876 22.6446C104.727 22.5115 104.619 22.3395 104.563 22.1482C104.508 21.957 104.507 21.754 104.561 21.5623C104.615 21.3706 104.722 21.1978 104.87 21.0634C105.017 20.9291 105.2 20.8386 105.396 20.8022L106.394 20.6167C106.565 20.585 106.725 20.5124 106.861 20.4052C106.997 20.2981 107.106 20.1595 107.176 20.0014L107.589 19.0771C107.67 18.8951 107.801 18.7394 107.966 18.6276C108.131 18.5157 108.325 18.4522 108.524 18.4442C108.724 18.4362 108.922 18.4841 109.096 18.5824C109.27 18.6807 109.413 18.8255 109.508 19.0004L109.994 19.8892C110.077 20.0412 110.195 20.1708 110.34 20.2668C110.484 20.3628 110.65 20.4223 110.823 20.4402L111.833 20.5456C112.031 20.5663 112.22 20.642 112.378 20.7641C112.536 20.8863 112.657 21.05 112.726 21.2368C112.795 21.4236 112.811 21.6259 112.771 21.821C112.73 22.0161 112.636 22.1961 112.499 22.3406L111.8 23.0738C111.681 23.1994 111.594 23.352 111.547 23.5185C111.5 23.685 111.494 23.8604 111.53 24.0296L111.742 25.0188C111.784 25.2136 111.77 25.4161 111.702 25.6034C111.635 25.7908 111.516 25.9556 111.359 26.079C111.202 26.2025 111.014 26.2797 110.815 26.3021C110.616 26.3244 110.415 26.2909 110.235 26.2053Z" fill="#FFE3E4"/>
<path opacity="0.2" d="M37.5571 24.1287C39.1201 24.1287 40.3871 22.8662 40.3871 21.309C40.3871 19.7517 39.1201 18.4893 37.5571 18.4893C35.9941 18.4893 34.7271 19.7517 34.7271 21.309C34.7271 22.8662 35.9941 24.1287 37.5571 24.1287Z" fill="url(#paint1_linear_2884_41436)"/>
<path opacity="0.3" d="M23.9739 6.08481C24.9117 6.08481 25.6719 5.32735 25.6719 4.39299C25.6719 3.45862 24.9117 2.70117 23.9739 2.70117C23.0361 2.70117 22.2759 3.45862 22.2759 4.39299C22.2759 5.32735 23.0361 6.08481 23.9739 6.08481Z" fill="#AAAAAA"/>
<path opacity="0.2" d="M154.721 62.4783C156.284 62.4783 157.551 61.2158 157.551 59.6586C157.551 58.1013 156.284 56.8389 154.721 56.8389C153.158 56.8389 151.891 58.1013 151.891 59.6586C151.891 61.2158 153.158 62.4783 154.721 62.4783Z" fill="#E296DB"/>
<defs>
<linearGradient id="paint0_linear_2884_41436" x1="0" y1="55.3339" x2="9.22248" y2="55.3339" gradientUnits="userSpaceOnUse">
<stop offset="0.355" stop-color="#FFC34E"/>
<stop offset="0.633" stop-color="#F89523"/>
</linearGradient>
<linearGradient id="paint1_linear_2884_41436" x1="34.7271" y1="21.309" x2="40.3871" y2="21.309" gradientUnits="userSpaceOnUse">
<stop stop-color="#FF8D79"/>
<stop offset="0.649" stop-color="#FF7079"/>
</linearGradient>
</defs>
</svg>
