<svg width="18" height="19" viewBox="0 0 18 19" fill="none" xmlns="http://www.w3.org/2000/svg">
<path d="M9 2C4.93425 2 1.5 5.43425 1.5 9.5C1.5 13.5658 4.93425 17 9 17C13.0658 17 16.5 13.5658 16.5 9.5C16.5 5.43425 13.0658 2 9 2ZM9 5.75C10.2952 5.75 11.25 6.704 11.25 8C11.25 9.296 10.2952 10.25 9 10.25C7.7055 10.25 6.75 9.296 6.75 8C6.75 6.704 7.7055 5.75 9 5.75ZM5.1705 13.079C5.84325 12.089 6.96525 11.429 8.25 11.429H9.75C11.0355 11.429 12.1568 12.089 12.8295 13.079C11.871 14.105 10.5113 14.75 9 14.75C7.48875 14.75 6.129 14.105 5.1705 13.079Z" fill="#A7B5CA"/>
</svg>
