<svg width="16" height="16" viewBox="0 0 16 16" fill="none" xmlns="http://www.w3.org/2000/svg">
<path fill-rule="evenodd" clip-rule="evenodd" d="M15.7188 13.7717L11.5207 9.572C12.2732 8.54564 12.6763 7.30481 12.6707 6.03215C12.6563 2.7101 9.96937 0.0192484 6.64734 6.1025e-05C5.05757 -0.0071318 3.53094 0.621787 2.40756 1.74671C1.28418 2.87164 0.657355 4.39912 0.66673 5.98889C0.681088 9.31124 3.36828 12.0023 6.69061 12.0215C7.96844 12.0271 9.21382 11.6192 10.2409 10.8589L10.2452 10.8556L14.4395 15.0521C14.6663 15.29 15.0042 15.3863 15.3223 15.3037C15.6404 15.221 15.8887 14.9725 15.9711 14.6543C16.0534 14.3361 15.9568 13.9983 15.7188 13.7717ZM6.68672 10.8182C4.029 10.8029 1.87928 8.65028 1.86762 5.99254C1.86044 4.72089 2.36194 3.49915 3.26048 2.59927C4.15901 1.6994 5.38001 1.19609 6.65167 1.20137C9.30939 1.21666 11.4591 3.3693 11.4708 6.02704C11.4779 7.29869 10.9764 8.52043 10.0779 9.4203C9.17937 10.3202 7.95837 10.8235 6.68672 10.8182Z" fill="#AAAAAA"/>
</svg>
