<svg width="28" height="28" viewBox="0 0 28 28" fill="none" xmlns="http://www.w3.org/2000/svg">
<path d="M13.9884 2.33398C7.54837 2.33398 2.33337 7.56065 2.33337 14.0007C2.33337 20.4407 7.54837 25.6673 13.9884 25.6673C20.44 25.6673 25.6667 20.4407 25.6667 14.0007C25.6667 7.56065 20.44 2.33398 13.9884 2.33398ZM18.7028 18.4148C18.5949 18.523 18.4667 18.6088 18.3255 18.6673C18.1844 18.7259 18.0331 18.756 17.8803 18.756C17.7275 18.756 17.5762 18.7259 17.4351 18.6673C17.2939 18.6088 17.1657 18.523 17.0578 18.4148L12.25 15.1673C12.1398 15.0593 12.0521 14.9304 11.992 14.7882C11.9319 14.646 11.9007 14.4933 11.9 14.339V9.67232C11.9 9.03065 12.425 8.50565 13.0667 8.50565C13.7084 8.50565 14.2334 9.03065 14.2334 9.67232V13.8607L18.7028 16.7698C19.1578 17.2248 19.1578 17.9598 18.7028 18.4148Z" fill="#FB6161"/>
</svg>
