<svg xmlns="http://www.w3.org/2000/svg" width="60" height="60" viewBox="0 0 60 60">
  <g id="Group_501" data-name="Group 501" transform="translate(-989 -2517)">
    <g id="like" transform="translate(989 2517)">
      <path id="Path_1435" data-name="Path 1435" d="M60,30A30,30,0,1,0,30,60,30,30,0,0,0,60,30Zm0,0" fill="#1e83d1"/>
      <path id="Path_1436" data-name="Path 1436" d="M112.281,39.8A29.984,29.984,0,0,1,75.035,86.339,29.983,29.983,0,1,0,112.282,39.8Zm0,0" transform="translate(-66.2 -35.114)" fill="rgba(5,96,166,0.8)"/>
    </g>
    <g id="notification" transform="translate(1005.108 2529.932)">
      <path id="Path_1437" data-name="Path 1437" d="M145.648,396.479a4.228,4.228,0,1,0-4.229,4.222A4.225,4.225,0,0,0,145.648,396.479Zm0,0" transform="translate(-127.553 -366.881)" fill="#f7c92b"/>
      <path id="Path_1438" data-name="Path 1438" d="M180.959,392.258a4.231,4.231,0,0,0-1.229.182,4.22,4.22,0,0,1,0,8.08,4.223,4.223,0,1,0,1.229-8.261Zm0,0" transform="translate(-167.092 -366.882)" fill="#f2a41d"/>
      <path id="Path_1439" data-name="Path 1439" d="M164.587,37.327a2.5,2.5,0,1,1,1.965-2.948A2.508,2.508,0,0,1,164.587,37.327Zm0,0" transform="translate(-150.226 -32.367)" fill="#f7c92b"/>
      <path id="Path_1440" data-name="Path 1440" d="M188.28,34.379a2.508,2.508,0,0,0-2.953-1.962,2.563,2.563,0,0,0-.366.1,2.5,2.5,0,0,1,0,4.7,2.508,2.508,0,0,0,3.319-2.846Zm0,0" transform="translate(-171.954 -32.368)" fill="#f2b51d"/>
      <path id="Path_1441" data-name="Path 1441" d="M24.839,115.093H3.893a3.4,3.4,0,0,1-2.116-6.054l.673-.542a6.6,6.6,0,0,0,2.462-5.139V99.8a9.527,9.527,0,0,1,19.055,0v3.626a6.6,6.6,0,0,0,2.378,5.071l.655.545a3.424,3.424,0,0,1,1.234,2.631v.034a3.391,3.391,0,0,1-3.394,3.388Zm0,0" transform="translate(-0.499 -86.201)" fill="#f7e249"/>
      <path id="Path_1442" data-name="Path 1442" d="M175.358,109.037l-.655-.545a6.6,6.6,0,0,1-2.378-5.071V99.794a9.534,9.534,0,0,0-12.212-9.128,9.517,9.517,0,0,1,6.843,9.128v3.626a6.6,6.6,0,0,0,2.378,5.071l.656.545a3.424,3.424,0,0,1,1.234,2.631v.034a3.391,3.391,0,0,1-3.394,3.388H173.2a3.391,3.391,0,0,0,3.393-3.388v-.034a3.423,3.423,0,0,0-1.234-2.631Zm0,0" transform="translate(-148.858 -86.198)" fill="#f7c12b"/>
    </g>
  </g>
</svg>
