<svg width="18" height="18" viewBox="0 0 18 18" fill="none" xmlns="http://www.w3.org/2000/svg">
<path d="M9.91693 4.66681C11.8447 4.66681 12.6669 5.52644 12.6669 7.54181H14.5003C14.5003 4.45119 12.8732 2.75015 9.91693 2.75015V4.66681ZM13.0538 9.88302C12.8776 9.71565 12.6462 9.62639 12.4082 9.63408C12.1703 9.64177 11.9446 9.74581 11.7787 9.92423L9.58509 12.2827C9.05709 12.1773 7.99559 11.8313 6.90293 10.6919C5.81026 9.54856 5.47934 8.43594 5.38126 7.88777L7.63534 5.59352C7.80622 5.42019 7.90588 5.18414 7.91324 4.93535C7.9206 4.68655 7.83507 4.44452 7.67476 4.26048L4.28768 0.366773C4.1273 0.182156 3.9044 0.0701725 3.66632 0.0546048C3.42823 0.0390371 3.19372 0.121112 3.01259 0.283398L1.02343 2.06686C0.864944 2.23314 0.770351 2.45445 0.757592 2.68881C0.743842 2.9284 0.481675 8.60365 4.69101 13.0062C8.36317 16.8444 12.963 17.1251 14.2298 17.1251C14.415 17.1251 14.5287 17.1194 14.5589 17.1175C14.7831 17.1044 14.9946 17.005 15.1529 16.8386L16.8579 14.7581C17.0133 14.5688 17.0919 14.3237 17.0772 14.0748C17.0625 13.8259 16.9555 13.5928 16.7791 13.425L13.0538 9.88302Z" fill="white"/>
</svg>
