<svg width="28" height="28" viewBox="0 0 28 28" fill="none" xmlns="http://www.w3.org/2000/svg">
<path d="M14 1.75C17.2489 1.75 20.3647 3.04062 22.6621 5.33794C24.9594 7.63526 26.25 10.7511 26.25 14C26.25 17.2489 24.9594 20.3647 22.6621 22.6621C20.3647 24.9594 17.2489 26.25 14 26.25C10.7511 26.25 7.63526 24.9594 5.33794 22.6621C3.04062 20.3647 1.75 17.2489 1.75 14C1.75 10.7511 3.04062 7.63526 5.33794 5.33794C7.63526 3.04062 10.7511 1.75 14 1.75ZM14 12.5142L11.1545 9.66875C10.9575 9.47173 10.6903 9.36104 10.4116 9.36104C10.133 9.36104 9.86577 9.47173 9.66875 9.66875C9.47173 9.86577 9.36104 10.133 9.36104 10.4116C9.36104 10.6903 9.47173 10.9575 9.66875 11.1545L12.5142 14L9.66875 16.8455C9.57119 16.9431 9.49381 17.0589 9.44101 17.1863C9.38822 17.3138 9.36104 17.4504 9.36104 17.5884C9.36104 17.7263 9.38822 17.863 9.44101 17.9904C9.49381 18.1179 9.57119 18.2337 9.66875 18.3313C9.76631 18.4288 9.88212 18.5062 10.0096 18.559C10.137 18.6118 10.2737 18.639 10.4116 18.639C10.5496 18.639 10.6862 18.6118 10.8137 18.559C10.9411 18.5062 11.0569 18.4288 11.1545 18.3313L14 15.4858L16.8455 18.3313C16.9431 18.4288 17.0589 18.5062 17.1863 18.559C17.3138 18.6118 17.4504 18.639 17.5884 18.639C17.7263 18.639 17.863 18.6118 17.9904 18.559C18.1179 18.5062 18.2337 18.4288 18.3313 18.3313C18.4288 18.2337 18.5062 18.1179 18.559 17.9904C18.6118 17.863 18.639 17.7263 18.639 17.5884C18.639 17.4504 18.6118 17.3138 18.559 17.1863C18.5062 17.0589 18.4288 16.9431 18.3313 16.8455L15.4858 14L18.3313 11.1545C18.4288 11.0569 18.5062 10.9411 18.559 10.8137C18.6118 10.6862 18.639 10.5496 18.639 10.4116C18.639 10.2737 18.6118 10.137 18.559 10.0096C18.5062 9.88212 18.4288 9.76631 18.3313 9.66875C18.2337 9.57119 18.1179 9.49381 17.9904 9.44101C17.863 9.38822 17.7263 9.36104 17.5884 9.36104C17.4504 9.36104 17.3138 9.38822 17.1863 9.44101C17.0589 9.49381 16.9431 9.57119 16.8455 9.66875L14 12.5142Z" fill="#FB6161"/>
</svg>
