<svg width="9" height="16" viewBox="0 0 9 16" fill="none" xmlns="http://www.w3.org/2000/svg">
<path d="M8.46488 1.24222C8.3778 1.15492 8.27434 1.08565 8.16044 1.03839C8.04655 0.991125 7.92444 0.966797 7.80113 0.966797C7.67782 0.966797 7.55572 0.991125 7.44182 1.03839C7.32792 1.08565 7.22447 1.15492 7.13738 1.24222L0.90488 7.47472C0.835352 7.54411 0.780192 7.62652 0.742556 7.71725C0.70492 7.80798 0.685547 7.90525 0.685547 8.00347C0.685547 8.1017 0.70492 8.19896 0.742556 8.28969C0.780192 8.38042 0.835352 8.46284 0.90488 8.53222L7.13738 14.7647C7.50488 15.1322 8.09738 15.1322 8.46488 14.7647C8.83238 14.3972 8.83238 13.8047 8.46488 13.4372L3.03488 7.99972L8.47238 2.56222C8.83238 2.20222 8.83238 1.60222 8.46488 1.24222Z" fill="#363636"/>
</svg>
