<svg width="28" height="28" viewBox="0 0 28 28" fill="none" xmlns="http://www.w3.org/2000/svg">
<path d="M14 2.33398C7.67551 2.33398 2.33334 7.67615 2.33334 14.0007C2.33334 20.3252 7.67551 25.6673 14 25.6673C20.3245 25.6673 25.6667 20.3252 25.6667 14.0007C25.6667 7.67615 20.3245 2.33398 14 2.33398ZM14 8.16732C16.0148 8.16732 17.5 9.65132 17.5 11.6673C17.5 13.6833 16.0148 15.1673 14 15.1673C11.9863 15.1673 10.5 13.6833 10.5 11.6673C10.5 9.65132 11.9863 8.16732 14 8.16732ZM8.04301 19.568C9.08951 18.028 10.8348 17.0013 12.8333 17.0013H15.1667C17.1663 17.0013 18.9105 18.028 19.957 19.568C18.466 21.164 16.3508 22.1673 14 22.1673C11.6492 22.1673 9.53401 21.164 8.04301 19.568Z" fill="#A7B5CA"/>
</svg>
