<svg width="18" height="18" viewBox="0 0 18 18" fill="none" xmlns="http://www.w3.org/2000/svg">
<path d="M3.47998 11.4524V15.0674C3.48196 15.2491 3.55552 15.4227 3.68471 15.5505C3.8139 15.6782 3.98827 15.7499 4.16998 15.7499H8.38498V11.4524H3.47998Z" fill="#38B24D"/>
<path d="M9.61499 15.7499H13.83C14.0117 15.7499 14.1861 15.6782 14.3153 15.5505C14.4444 15.4227 14.518 15.2491 14.52 15.0674V11.4524H9.61499V15.7499Z" fill="#38B24D"/>
<path d="M15.075 5.3175H13.695C13.8364 5.03041 13.9107 4.71499 13.9125 4.395C13.9105 3.82542 13.6829 3.27985 13.2794 2.8778C12.8759 2.47575 12.3296 2.25 11.76 2.25C11.165 2.27822 10.5901 2.47418 10.1017 2.81525C9.61332 3.15632 9.23138 3.62859 9 4.1775C8.76862 3.62859 8.38668 3.15632 7.8983 2.81525C7.40992 2.47418 6.83502 2.27822 6.24 2.25C5.67042 2.25 5.12406 2.47575 4.7206 2.8778C4.31714 3.27985 4.08948 3.82542 4.0875 4.395C4.08928 4.71499 4.16365 5.03041 4.305 5.3175H2.925C2.55 5.3175 2.25 5.76 2.25 6.3V9.2475C2.25 9.7875 2.55 10.23 2.925 10.23H8.385V5.3175H9.615V10.23H15.075C15.45 10.23 15.75 9.7875 15.75 9.2475V6.3C15.75 5.76 15.45 5.3175 15.075 5.3175ZM6.24 5.3175C6.11237 5.32904 5.98374 5.31387 5.8623 5.27294C5.74086 5.23202 5.62928 5.16624 5.53467 5.0798C5.44006 4.99336 5.3645 4.88816 5.3128 4.7709C5.26111 4.65364 5.23441 4.5269 5.23441 4.39875C5.23441 4.2706 5.26111 4.14386 5.3128 4.0266C5.3645 3.90934 5.44006 3.80414 5.53467 3.7177C5.62928 3.63126 5.74086 3.56548 5.8623 3.52456C5.98374 3.48363 6.11237 3.46846 6.24 3.48C7.29 3.48 7.8825 4.56 8.175 5.3175H6.24ZM11.76 5.3175H9.825C10.1175 4.5675 10.71 3.48 11.76 3.48C11.8876 3.46846 12.0163 3.48363 12.1377 3.52456C12.2591 3.56548 12.3707 3.63126 12.4653 3.7177C12.5599 3.80414 12.6355 3.90934 12.6872 4.0266C12.7389 4.14386 12.7656 4.2706 12.7656 4.39875C12.7656 4.5269 12.7389 4.65364 12.6872 4.7709C12.6355 4.88816 12.5599 4.99336 12.4653 5.0798C12.3707 5.16624 12.2591 5.23202 12.1377 5.27294C12.0163 5.31387 11.8876 5.32904 11.76 5.3175Z" fill="#38B24D"/>
</svg>
