<svg width="24" height="24" viewBox="0 0 24 24" fill="none" xmlns="http://www.w3.org/2000/svg">
<path d="M11.99 2C6.47 2 2 6.48 2 12C2 17.52 6.47 22 11.99 22C17.52 22 22 17.52 22 12C22 6.48 17.52 2 11.99 2ZM16.0309 15.7836C15.9384 15.8763 15.8285 15.9498 15.7076 16C15.5866 16.0502 15.4569 16.076 15.3259 16.076C15.195 16.076 15.0653 16.0502 14.9443 16C14.8233 15.9498 14.7134 15.8763 14.6209 15.7836L10.5 13C10.4055 12.9074 10.3303 12.7969 10.2788 12.6751C10.2273 12.5532 10.2005 12.4223 10.2 12.29V8.29C10.2 7.74 10.65 7.29 11.2 7.29C11.75 7.29 12.2 7.74 12.2 8.29V11.88L16.0309 14.3736C16.4209 14.7636 16.4209 15.3936 16.0309 15.7836Z" fill="#A7B5CA"/>
</svg>
