<svg width="14" height="15" viewBox="0 0 14 15" fill="none" xmlns="http://www.w3.org/2000/svg">
<path opacity="0.16" d="M4 3.80273H13V12.8027C13 13.2006 12.842 13.5821 12.5607 13.8634C12.2794 14.1447 11.8978 14.3027 11.5 14.3027H5.5C5.10218 14.3027 4.72064 14.1447 4.43934 13.8634C4.15804 13.5821 4 13.2006 4 12.8027V3.80273Z" fill="#0560A6"/>
<path d="M10 0.802734H1V10.5527" stroke="#0560A6" stroke-width="1.3" stroke-linecap="round" stroke-linejoin="round"/>
<path d="M4 3.80273H13V12.8027C13 13.2006 12.842 13.5821 12.5607 13.8634C12.2794 14.1447 11.8978 14.3027 11.5 14.3027H5.5C5.10218 14.3027 4.72064 14.1447 4.43934 13.8634C4.15804 13.5821 4 13.2006 4 12.8027V3.80273Z" stroke="#0560A6" stroke-width="1.3" stroke-linecap="round" stroke-linejoin="round"/>
</svg>
