<svg width="18" height="18" viewBox="0 0 18 18" fill="none" xmlns="http://www.w3.org/2000/svg">
<mask id="path-1-inside-1_3410_14940" fill="white">
<path fill-rule="evenodd" clip-rule="evenodd" d="M9 0C4.02944 0 0 4.02944 0 9C0 13.9706 4.02944 18 9 18C13.9706 18 18 13.9706 18 9C18 4.02944 13.9706 0 9 0ZM12.4648 5.8484C12.7557 5.55757 13.2272 5.55757 13.518 5.8484C13.8089 6.13923 13.8089 6.61076 13.518 6.9016L7.42643 12.9932L4.69483 10.2616C4.404 9.97076 4.404 9.49923 4.69483 9.2084C4.98567 8.91757 5.4572 8.91757 5.74803 9.2084L7.42643 10.8868L12.4648 5.8484Z"/>
</mask>
<path fill-rule="evenodd" clip-rule="evenodd" d="M9 0C4.02944 0 0 4.02944 0 9C0 13.9706 4.02944 18 9 18C13.9706 18 18 13.9706 18 9C18 4.02944 13.9706 0 9 0ZM12.4648 5.8484C12.7557 5.55757 13.2272 5.55757 13.518 5.8484C13.8089 6.13923 13.8089 6.61076 13.518 6.9016L7.42643 12.9932L4.69483 10.2616C4.404 9.97076 4.404 9.49923 4.69483 9.2084C4.98567 8.91757 5.4572 8.91757 5.74803 9.2084L7.42643 10.8868L12.4648 5.8484Z" fill="white"/>
<path d="M12.4648 5.8484L13.1719 6.5555L13.1719 6.5555L12.4648 5.8484ZM13.518 6.9016L12.8109 6.19449V6.19449L13.518 6.9016ZM7.42643 12.9932L6.71933 13.7003L7.42643 14.4074L8.13354 13.7003L7.42643 12.9932ZM4.69483 10.2616L5.40194 9.55449H5.40194L4.69483 10.2616ZM4.69483 9.2084L3.98773 8.50129L3.98773 8.50129L4.69483 9.2084ZM5.74803 9.2084L6.45514 8.50129H6.45514L5.74803 9.2084ZM7.42643 10.8868L6.71933 11.5939L7.42643 12.301L8.13354 11.5939L7.42643 10.8868ZM1 9C1 4.58172 4.58172 1 9 1V-1C3.47715 -1 -1 3.47715 -1 9H1ZM9 17C4.58172 17 1 13.4183 1 9H-1C-1 14.5228 3.47715 19 9 19V17ZM17 9C17 13.4183 13.4183 17 9 17V19C14.5228 19 19 14.5228 19 9H17ZM9 1C13.4183 1 17 4.58172 17 9H19C19 3.47715 14.5228 -1 9 -1V1ZM14.2251 5.14129C13.5438 4.45993 12.4391 4.45993 11.7577 5.14129L13.1719 6.5555C13.0722 6.6552 12.9106 6.6552 12.8109 6.5555L14.2251 5.14129ZM14.2251 7.6087C14.9065 6.92734 14.9065 5.82265 14.2251 5.14129L12.8109 6.5555C12.7112 6.45581 12.7112 6.29418 12.8109 6.19449L14.2251 7.6087ZM8.13354 13.7003L14.2251 7.6087L12.8109 6.19449L6.71933 12.2861L8.13354 13.7003ZM3.98773 10.9687L6.71933 13.7003L8.13354 12.2861L5.40194 9.55449L3.98773 10.9687ZM3.98773 8.50129C3.30637 9.18265 3.30637 10.2873 3.98773 10.9687L5.40194 9.55449C5.50163 9.65418 5.50163 9.81581 5.40194 9.9155L3.98773 8.50129ZM6.45514 8.50129C5.77378 7.81994 4.66909 7.81993 3.98773 8.50129L5.40194 9.91551C5.30225 10.0152 5.14062 10.0152 5.04093 9.91551L6.45514 8.50129ZM8.13354 10.1797L6.45514 8.50129L5.04093 9.91551L6.71933 11.5939L8.13354 10.1797ZM11.7577 5.14129L6.71933 10.1797L8.13354 11.5939L13.1719 6.5555L11.7577 5.14129Z" fill="white" mask="url(#path-1-inside-1_3410_14940)"/>
</svg>
