<svg width="68" height="61" viewBox="0 0 68 61" fill="none" xmlns="http://www.w3.org/2000/svg">
<g clip-path="url(#clip0_3357_44753)">
<rect y="0.000305176" width="60.821" height="60.821" rx="30.4105" fill="#FFF3E1" fill-opacity="0.8"/>
<path opacity="0.4" d="M37.0756 0.18929C39.6811 3.07019 41.0916 7.22491 39.8248 10.8686C38.9437 13.4014 36.9319 15.3677 35.2226 17.4599C33.5134 19.5484 32.0007 22.1071 32.4091 24.7547C32.7041 26.6654 33.9558 28.2799 35.1546 29.8167C38.3122 33.8566 41.4509 38.0817 42.8198 42.9918C44.1887 47.8982 43.1374 53.4008 39.666 57.1852C30.8927 66.7574 19.7787 58.9738 18.1716 57.7851C13.2253 54.1266 6.68317 53.523 0.526791 52.8009C-5.62959 52.0788 -12.2284 50.8717 -16.494 46.4652C-21.0205 41.7883 -21.2815 33.3456 -16.218 29.2316C-14.4066 27.7615 -12.1414 26.9321 -10.1902 25.6471C-6.31783 23.0995 -4.45731 18.6115 -3.63671 14.1161C-1.39046 1.77786 4.75836 -2.82492 10.4988 -5.22073C18.8863 -8.72373 31.0289 -6.49825 37.0756 0.18929Z" fill="white" fill-opacity="0.36"/>
<path opacity="0.4" d="M25.1388 7.3948C22.5333 10.2757 21.1227 14.4304 22.3896 18.0741C23.2707 20.607 25.2825 22.5732 26.9917 24.6654C28.701 26.7539 30.2136 29.3126 29.8052 31.9602C29.5102 33.8709 28.2585 35.4854 27.0598 37.0222C23.9022 41.0621 20.7635 45.2872 19.3946 50.1973C18.0256 55.1037 19.0769 60.6063 22.5484 64.3907C31.3216 73.9629 42.4356 66.1793 44.0428 64.9906C48.9891 61.3321 55.5312 60.7285 61.6876 60.0064C67.8439 59.2844 74.4428 58.0772 78.7084 53.6707C83.2349 48.9938 83.4958 40.5511 78.4323 36.4371C76.6209 34.967 74.3558 34.1376 72.4045 32.8526C68.5322 30.305 66.6717 25.817 65.8511 21.3216C63.6048 8.98336 57.456 4.38059 51.7156 1.98477C43.3281 -1.51822 31.1855 0.707253 25.1388 7.3948Z" fill="white" fill-opacity="0.36"/>
<g clip-path="url(#clip1_3357_44753)">
<path d="M59.6561 38.7191L56.1269 42.9184L53.1008 40.1066L49.2592 46.4961L53.9107 50.5486C55.7535 51.8836 58.2859 51.1779 59.2398 49.0659L63.5124 41.2285C63.8699 40.5269 62.8978 40.1196 62.1694 39.889L59.6561 38.7191Z" fill="#111111"/>
<path d="M58.4404 41.2362L56.9857 40.6805C56.8417 40.6119 56.7764 40.4354 56.841 40.2846L62.9539 27.169C63.0184 27.0182 63.1862 26.9507 63.3302 27.0193L64.3173 27.4834C64.4613 27.5521 64.5265 27.7285 64.462 27.8793L58.8167 41.0865C58.7538 41.2372 58.586 41.3047 58.4404 41.2362Z" fill="#2D3248"/>
<path d="M64.3356 37.8979L64.7061 35.272C64.7724 34.8061 64.6116 34.3342 64.2779 34.0141L62.3098 32.1299C61.9126 31.7487 61.2953 31.7951 60.9554 32.2279L60.6033 32.679L62.1957 33.4632L59.9238 32.344C59.6698 32.2187 59.3748 32.3917 59.3435 32.684C59.3153 32.9447 59.4187 33.203 59.6149 33.3666L61.6799 35.0823L59.104 33.4663C58.919 33.351 58.6939 33.5217 58.7433 33.7411C58.927 34.5775 59.3787 35.323 60.0229 35.8526L61.118 36.5117C61.118 36.5117 59.6269 40.1321 59.7352 40.2465C59.8275 40.3427 59.9372 40.4238 60.061 40.4884C61.042 40.9914 63.0928 41.4898 64.3356 37.8979Z" fill="#FFA485"/>
<path d="M60.7055 32.5442C60.7374 32.5196 60.7821 32.5135 60.8199 32.534L62.4431 33.4179C62.4965 33.4463 62.5171 33.5151 62.4904 33.571C62.462 33.6269 62.3982 33.6481 62.3449 33.6197L60.7217 32.7358C60.6683 32.7074 60.6477 32.6386 60.6744 32.5828C60.6818 32.5666 60.6927 32.5537 60.7055 32.5442Z" fill="#E06A4B"/>
<path d="M60.6948 36.1996C60.7331 36.1694 60.7881 36.1697 60.8283 36.2023C60.9599 36.3154 61.1701 36.4047 61.1718 36.4046C61.2281 36.4276 61.2553 36.4943 61.2338 36.5533C61.2122 36.6123 61.1488 36.6405 61.0925 36.6175C61.0822 36.6129 60.8498 36.5144 60.692 36.38C60.6464 36.3407 60.6388 36.2676 60.676 36.2199C60.6821 36.2108 60.6885 36.2052 60.6948 36.1996Z" fill="#E06A4B"/>
<path d="M55.2288 44.181C55.2089 44.1822 55.1869 44.1765 55.1709 44.1599C55.1358 44.1287 55.1308 44.073 55.1604 44.0362L56.8041 41.9786C56.8336 41.9419 56.8867 41.9371 56.9218 41.9683C56.957 41.9995 56.9619 42.0552 56.9324 42.0919L55.2886 44.1495C55.2731 44.1697 55.2504 44.1798 55.2288 44.181Z" fill="#2D3248"/>
<path d="M62.6851 42.2179C62.6834 42.218 62.6818 42.2181 62.6801 42.2182C60.1717 42.2207 58.7297 40.1536 58.7152 40.1334C58.6879 40.0948 58.6964 40.04 58.7348 40.0115C58.7715 39.9849 58.8237 39.9923 58.851 40.0328C58.8655 40.0529 60.26 42.0475 62.68 42.045C62.7266 42.044 62.764 42.0838 62.7635 42.1329C62.7645 42.1783 62.7283 42.2154 62.6851 42.2179Z" fill="#2D3248"/>
<path d="M52.9682 37.925L48.3283 33.7793C47.2887 32.8422 46.0009 32.3378 44.6009 32.6538L39.0407 32.7148L37.3271 32.8565C37.3121 32.8556 37.2988 32.8564 37.2836 32.8538L37.179 32.6883L34.8513 32.759C33.2451 32.884 32.0808 33.1548 30.7438 34.1252C29.4324 35.0766 28.7767 36.4974 28.7085 38.1623C28.6996 38.3816 28.4394 42.2454 28.2831 44.1412C28.238 44.6846 28.6649 45.1463 29.1848 45.1161C29.8111 45.0796 30.6798 45.0273 31.6416 44.9713L30.0244 60.7769L51.9169 59.503L49.1176 47.8591L53.3583 40.5626C53.8523 39.713 53.682 38.5626 52.9682 37.925Z" fill="#EB8D2E"/>
<path d="M34.543 32.7314C34.4747 32.7319 34.4432 32.8212 34.496 32.8689L39.2411 37.1905C41.6544 39.3341 45.1697 37.6734 45.4686 34.2467L45.5195 32.5425L34.543 32.7314Z" fill="#111111"/>
<path d="M48.0198 27.59C47.8747 27.4444 47.7092 27.3228 47.5688 27.1717C47.2737 26.8563 47.1065 26.418 47.1093 25.9786C47.1123 25.6581 47.2042 25.3465 47.2407 25.0276C47.3214 24.3245 47.1219 23.5888 46.6994 23.0306C46.3762 22.6031 46.0564 22.3207 45.9321 21.7591C45.8846 21.5448 45.8618 21.3256 45.8474 21.106C45.889 21.163 45.9227 21.1978 45.9427 21.1967C45.9809 21.1945 46.0274 21.1917 46.0774 21.1923C46.2856 21.189 46.566 21.1954 46.7266 21.1773C46.8822 21.1595 47.0393 21.1381 47.1948 21.1168C47.3088 21.0997 47.5276 21.108 47.6258 21.048C47.6436 21.0382 47.6562 21.027 47.6672 21.0141C47.725 20.9477 47.6881 20.8588 47.6744 20.7371C47.6548 20.572 47.6368 20.4068 47.6172 20.2416C47.5908 20.0174 47.566 19.7913 47.5396 19.5671C47.2519 17.0566 45.6035 15.2535 42.6783 15.5112C41.6231 15.0231 40.4374 14.84 39.2925 14.9294C38.2571 15.0089 37.2281 15.3138 36.3256 15.8459C36.2668 15.6375 36.1914 15.4302 36.0912 15.226C35.4321 13.8677 34.1221 13.1808 33.16 13.6901C32.6684 13.9497 32.3655 14.4731 32.2721 15.1034C31.2906 15.1063 30.4365 15.5532 30.0723 16.369C29.5152 17.6231 30.3257 19.2631 31.8824 20.0354C32.3629 20.2734 32.8604 20.4002 33.3319 20.4253C33.2849 20.8778 33.2928 21.3289 33.3351 21.799C33.3968 22.4868 33.4625 23.2723 33.0019 23.8346C32.6905 24.2133 32.2078 24.3954 31.7782 24.6322C29.8548 25.6944 28.9023 28.2299 29.6349 30.3365C29.7068 30.5406 29.8008 30.7521 29.9796 30.8747C30.1462 30.9875 30.3588 31.0032 30.5577 31.0126C33.5281 31.1601 36.4984 30.961 39.4608 30.7693C41.7059 30.6247 43.9529 30.4834 46.2023 30.4996C46.7642 30.5036 47.3268 30.5182 47.8884 30.545C48.3613 30.5665 48.8158 30.757 48.8269 30.1456C48.8442 29.2695 48.6499 28.2219 48.0198 27.59Z" fill="#111111"/>
<path d="M44.2524 30.5063C45.9887 29.896 47.0962 27.9903 46.7911 25.9551L46.0756 21.1925C46.0257 21.1936 45.979 21.1946 45.9408 21.1968C45.8379 21.2046 45.3397 20.2044 45.3397 20.2044L45.108 21.0353C45.0847 21.1206 44.9738 21.1341 44.931 21.0578L44.1756 19.7051C44.1756 19.7051 44.1801 21.2153 43.9788 21.1937C43.8077 21.1739 43.6363 21.1507 43.4647 21.1239C42.9617 21.0429 42.4583 20.9287 41.9545 20.7777C41.5677 20.662 41.1905 20.5089 40.8237 20.336C40.774 20.3126 40.7225 20.2876 40.6728 20.2625C39.957 21.6255 38.7787 22.4589 37.5528 22.301L36.7652 22.1998C35.8645 22.3607 35.1811 23.1916 35.1953 24.1796L35.1962 24.225C35.2133 25.3197 36.0799 26.2056 37.1209 26.194L38.0071 26.1845L36.9268 32.4815C36.9219 32.5133 36.9204 32.5449 36.9173 32.5765L36.1374 32.5799C36.0358 32.5806 35.992 32.7161 36.0725 32.7815L39.6542 35.7286C41.6114 37.3387 44.4796 36.0727 44.7374 33.4849L44.8169 32.6752C44.823 32.6083 44.773 32.55 44.708 32.5503L43.9131 32.5528C43.9882 32.3541 44.041 32.1445 44.0699 31.9258L44.2524 30.5063Z" fill="#FFA485"/>
<path d="M41.0609 34.0661C38.7768 34.199 36.9997 32.3597 36.9748 32.3331C36.95 32.3083 36.9509 32.2663 36.9744 32.2404C36.9996 32.2144 37.038 32.2157 37.0628 32.2405C37.0982 32.2769 40.5687 35.8624 44.005 32.4999C44.0303 32.4756 44.0704 32.4768 44.0936 32.5035C44.1168 32.5301 44.1159 32.5722 44.0906 32.5964C43.053 33.6124 42.0144 34.0106 41.0609 34.0661Z" fill="#111111"/>
<path d="M41.6129 35.1876C41.2657 35.2078 40.9661 34.9277 40.9448 34.5632C40.9236 34.1986 41.1888 33.8857 41.536 33.8655C41.8831 33.8453 42.1828 34.1254 42.204 34.4899C42.2252 34.8545 41.9601 35.1674 41.6129 35.1876ZM41.5436 33.9963C41.2645 34.0125 41.0524 34.2629 41.0694 34.5559C41.0865 34.849 41.3262 35.073 41.6053 35.0568C41.8843 35.0406 42.0965 34.7902 42.0794 34.4972C42.0624 34.2041 41.8226 33.98 41.5436 33.9963Z" fill="white"/>
<path d="M36.8887 24.8093C36.8588 24.8111 36.8296 24.797 36.8129 24.7682C36.7889 24.7276 36.8007 24.6727 36.8392 24.6477L37.382 24.2941L36.7989 23.5824C36.7685 23.5457 36.772 23.4912 36.8068 23.4594C36.8416 23.4277 36.8936 23.4334 36.924 23.4684L37.5716 24.2568C37.5877 24.2768 37.5942 24.3027 37.5907 24.3274C37.5871 24.3521 37.5735 24.3757 37.5525 24.3874L36.9262 24.7949C36.9151 24.806 36.9019 24.8085 36.8887 24.8093Z" fill="#E06A4B"/>
<path d="M46.2579 23.7248C46.2901 23.9347 46.1549 24.1316 45.9534 24.1643C45.7536 24.197 45.5653 24.0539 45.533 23.8423C45.5008 23.6324 45.636 23.4355 45.8374 23.4028C46.0372 23.3701 46.2257 23.5149 46.2579 23.7248Z" fill="#111111"/>
<path d="M43.5414 23.7882C43.52 24.0204 43.3248 24.1893 43.1034 24.1654C42.882 24.1416 42.72 23.9357 42.7415 23.7035C42.7629 23.4712 42.9581 23.3023 43.1795 23.3262C43.4009 23.35 43.5629 23.5559 43.5414 23.7882Z" fill="#111111"/>
<path d="M44.0202 28.7726C44.0017 28.7776 43.981 28.7749 43.9637 28.7661C43.9444 28.7573 43.4956 28.5359 43.1521 28.9017C43.1186 28.937 43.0643 28.9363 43.0306 28.9029C42.9967 28.8675 42.9953 28.8106 43.0287 28.7753C43.4605 28.318 44.0327 28.6029 44.0384 28.6045C44.0808 28.6256 44.0989 28.6796 44.0791 28.724C44.0655 28.7483 44.0441 28.7653 44.0202 28.7726Z" fill="#E06A4B"/>
<path d="M41.4701 22.1686C41.6126 22.2111 41.7852 22.1695 41.9551 22.1386C42.1248 22.1043 42.2963 22.0733 42.4451 22.0524C42.5956 22.0314 42.7679 22.0143 42.9405 22.0008C43.1112 21.9839 43.2891 21.977 43.4145 21.898C43.5352 21.8227 43.5669 21.6528 43.3881 21.4725C43.2195 21.2967 42.8168 21.1364 42.3207 21.2038C41.8265 21.2745 41.4868 21.5376 41.3742 21.7524C41.2538 21.9747 41.3328 22.1294 41.4701 22.1686Z" fill="#111111"/>
<path d="M46.677 22.1604C46.5753 22.189 46.4597 22.1503 46.3446 22.1202C46.2293 22.0867 46.1127 22.0584 46.0114 22.0363C45.9084 22.0143 45.7906 21.9949 45.673 21.979C45.5552 21.9596 45.433 21.9492 45.3507 21.8823C45.2703 21.8187 45.2575 21.6847 45.3913 21.5491C45.517 21.4175 45.8021 21.3047 46.1413 21.376C46.4788 21.4473 46.7016 21.6671 46.7666 21.8384C46.837 22.0163 46.7739 22.1355 46.677 22.1604Z" fill="#111111"/>
<path d="M42.7202 24.1783C42.7202 24.1783 43.0834 23.9174 43.426 24.2493L42.7202 24.1783Z" fill="#FFA485"/>
<path d="M43.43 24.3361C43.4084 24.3374 43.3863 24.3299 43.3687 24.3135C43.079 24.0328 42.7795 24.2427 42.7667 24.2522C42.7283 24.279 42.6777 24.2697 42.6504 24.2292C42.6247 24.1887 42.6333 24.1357 42.6716 24.1072C42.8155 24.0026 43.1721 23.8856 43.4813 24.1861C43.5148 24.2192 43.5181 24.275 43.4868 24.3101C43.471 24.325 43.4516 24.3349 43.43 24.3361Z" fill="#E06A4B"/>
<path d="M45.6843 24.1014C45.6843 24.1014 45.9089 23.9501 46.1003 24.1752L45.6843 24.1014Z" fill="#FFA485"/>
<path d="M46.1042 24.2612C46.0793 24.2626 46.0554 24.2535 46.0375 24.2318C45.8997 24.07 45.7451 24.163 45.7291 24.1745C45.6906 24.1995 45.6398 24.1867 45.6141 24.1462C45.5901 24.1056 45.6003 24.0525 45.6388 24.0257C45.7367 23.9605 45.9728 23.8943 46.1607 24.1161C46.1912 24.1528 46.1877 24.2073 46.1546 24.239C46.1403 24.2521 46.1225 24.2601 46.1042 24.2612Z" fill="#E06A4B"/>
<path d="M44.2465 30.5492C44.2465 30.5492 40.7856 30.7383 40.1242 29.3399C39.4644 27.9414 40.1242 29.3399 40.1242 29.3399C40.1242 29.3399 40.0066 31.6447 43.9838 32.5947L44.2465 30.5492Z" fill="#E06A4B"/>
<path d="M44.8849 22.8539L44.8052 23.7459C44.7749 24.0855 45.0126 24.3884 45.338 24.4237C45.5006 24.4405 45.6195 24.5929 45.6043 24.7618C45.5547 25.3125 45.0897 25.7141 44.5665 25.6588L44.2227 25.6228" fill="#FFA485"/>
<path d="M44.7172 25.7492C44.664 25.7522 44.6106 25.7519 44.557 25.7462L44.2132 25.7102C44.1679 25.7059 44.1337 25.6623 44.1376 25.6149C44.1415 25.5674 44.1811 25.5318 44.2281 25.5361L44.5718 25.5721C45.0497 25.6213 45.4751 25.2553 45.5193 24.7539C45.5306 24.6325 45.4442 24.5237 45.3285 24.5112C45.149 24.4919 44.9871 24.4016 44.8736 24.2559C44.7585 24.1103 44.7044 23.9262 44.7218 23.7379L44.8016 22.8459C44.8055 22.7985 44.8468 22.7645 44.892 22.7672C44.9373 22.7715 44.9715 22.8151 44.9676 22.8625L44.8878 23.7545C44.8743 23.8953 44.9158 24.0347 45.0021 24.1434C45.0885 24.2539 45.2108 24.322 45.3449 24.3352C45.5529 24.3564 45.7059 24.5523 45.6852 24.7687C45.6367 25.3106 45.2172 25.7201 44.7172 25.7492Z" fill="#E06A4B"/>
<path opacity="0.8" d="M42.9851 26.4162C43.1084 26.3194 43.2783 26.3323 43.3981 26.4344C43.6166 26.6204 44.0845 26.9467 44.7327 26.9775C44.8923 26.9858 44.9836 27.174 44.9257 27.3286C44.7964 27.6685 44.4271 28.2017 43.5721 27.8417C42.5316 27.401 42.6665 26.6687 42.9851 26.4162Z" fill="white"/>
<path d="M36.8375 26.9643C36.7993 26.9666 36.7625 26.9652 36.724 26.9622C36.5129 26.943 36.3202 26.8387 36.1819 26.6682C36.0436 26.4977 35.9777 26.281 35.9948 26.0595C36.0119 25.838 36.1102 25.6363 36.2719 25.4938C36.4335 25.3497 36.6396 25.2817 36.8507 25.3009C37.0619 25.3201 37.2546 25.4244 37.3929 25.5949C37.5311 25.7654 37.5971 25.982 37.58 26.2036C37.5628 26.4251 37.4646 26.6268 37.3029 26.7692C37.1697 26.8872 37.0086 26.9544 36.8375 26.9643ZM36.7474 25.4732C36.6128 25.481 36.4843 25.534 36.3797 25.6276C36.2512 25.7401 36.1739 25.9003 36.1607 26.0744C36.1476 26.2502 36.1991 26.4204 36.3087 26.5558C36.4182 26.6912 36.5697 26.7734 36.7372 26.7882C36.9048 26.8029 37.0667 26.7497 37.1951 26.6355C37.3235 26.523 37.4009 26.3627 37.4141 26.1887C37.4272 26.0129 37.3756 25.8427 37.2661 25.7073C37.1565 25.5719 37.005 25.4897 36.8375 25.4749C36.8073 25.4714 36.7773 25.4714 36.7474 25.4732Z" fill="white"/>
<path d="M49.1248 48.271C49.1132 48.2716 49.1015 48.2706 49.0912 48.2659C49.0486 48.2491 49.0256 48.198 49.0413 48.1533L49.772 46.0736C50.3026 44.5638 50.2469 42.9201 49.6161 41.4464L48.4375 38.6937C48.4183 38.6493 48.4369 38.5974 48.4791 38.5775C48.5214 38.5593 48.5708 38.5774 48.5884 38.6219L49.767 41.3746C50.4169 42.891 50.4736 44.5818 49.9273 46.1345L49.1965 48.2143C49.1868 48.2481 49.1581 48.269 49.1248 48.271Z" fill="#111111"/>
<path d="M43.2564 43.6683L44.748 41.2887C45.224 40.5312 45.8941 39.9304 46.6824 39.5572L49.2373 38.348C49.6038 38.1744 49.9181 37.5324 50.3152 37.5968L56.3973 37.5966C56.5154 37.5932 56.5824 38.1844 56.5305 38.296C56.5291 38.2996 56.5275 38.3014 56.526 38.305C56.3933 38.6015 56.1181 38.7995 55.8081 38.8281L52.4113 39.0436L52.5238 39.0581C52.8312 39.098 53.0891 39.321 53.1871 39.6286L53.3605 40.175L53.5162 40.3585C53.7292 40.6104 53.785 40.9677 53.6596 41.276L52.4481 44.2588C52.3737 44.4416 52.1681 44.5184 51.9994 44.4249C51.5844 44.197 51.3944 43.6813 51.556 43.2221L51.9063 42.2233L50.2904 44.1866C50.0242 44.5101 49.6887 44.7606 49.3114 44.9209L48.0913 45.4364L45.2198 47.3047L43.2564 43.6683Z" fill="#FFA485"/>
<path d="M52.5758 39.3366C52.5654 39.343 52.5532 39.3496 52.5405 39.3474L50.7451 39.3232C50.6966 39.3231 50.6551 39.2582 50.6523 39.1794C50.6495 39.1006 50.6871 39.037 50.7356 39.0371L52.531 39.0613C52.5795 39.0614 52.621 39.1263 52.6238 39.2051C52.6254 39.2635 52.605 39.3144 52.5758 39.3366Z" fill="#E06A4B"/>
<path d="M53.3388 40.3752C53.3308 40.3815 53.321 40.3851 53.3111 40.3856L51.2861 40.5595C51.2412 40.5622 51.2011 40.5025 51.1948 40.4232C51.1902 40.3438 51.2213 40.2771 51.266 40.2715L53.291 40.0976C53.3358 40.095 53.376 40.1546 53.3823 40.234C53.3859 40.2957 53.3673 40.3499 53.3388 40.3752Z" fill="#E06A4B"/>
<path d="M51.8857 42.3062C51.8553 42.3181 51.8167 42.3204 51.7823 42.3081C51.719 42.2874 51.6898 42.23 51.7178 42.1775L52.0926 41.5042C52.1207 41.4537 52.1943 41.429 52.2602 41.4496C52.3235 41.4704 52.3527 41.5277 52.3247 41.5803L51.9499 42.2536C51.9357 42.2768 51.9135 42.2944 51.8857 42.3062Z" fill="#E06A4B"/>
<path d="M43.1155 42.3877L38.0799 46.3648L37.9383 44.6771L29.6491 45.0737L31 52.3634C31.9213 56.337 36.5853 57.8035 39.4062 55.0071L48.1995 46.8033C48.5631 46.4637 48.5312 45.8582 48.1336 45.5575L43.9284 42.3789C43.686 42.1952 43.3544 42.197 43.1155 42.3877Z" fill="#111111"/>
<path d="M47.6388 47.4212C47.6205 47.4222 47.6002 47.4164 47.5844 47.4033L42.1326 43.1963C42.0959 43.1669 42.0877 43.1132 42.1138 43.0749C42.1416 43.0365 42.1928 43.0283 42.2294 43.0559L47.6813 47.2629C47.718 47.2923 47.7261 47.3461 47.7 47.3843C47.6863 47.4061 47.6621 47.4198 47.6388 47.4212Z" fill="#2D3248"/>
<path d="M46.8485 48.1335C46.8302 48.1346 46.8099 48.1288 46.7941 48.1157L44.8117 46.5859C44.7749 46.5565 44.7668 46.5027 44.7929 46.4645C44.8207 46.4261 44.8719 46.4179 44.9085 46.4455L46.891 47.9753C46.9277 48.0047 46.9358 48.0584 46.9097 48.0967C46.8961 48.1203 46.8734 48.1321 46.8485 48.1335Z" fill="#2D3248"/>
<path d="M36.6067 44.9069C36.5618 44.9095 36.5214 44.8733 36.5186 44.8245C36.5157 44.7757 36.55 44.7352 36.5965 44.7325L38.6337 44.5947C39.0089 44.5693 39.2974 44.2288 39.2778 43.8344L39.3155 40.8149C39.3159 40.7658 39.3537 40.7269 39.4005 40.7294C39.4472 40.7302 39.4829 40.7701 39.4824 40.8191L39.4443 43.8317C39.4691 44.315 39.1103 44.7367 38.6455 44.769L36.6067 44.9069Z" fill="#111111"/>
<path d="M36.4629 47.764C36.4363 47.7656 36.4089 47.7532 36.3926 47.7296C36.3653 47.6909 36.3705 47.6364 36.4071 47.608L38.8165 45.6739C38.8531 45.6455 38.9052 45.6529 38.9324 45.6899C38.9596 45.7285 38.9545 45.7831 38.9178 45.8115L36.5085 47.7456C36.4942 47.7569 36.4795 47.763 36.4629 47.764Z" fill="#2D3248"/>
</g>
<g clip-path="url(#clip2_3357_44753)">
<path d="M10.1079 49.461L5.38649 47.2485L9.25899 40.5385L6.38853 39.9414L12.0383 31.1227L12.0403 31.1691C13.335 29.4721 15.4302 28.3742 17.7851 28.3742H27.5167L27.4934 28.0923L31.2961 28.1312C34.8353 28.1961 38.0236 30.3883 39.0024 33.6431C39.0411 33.7748 39.0779 33.9065 39.1109 34.0419L41.303 45.5812L34.7791 45.073L36.0563 60.7203H9.666L10.1079 49.461Z" fill="#5C69AB"/>
<path d="M10.0071 52.1531C10.0556 52.1531 10.0963 52.1197 10.1021 52.0734L12.5229 35.4246C12.5306 35.3745 12.4938 35.3263 12.4396 35.3207C12.3872 35.3133 12.3368 35.3486 12.331 35.4005L9.91023 52.0474C9.90248 52.0975 9.9393 52.1457 9.99357 52.1513C9.99745 52.1513 10.0013 52.1531 10.0071 52.1531Z" fill="#2D3248"/>
<path d="M17.8548 31.3805L15.5542 60.7908L27.7357 60.7204L26.2239 31.7311L27.8093 30.1083L17.8548 31.3805Z" fill="#5FC0C7"/>
<path d="M6.03095 46.9559H12.1411C12.9618 46.9559 13.6289 46.2643 13.6289 45.4135V33.5107C13.6289 32.6599 12.9618 31.9683 12.1411 31.9683H6.03095C5.21026 31.9683 4.54312 32.6599 4.54312 33.5107V45.4135C4.54312 46.2671 5.21026 46.9559 6.03095 46.9559Z" fill="#111111"/>
<path d="M9.67372 41.5566C10.2843 41.5455 10.8928 41.6901 10.858 42.419C10.9258 43.0792 10.3346 43.2499 9.71636 43.3055C10.1059 43.3259 10.4354 43.4576 10.4626 43.899C10.6079 44.6853 9.88111 44.9672 9.20468 45.0136C9.85591 45.1545 9.47215 46.1634 8.64454 46.4342C7.90997 46.7143 7.15021 46.9683 6.43308 47.2836C5.71207 47.6008 5.0027 47.9068 4.22161 48.0681C3.37462 48.2424 2.48112 48.2554 1.65351 48.018C1.12245 47.866 0.60108 47.5915 0.302599 47.1445C-0.240092 46.3341 0.0661392 45.1842 0.358806 44.3367C0.668915 43.4353 1.16315 42.56 1.88416 41.8979C1.88416 41.8979 4.44838 39.5444 5.46592 38.9101C5.57446 38.8415 5.68882 38.7747 5.8148 38.7469C5.94078 38.7172 6.08614 38.7321 6.18499 38.8137C6.31291 38.9194 6.33229 39.1011 6.32066 39.2643C6.28771 39.7669 6.07064 40.2343 5.85356 40.6961C6.29353 40.57 6.76257 40.4327 7.27231 40.2751C8.3732 40.0173 10.1369 39.3793 10.4044 40.7795C10.4509 41.2691 10.0904 41.4713 9.67372 41.5566Z" fill="#E59078"/>
<path opacity="0.36" d="M5.84964 40.693L3.4521 41.6018C3.4521 41.6018 5.75467 39.966 6.20239 39.8399L5.84964 40.693Z" fill="#E06A4B"/>
<path d="M8.20639 42.0389C8.21608 42.0389 8.22577 42.0371 8.23546 42.0352C8.81111 41.8646 9.73175 41.6087 9.90619 41.605C9.96046 41.6031 10.0031 41.5604 10.0012 41.5104C9.99922 41.4584 9.94883 41.4213 9.90231 41.4195C9.64647 41.4251 8.3285 41.8145 8.17926 41.859C8.12886 41.8739 8.09979 41.9258 8.1153 41.9759C8.12693 42.0148 8.16569 42.0389 8.20639 42.0389Z" fill="#DF6969"/>
<path d="M8.50104 43.7562C8.51073 43.7562 8.51849 43.7544 8.52818 43.7525L9.87134 43.3779C9.92367 43.363 9.95275 43.3111 9.93724 43.2629C9.92174 43.2147 9.8694 43.185 9.81707 43.1998L8.47391 43.5745C8.42158 43.5893 8.39251 43.6412 8.40801 43.6894C8.42158 43.7302 8.46034 43.7562 8.50104 43.7562Z" fill="#DF6969"/>
<path d="M8.47596 45.2937C8.48371 45.2937 8.49341 45.2918 8.50116 45.2899L9.22992 45.1045C9.28225 45.0915 9.31326 45.0396 9.29776 44.9914C9.28419 44.9413 9.23186 44.9135 9.17953 44.9265L8.45076 45.1119C8.39843 45.1249 8.36742 45.1768 8.38293 45.225C8.39456 45.2658 8.43332 45.2937 8.47596 45.2937Z" fill="#DF6969"/>
<path d="M6.90022 40.1897C7.25491 38.6022 9.24543 39.3867 10.4936 39.7149C11.0712 39.9115 11.6023 40.084 12.0984 40.2416C11.8678 39.7075 11.6352 39.166 11.6158 38.5929C11.61 38.4074 11.6371 38.1997 11.7864 38.0829C11.9027 37.9939 12.0674 37.9809 12.2109 38.018C12.3543 38.0551 12.4803 38.1348 12.6024 38.2164C13.742 38.9712 16.5873 41.742 16.5873 41.742C18.258 43.7079 19.1127 46.6029 18.1165 48.0495C18.0293 48.1775 17.8955 48.2684 17.7424 48.311C17.0137 48.5224 14.7402 49.2383 13.6781 48.7672L8.70661 46.7049C7.77241 46.3693 7.36927 45.2046 8.11741 45.0655C7.34601 44.9913 6.52809 44.6463 6.71997 43.7524C6.76649 43.248 7.14831 43.1089 7.59409 43.0977C6.89053 43.0124 6.22186 42.801 6.32265 42.048C6.30908 41.2172 7.00683 41.0707 7.70457 41.1022C7.22972 40.9946 6.82657 40.7517 6.90022 40.1897Z" fill="#FFA485"/>
<path opacity="0.36" d="M12.0985 40.2435L14.8042 41.3581C14.8042 41.3581 12.2342 39.4164 11.7264 39.2587L12.0985 40.2435Z" fill="#E06A4B"/>
<path d="M9.36565 41.69C9.40635 41.69 9.44318 41.6659 9.45674 41.627C9.47419 41.5787 9.44705 41.525 9.39666 41.5101C9.22804 41.4545 7.73953 40.9686 7.4488 40.9537C7.38872 40.95 7.34995 40.9908 7.34608 41.0409C7.34414 41.0928 7.38484 41.1355 7.43717 41.1392C7.66006 41.1503 8.88111 41.5379 9.3327 41.6863C9.34433 41.69 9.35402 41.69 9.36565 41.69Z" fill="#DF6969"/>
<path d="M8.96829 43.6404C9.00899 43.6404 9.04775 43.6163 9.06132 43.5755C9.07683 43.5273 9.04969 43.4754 8.9993 43.4587L7.47977 42.9876C7.42744 42.9728 7.37511 42.9988 7.35767 43.047C7.34023 43.0952 7.3693 43.1471 7.41969 43.1638L8.93922 43.6349C8.94891 43.6386 8.9586 43.6404 8.96829 43.6404Z" fill="#DF6969"/>
<path d="M8.94309 45.3981C8.98573 45.3981 9.02255 45.3721 9.03612 45.3313C9.05162 45.2831 9.02255 45.2312 8.97022 45.2163L8.14649 44.9808C8.09416 44.966 8.04183 44.9938 8.02632 45.0438C8.01082 45.0921 8.03989 45.144 8.09222 45.1588L8.91595 45.3944C8.9237 45.3962 8.9334 45.3981 8.94309 45.3981Z" fill="#DF6969"/>
<path d="M30.2184 44.5461L29.8851 45.4493L19.917 42.7564L18.7366 42.4374C18.4013 42.3465 18.0486 42.5116 17.9168 42.8213L15.2363 49.1103C15.058 49.5275 15.2731 50.0023 15.7111 50.1655L27.3305 54.4812L31.8504 56.1615C33.2032 56.5194 34.5076 56.6121 35.7054 56.4823C39.4616 56.0761 42.1712 53.4945 42.0123 50.1303L41.1924 44.8929L30.2184 44.5461Z" fill="#5C69AB"/>
<path d="M18.6668 46.5329C18.7075 46.5329 18.7443 46.5088 18.7579 46.4698L20.0196 42.8626C20.0371 42.8144 20.0099 42.7606 19.9595 42.7458C19.9091 42.7291 19.8529 42.7551 19.8374 42.8033L18.5757 46.4105C18.5582 46.4587 18.5854 46.5125 18.6357 46.5273C18.6474 46.531 18.6571 46.5329 18.6668 46.5329Z" fill="#2D3248"/>
<path d="M16.6529 49.1942C16.8894 49.1942 17.0793 49.0106 17.0793 48.7862C17.0793 48.5599 16.8875 48.3782 16.6529 48.3782C16.4165 48.3782 16.2265 48.5618 16.2265 48.7862C16.2246 49.0106 16.4165 49.1942 16.6529 49.1942ZM16.6529 48.5618C16.7809 48.5618 16.8855 48.6619 16.8855 48.7843C16.8855 48.9067 16.7809 49.0069 16.6529 49.0069C16.525 49.0069 16.4204 48.9067 16.4204 48.7843C16.4184 48.6619 16.5231 48.5618 16.6529 48.5618Z" fill="#2D3248"/>
<path d="M34.2692 46.6678C34.3119 46.6678 34.3507 46.6399 34.3623 46.5991C34.3758 46.5491 34.3468 46.499 34.2944 46.4842C34.215 46.4638 26.3673 44.3996 26.2742 44.3755C26.2219 44.3606 26.1696 44.3903 26.1541 44.4385C26.1386 44.4886 26.1696 44.5387 26.22 44.5535C26.313 44.5795 33.9184 46.5787 34.2421 46.6641C34.2518 46.6678 34.2596 46.6678 34.2692 46.6678Z" fill="#2D3248"/>
<path d="M31.5499 45.9579C31.5518 45.9579 31.5518 45.9579 31.5538 45.9579C31.608 45.9561 31.6487 45.9116 31.6468 45.8615L31.3406 38.7268C31.3386 38.6749 31.294 38.6378 31.2398 38.6378C31.1855 38.6397 31.1448 38.6842 31.1467 38.7343L31.453 45.8689C31.4549 45.919 31.4975 45.9579 31.5499 45.9579Z" fill="#2D3248"/>
<path d="M16.6529 50.6043C16.6916 50.6043 16.7284 50.5821 16.744 50.545C16.7633 50.4967 16.7381 50.443 16.6877 50.4244L15.6586 50.0479C15.4958 49.9886 15.3679 49.8717 15.2981 49.7178C15.2283 49.5639 15.2264 49.3951 15.2903 49.2393L15.645 48.3973C15.6644 48.3491 15.6411 48.2953 15.5907 48.2768C15.5423 48.2582 15.4841 48.2805 15.4648 48.3287L15.1101 49.1707C15.0248 49.3728 15.0287 49.5935 15.1198 49.792C15.2109 49.9904 15.3775 50.1425 15.5888 50.2204L16.618 50.5969C16.6296 50.6025 16.6412 50.6043 16.6529 50.6043Z" fill="#2D3248"/>
<path d="M34.5561 56.6494C34.9456 56.6494 35.3352 56.6234 35.7209 56.5715C35.7732 56.5641 35.8101 56.5177 35.8023 56.4658C35.7946 56.4157 35.7461 56.3805 35.6918 56.3879C34.3274 56.5733 32.9241 56.4213 31.6372 55.9502L26.6405 54.1253C26.5901 54.1067 26.5339 54.1308 26.5145 54.1791C26.4952 54.2273 26.5204 54.2811 26.5707 54.2996L31.5674 56.1245C32.5248 56.4732 33.5385 56.6494 34.5561 56.6494Z" fill="#2D3248"/>
<path d="M12.0032 9.89024L12.7998 10.0312C12.9006 10.0497 12.9917 9.96999 12.982 9.87355L12.9006 8.89617C12.858 8.38986 13.3968 8.01894 13.8833 8.22481C14.267 8.38801 14.7148 8.55678 15.1567 8.67733C15.6141 7.96702 16.43 7.49224 17.3662 7.49224C17.4457 7.49224 17.5251 7.49595 17.6046 7.50336C18.312 6.94142 19.221 6.60388 20.2134 6.60388H21.8046C23.7486 6.60388 25.3496 7.99113 25.5957 9.78638C25.6248 9.7938 25.6558 9.80122 25.6849 9.81049C26.8982 10.1962 27.5475 11.4629 27.2587 12.6555L26.6443 15.1926C26.5105 15.1777 26.3729 15.174 26.2353 15.1851L24.9154 15.2871L23.5761 15.3891L23.3028 12.1325H21.9674C21.0836 13.0839 19.2288 14.3858 15.8253 14.0965C15.0287 14.0279 14.3542 13.8776 13.7844 13.6718C12.1156 13.0727 11.3268 11.9989 10.9547 11.1106C10.6795 10.4503 11.2745 9.76042 12.0032 9.89024Z" fill="#111111"/>
<path d="M22.5799 11.3195C22.6186 11.2527 22.7001 11.2267 22.7737 11.2546C22.8861 11.2991 23.0606 11.3603 23.2427 11.4029L23.5761 15.3866L24.9154 15.2846L26.2353 15.1826C26.3748 15.1715 26.5105 15.1752 26.6443 15.19C27.6192 15.2995 28.4177 16.058 28.4991 17.0279L28.5398 17.512C28.6328 18.6155 27.7645 19.591 26.6113 19.6782L25.869 19.7357L27.1075 27.0892C27.435 29.0347 26.0531 30.867 24.018 31.1804L23.1284 31.3177C21.0952 31.6311 19.1803 30.3088 18.8528 28.3614L18.3624 25.4441L18.1899 25.4571C16.3137 25.6018 14.6702 24.2628 14.5209 22.4675L13.7844 13.6674C14.3562 13.8733 15.0287 14.0235 15.8253 14.0921C20.4789 14.489 22.2407 11.9092 22.5799 11.3195Z" fill="#FFA485"/>
<path d="M26.594 18.1823C26.6289 18.1823 26.6618 18.1656 26.6793 18.1341C26.7044 18.0896 26.687 18.0321 26.6405 18.008L25.9311 17.6389L26.6114 16.7877C26.6444 16.7469 26.6366 16.6894 26.594 16.6578C26.5513 16.6263 26.4912 16.6337 26.4583 16.6745L25.7102 17.613C25.6927 17.6352 25.6869 17.6612 25.6927 17.689C25.6985 17.715 25.716 17.7391 25.7412 17.7502L26.5494 18.1712C26.563 18.1786 26.5785 18.1823 26.594 18.1823Z" fill="#E06A4B"/>
<path d="M17.7886 19.1907C17.8119 19.1907 17.8351 19.1907 17.8584 19.1888L18.4864 19.1406C18.5407 19.1369 18.5794 19.0924 18.5755 19.0405C18.5717 18.9885 18.5232 18.9514 18.4709 18.9552L17.8429 19.0034C17.6471 19.0201 17.4533 18.9496 17.3138 18.8142C17.1742 18.6788 17.1064 18.4934 17.1238 18.3042L17.3351 16.1658C17.3409 16.1158 17.3002 16.0694 17.2479 16.0657C17.1975 16.0601 17.1471 16.0972 17.1432 16.1491L16.932 18.2875C16.9087 18.5304 16.9979 18.7697 17.1762 18.944C17.339 19.1035 17.558 19.1907 17.7886 19.1907Z" fill="#E06A4B"/>
<path d="M15.2439 17.5445C15.2187 17.7856 15.4028 18.0007 15.6548 18.0248C15.9067 18.0489 16.1316 17.8728 16.1568 17.6317C16.1819 17.3906 15.9978 17.1754 15.7459 17.1513C15.4939 17.1272 15.2691 17.3034 15.2439 17.5445Z" fill="#111111"/>
<path d="M18.6576 23.0298C18.6978 23.0368 18.738 23.0298 18.7781 23.0123C18.8146 22.9913 19.7311 22.5232 20.4906 23.18C20.5636 23.2429 20.6768 23.2394 20.7425 23.166C20.8082 23.0962 20.8046 22.9879 20.7279 22.925C19.7713 22.1004 18.6102 22.7049 18.5992 22.7118C18.5116 22.7573 18.4824 22.8621 18.5298 22.9459C18.559 22.9913 18.6065 23.0193 18.6576 23.0298Z" fill="#E06A4B"/>
<path d="M21.8278 15.5183C21.5952 15.5943 21.3064 15.5461 21.0254 15.5145C20.7424 15.4775 20.4575 15.4478 20.2075 15.4292C19.9574 15.4107 19.6706 15.3996 19.3857 15.394C19.1027 15.3829 18.8081 15.3884 18.593 15.279C18.3856 15.177 18.3197 14.9229 18.5968 14.6355C18.8585 14.3554 19.5078 14.0791 20.3334 14.1384C21.1572 14.2015 21.7444 14.5687 21.9499 14.8821C22.165 15.2067 22.0507 15.4478 21.8278 15.5183Z" fill="#111111"/>
<path d="M14.0576 16.1423C14.2263 16.1757 14.4162 16.1071 14.6042 16.0533C14.7922 15.994 14.9802 15.9383 15.1488 15.8975C15.3155 15.8567 15.5093 15.8159 15.7032 15.7807C15.895 15.7417 16.0966 15.7139 16.2245 15.6063C16.3505 15.5043 16.3583 15.3003 16.1257 15.1093C15.9067 14.922 15.4241 14.7773 14.8697 14.9127C14.3174 15.05 13.9743 15.3986 13.8813 15.6638C13.7805 15.9383 13.8948 16.1108 14.0576 16.1423Z" fill="#111111"/>
<path d="M19.2307 17.3903C19.2733 17.6518 19.5292 17.8317 19.8025 17.7891C20.0757 17.7483 20.2637 17.5035 20.2192 17.242C20.1765 16.9805 19.9207 16.8006 19.6474 16.8432C19.3741 16.884 19.1881 17.1288 19.2307 17.3903Z" fill="#111111"/>
<path d="M20.2832 17.7774C20.2832 17.7774 19.8122 17.5047 19.4091 17.9035L20.2832 17.7774Z" fill="#FFA485"/>
<path d="M19.4092 17.9982C19.4344 17.9982 19.4596 17.9889 19.4789 17.9704C19.8239 17.6292 20.2154 17.8499 20.2329 17.8591C20.2794 17.8851 20.3376 17.8721 20.3666 17.8276C20.3938 17.7831 20.3802 17.7274 20.3337 17.6996C20.1476 17.5921 19.7018 17.4826 19.3394 17.8406C19.3026 17.8777 19.3026 17.937 19.3413 17.9723C19.3607 17.9908 19.384 17.9982 19.4092 17.9982Z" fill="#E06A4B"/>
<path d="M16.0967 18.0713C16.0967 18.0713 15.678 17.9285 15.3214 18.1381L16.0967 18.0713Z" fill="#FFA485"/>
<path d="M15.3214 18.2302C15.3388 18.2302 15.3563 18.2265 15.3718 18.2172C15.6838 18.0336 16.0618 18.1578 16.0656 18.1578C16.116 18.1745 16.1703 18.1486 16.1897 18.1003C16.2071 18.0521 16.1819 18.0002 16.1315 17.9816C16.1122 17.9761 15.6644 17.8277 15.2729 18.0577C15.2264 18.0836 15.2128 18.1411 15.24 18.1857C15.2574 18.2135 15.2884 18.2302 15.3214 18.2302Z" fill="#E06A4B"/>
<path opacity="0.9" d="M20.7963 19.6829C20.6272 19.5923 20.4138 19.6347 20.281 19.7695C20.0395 20.018 19.5081 20.4648 18.703 20.6073C18.5058 20.642 18.4212 20.8712 18.5219 21.0387C18.7412 21.4047 19.2948 21.9536 20.3031 21.4028C21.5329 20.7325 21.2391 19.9178 20.7963 19.6829Z" fill="white"/>
<path d="M18.3876 25.461C18.3876 25.461 22.4908 25.3998 23.3668 23.7399C23.3668 23.7399 23.0955 27.2488 18.7539 27.6327L18.3876 25.461Z" fill="#E06A4B"/>
<path d="M17.1278 27.7867L16.1509 30.1866C16.0366 30.4704 16.0947 30.7875 16.306 31.0193L18.8353 33.7882C19.0136 34.0998 19.4071 34.1221 19.6106 33.8309L21.793 31.2511L17.9554 27.4103C17.6511 27.1024 17.1646 27.3212 17.1278 27.7867Z" fill="#4256AB"/>
<path d="M19.2403 34.1313C19.4187 34.1313 19.5834 34.0423 19.6939 33.8847L21.8724 31.3123C21.9034 31.2753 21.9015 31.2233 21.8666 31.1899L18.029 27.3491C17.872 27.1896 17.6569 27.1358 17.4533 27.2044C17.2227 27.2823 17.0599 27.5011 17.0347 27.7663L16.0637 30.1551C15.9358 30.4704 16.0017 30.8264 16.2362 31.0824L18.7597 33.8439C18.8624 34.0164 19.033 34.1221 19.219 34.1313C19.2248 34.1295 19.2326 34.1313 19.2403 34.1313ZM21.667 31.2586L19.5388 33.7734C19.4574 33.8902 19.3431 33.9496 19.2268 33.944C19.1047 33.9385 18.9942 33.8661 18.9244 33.7437C18.9206 33.7382 18.9167 33.7326 18.9128 33.727L16.3835 30.9581C16.1955 30.7541 16.1431 30.4704 16.2459 30.22L17.2227 27.8201C17.2266 27.8109 17.2285 27.8034 17.2285 27.7942C17.244 27.5976 17.3584 27.4344 17.5212 27.3787C17.653 27.3342 17.7867 27.3695 17.8914 27.4752L21.667 31.2586Z" fill="#4256AB"/>
<path d="M26.9561 26.8487L21.3024 31.2719L24.6361 34.408C24.9733 34.6825 25.5334 34.6454 25.8106 34.3301L28.9291 30.786C29.1559 30.5282 29.2024 30.1665 29.0474 29.8642L27.5627 26.9525C27.4619 26.7522 27.146 26.6984 26.9561 26.8487Z" fill="#4256AB"/>
<path d="M25.1828 34.6864C25.2099 34.6864 25.239 34.6845 25.2661 34.6827C25.5142 34.6623 25.739 34.5566 25.8864 34.3896L29.0049 30.8455C29.2569 30.5599 29.3072 30.1593 29.1367 29.8236L27.652 26.9119C27.5939 26.7969 27.4757 26.7135 27.3322 26.6838C27.1752 26.6522 27.0144 26.6875 26.8961 26.7802L21.2425 31.2034C21.2211 31.2201 21.2076 31.2442 21.2076 31.2702C21.2056 31.2962 21.2173 31.3221 21.2366 31.3407L24.5703 34.4768C24.737 34.6122 24.9541 34.6864 25.1828 34.6864ZM27.2159 26.8563C27.2411 26.8563 27.2644 26.8581 27.2896 26.8637C27.3749 26.8822 27.4446 26.9286 27.4757 26.9935L28.9603 29.9052C29.0979 30.1741 29.0553 30.4968 28.8537 30.7268L25.7352 34.2709C25.6228 34.4008 25.4444 34.4824 25.2487 34.4991C25.0432 34.5158 24.8417 34.4564 24.6982 34.3396L21.446 31.2813L27.0163 26.923C27.0725 26.8785 27.1423 26.8563 27.2159 26.8563Z" fill="#4256AB"/>
<path d="M25.1401 34.7974C25.1595 34.7974 25.1789 34.7974 25.2002 34.7956C25.4774 34.7789 25.7371 34.6528 25.9135 34.4451L28.0319 31.9488C28.0649 31.9098 28.059 31.8505 28.0183 31.8189C27.9776 31.7874 27.9156 31.793 27.8827 31.8319L25.7642 34.3282C25.6208 34.497 25.4173 34.5971 25.1905 34.6101C24.9638 34.6213 24.7486 34.5471 24.5858 34.3968L21.7929 31.8134C21.7076 31.7355 21.5913 31.6965 21.475 31.7058C21.3587 31.7151 21.2521 31.7726 21.1824 31.8635L19.6706 33.8516C19.562 33.9925 19.3954 34.076 19.2132 34.0816C19.0252 34.0816 18.8604 34.0092 18.7441 33.8738L17.8177 32.7741C17.7847 32.7333 17.7227 32.7277 17.682 32.7592C17.6413 32.7908 17.6336 32.8501 17.6665 32.8891L18.593 33.9888C18.7461 34.1706 18.9728 34.2726 19.2171 34.2652C19.4613 34.2596 19.6822 34.1483 19.8256 33.9592L21.3374 31.971C21.3742 31.9228 21.4285 31.8931 21.4905 31.8876C21.5506 31.882 21.6126 31.9024 21.6553 31.9432L24.4482 34.5267C24.6343 34.701 24.8843 34.7974 25.1401 34.7974Z" fill="#263473"/>
<path d="M25.1151 33.9115C25.4019 33.9115 25.6345 33.6889 25.6345 33.4145C25.6345 33.14 25.4019 32.9174 25.1151 32.9174C24.8282 32.9174 24.5957 33.14 24.5957 33.4145C24.5957 33.6871 24.8282 33.9115 25.1151 33.9115ZM25.1151 33.101C25.2953 33.101 25.4407 33.242 25.4407 33.4126C25.4407 33.5851 25.2934 33.7242 25.1151 33.7242C24.9348 33.7242 24.7895 33.5832 24.7895 33.4126C24.7895 33.2401 24.9348 33.101 25.1151 33.101Z" fill="#263473"/>
<path d="M25.3165 37.5669C25.3688 37.5669 25.4115 37.5279 25.4134 37.4779C25.4153 37.4259 25.3727 37.3833 25.3204 37.3814C24.9851 37.3703 24.6536 37.1422 24.4947 36.8102C24.3551 36.5172 24.3396 36.1481 24.4501 35.7679C24.5548 35.4118 24.7525 35.0817 24.9502 34.7794C25.1731 34.4419 25.4754 33.9782 25.3184 33.5257C25.2719 33.3903 25.1866 33.2957 25.08 33.2586C25.0296 33.2401 24.9734 33.2661 24.956 33.3143C24.9366 33.3625 24.9637 33.4163 25.0122 33.433C25.0626 33.4497 25.1052 33.5053 25.1343 33.5851C25.2622 33.9541 24.9986 34.3566 24.7854 34.6811C24.578 34.9964 24.3726 35.3395 24.2621 35.7197C24.14 36.1407 24.1594 36.5561 24.3183 36.8881C24.5063 37.2813 24.9056 37.5558 25.3145 37.5669C25.3145 37.5669 25.3145 37.5669 25.3165 37.5669Z" fill="#263473"/>
<path d="M18.9845 33.7345C19.2713 33.7345 19.5039 33.5119 19.5039 33.2375C19.5039 32.963 19.2713 32.7404 18.9845 32.7404C18.6976 32.7404 18.465 32.963 18.465 33.2375C18.465 33.5101 18.6976 33.7345 18.9845 33.7345ZM18.9845 32.924C19.1647 32.924 19.3101 33.065 19.3101 33.2356C19.3101 33.4081 19.1628 33.5472 18.9845 33.5472C18.8062 33.5472 18.6589 33.4062 18.6589 33.2356C18.6589 33.0631 18.8062 32.924 18.9845 32.924Z" fill="#263473"/>
<path d="M19.186 39.0618C19.2383 39.0618 19.281 39.0228 19.2829 38.9728C19.2848 38.9208 19.2441 38.8782 19.1899 38.8763C18.8584 38.8615 18.527 38.5351 18.3681 38.0622C18.2246 37.6375 18.2072 37.1033 18.3196 36.5562C18.4243 36.0481 18.6258 35.5826 18.8255 35.1523C19.0426 34.6868 19.341 34.0506 19.1899 33.4423C19.1588 33.3162 19.093 33.153 18.9612 33.0863C18.9146 33.0621 18.8546 33.0807 18.8313 33.1252C18.8061 33.1716 18.8255 33.2272 18.872 33.2495C18.9243 33.2754 18.9728 33.3626 19.0019 33.4831C19.1375 34.0284 18.8662 34.6089 18.6491 35.0744C18.4437 35.5139 18.2382 35.9924 18.1297 36.5173C18.0095 37.0941 18.0289 37.6634 18.1839 38.1178C18.37 38.663 18.7693 39.0432 19.1821 39.0599C19.1821 39.0618 19.184 39.0618 19.186 39.0618Z" fill="#263473"/>
<path d="M27.1772 30.7857C27.2004 30.7857 27.2256 30.7764 27.2431 30.7597C27.6462 30.3944 28.0319 30.0049 28.3905 29.6006C28.5552 29.4151 28.7297 29.1963 28.7239 28.933C28.7219 28.8161 28.6812 28.7067 28.6425 28.6121C28.5048 28.269 27.7024 26.8261 27.4582 26.5108C27.4253 26.47 27.3652 26.4608 27.3225 26.4923C27.2799 26.522 27.2702 26.5813 27.3012 26.6221C27.5319 26.9207 28.3285 28.3525 28.4603 28.6789C28.4932 28.7623 28.5262 28.8495 28.5281 28.9367C28.5339 29.1351 28.3827 29.3206 28.2412 29.4801C27.8866 29.8788 27.5047 30.2627 27.1074 30.6243C27.0686 30.6596 27.0667 30.7189 27.1035 30.756C27.1249 30.7764 27.15 30.7857 27.1772 30.7857Z" fill="#263473"/>
<path d="M26.2972 27.3601C26.3166 27.3601 26.334 27.3546 26.3515 27.3434L27.4349 26.6443C27.4795 26.6164 27.4911 26.5571 27.4601 26.5163C27.4311 26.4736 27.369 26.4625 27.3264 26.4922L26.2429 27.1914C26.1984 27.2192 26.1867 27.2785 26.2178 27.3193C26.2352 27.3453 26.2662 27.3601 26.2972 27.3601Z" fill="#263473"/>
<path d="M17.3951 30.9419C17.4203 30.9419 17.4474 30.9326 17.4649 30.9122C17.5017 30.8751 17.4998 30.8158 17.461 30.7805L16.4493 29.8681C16.3969 29.8217 16.3446 29.7735 16.3175 29.7178C16.2632 29.6028 16.3233 29.4563 16.3969 29.3154C16.5559 29.0075 16.7342 28.7071 16.9261 28.4178C16.9551 28.3751 16.9416 28.3176 16.897 28.2898C16.8524 28.262 16.7923 28.2749 16.7633 28.3176C16.5675 28.6106 16.3853 28.9185 16.2225 29.2319C16.1333 29.4044 16.0539 29.6066 16.1411 29.792C16.1818 29.881 16.2535 29.9441 16.3155 30.0016L17.3273 30.9141C17.3467 30.9326 17.3719 30.9419 17.3951 30.9419Z" fill="#263473"/>
</g>
</g>
<path d="M9.67324 41.5562C10.2838 41.5451 10.8924 41.6897 10.8575 42.4186C10.9253 43.0788 10.3342 43.2494 9.71588 43.3051C10.1055 43.3255 10.4349 43.4571 10.4621 43.8985C10.6074 44.6849 9.88062 44.9668 9.20419 45.0132C9.85542 45.1541 9.47166 46.163 8.64406 46.4338C7.90948 46.7138 7.14972 46.9679 6.43259 47.2832C5.71159 47.6003 5.00221 47.9063 4.22112 48.0677C3.37413 48.242 2.48063 48.255 1.65303 48.0176C1.12196 47.8655 0.600592 47.5911 0.302111 47.1441C-0.240581 46.3336 0.0656509 45.1838 0.358317 44.3362C0.668427 43.4349 1.16267 42.5595 1.88367 41.8974C1.88367 41.8974 4.44789 39.5439 5.46544 38.9097C5.57397 38.841 5.68833 38.7743 5.81431 38.7465C5.94029 38.7168 6.08566 38.7316 6.1845 38.8132C6.31242 38.9189 6.3318 39.1007 6.32018 39.2639C6.28723 39.7665 6.07015 40.2339 5.85307 40.6956C6.29304 40.5695 6.76208 40.4323 7.27182 40.2747C8.37271 40.0169 10.1365 39.3789 10.4039 40.7791C10.4504 41.2687 10.0899 41.4709 9.67324 41.5562Z" fill="#E59078"/>
<path opacity="0.36" d="M5.84927 40.6926L3.45174 41.6014C3.45174 41.6014 5.75431 39.9656 6.20203 39.8395L5.84927 40.6926Z" fill="#E06A4B"/>
<path d="M8.20615 42.0385C8.21584 42.0385 8.22553 42.0366 8.23522 42.0348C8.81086 41.8642 9.73151 41.6082 9.90594 41.6045C9.96021 41.6027 10.0029 41.56 10.0009 41.5099C9.99897 41.458 9.94858 41.4209 9.90207 41.4191C9.64622 41.4246 8.32825 41.8141 8.17901 41.8586C8.12862 41.8734 8.09955 41.9254 8.11505 41.9754C8.12668 42.0144 8.16545 42.0385 8.20615 42.0385Z" fill="#DF6969"/>
<path d="M8.50068 43.7558C8.51037 43.7558 8.51812 43.7539 8.52781 43.7521L9.87097 43.3774C9.92331 43.3626 9.95238 43.3107 9.93688 43.2625C9.92137 43.2142 9.86904 43.1846 9.81671 43.1994L8.47354 43.574C8.42121 43.5889 8.39214 43.6408 8.40764 43.689C8.42121 43.7298 8.45997 43.7558 8.50068 43.7558Z" fill="#DF6969"/>
<path d="M8.47559 45.2932C8.48335 45.2932 8.49304 45.2914 8.50079 45.2895L9.22955 45.1041C9.28188 45.0911 9.3129 45.0392 9.29739 44.9909C9.28382 44.9409 9.23149 44.913 9.17916 44.926L8.4504 45.1115C8.39807 45.1245 8.36706 45.1764 8.38256 45.2246C8.39419 45.2654 8.43295 45.2932 8.47559 45.2932Z" fill="#DF6969"/>
<path d="M59.6161 38.6802L56.1323 42.8836L54.4915 44.2427L51.2715 48.1779L53.9762 50.5683C55.8175 51.9377 58.3318 51.2531 59.2672 49.1299L63.4674 41.2589C63.8186 40.554 62.8491 40.1317 62.1231 39.8904L59.6161 38.6802Z" fill="#111111"/>
<path d="M58.5838 41.2518L57.1492 40.6787C57.007 40.6083 56.9407 40.4303 57.0021 40.2794L62.8337 27.1562C62.8951 27.0053 63.0589 26.9391 63.201 27.0095L64.1756 27.4859C64.3178 27.5563 64.3841 27.7343 64.3226 27.8852L58.9511 41.1052C58.8913 41.256 58.7276 41.3222 58.5838 41.2518Z" fill="#2D3248"/>
<path d="M64.284 37.8433L64.9111 35.2357C65.0228 34.773 64.9007 34.308 64.5858 33.9961L62.7283 32.1605C62.3535 31.7891 61.7115 31.8449 61.3202 32.2792L60.9145 32.7316L62.4864 33.4833L60.2438 32.4105C59.9931 32.2905 59.6724 32.4665 59.6128 32.7567C59.5595 33.0154 59.6422 33.2696 59.8297 33.4286L61.8029 35.0958L59.2927 33.5355C59.1123 33.4243 58.8639 33.5969 58.8946 33.8135C59.0065 34.6393 59.4037 35.3708 60.0198 35.8853L61.0896 36.5209C61.0896 36.5209 59.2126 40.1317 59.3139 40.2434C59.4002 40.3372 59.506 40.4158 59.6279 40.4778C60.5943 40.9606 62.6662 41.4219 64.284 37.8433Z" fill="#FFA485"/>
<path d="M60.7175 32.59C60.7516 32.5654 60.7979 32.5582 60.8358 32.5768L62.463 33.3766C62.5165 33.4022 62.5343 33.4677 62.504 33.5221C62.4719 33.5766 62.4052 33.5989 62.3517 33.5733L60.7246 32.7735C60.6711 32.7479 60.6532 32.6824 60.6836 32.628C60.692 32.6123 60.7039 32.5995 60.7175 32.59Z" fill="#E06A4B"/>
<path d="M61.7424 34.7064C61.7821 34.6776 61.8336 34.6733 61.8699 34.7024C61.9141 34.7376 61.9183 34.8066 61.8773 34.8575C61.8773 34.8575 61.7289 35.0445 61.5595 35.252C61.5184 35.3029 61.45 35.3137 61.4058 35.2785C61.3616 35.2433 61.3607 35.174 61.4018 35.1231C61.5694 34.9175 61.716 34.7323 61.7161 34.7306C61.7249 34.7214 61.7337 34.7139 61.7424 34.7064Z" fill="#E06A4B"/>
<path d="M62.5543 33.3081C62.594 33.2793 62.6455 33.275 62.6818 33.304C62.726 33.3393 62.7303 33.4066 62.6892 33.4592C62.6892 33.4592 62.5408 33.6462 62.3714 33.8536C62.3303 33.9045 62.2619 33.9154 62.2177 33.8802C62.1735 33.845 62.1726 33.7757 62.2137 33.7248C62.3813 33.5192 62.5279 33.334 62.5279 33.334C62.5368 33.3231 62.5455 33.3156 62.5543 33.3081Z" fill="#E06A4B"/>
<path d="M60.7117 36.2121C60.7535 36.1817 60.8105 36.1804 60.85 36.2107C60.9785 36.316 61.1903 36.3959 61.192 36.3958C61.2489 36.4163 61.2724 36.4798 61.2459 36.5374C61.2193 36.595 61.1516 36.6241 61.0948 36.6036C61.0845 36.5995 60.8503 36.5113 60.696 36.3863C60.6514 36.3497 60.6487 36.2794 60.6907 36.2323C60.6977 36.2233 60.7047 36.2177 60.7117 36.2121Z" fill="#E06A4B"/>
<path d="M55.252 44.1839C55.2322 44.1849 55.2103 44.1789 55.1944 44.162C55.1593 44.1301 55.154 44.0738 55.1831 44.037L56.8034 41.9789C56.8326 41.9422 56.8852 41.9379 56.9204 41.9698C56.9555 42.0017 56.9607 42.058 56.9316 42.0947L55.3113 44.1528C55.296 44.173 55.2735 44.1829 55.252 44.1839Z" fill="#2D3248"/>
<path d="M62.6974 42.2604C62.6958 42.2605 62.6941 42.2606 62.6925 42.2607C60.1925 42.2349 58.742 40.1185 58.7274 40.0978C58.7 40.0582 58.7081 40.0027 58.7462 39.9742C58.7827 39.9475 58.8346 39.9557 58.8622 39.9971C58.8767 40.0177 60.2794 42.06 62.6913 42.0846C62.7377 42.0842 62.7752 42.1251 62.775 42.1749C62.7763 42.2211 62.7405 42.2584 62.6974 42.2604Z" fill="#2D3248"/>
<defs>
<clipPath id="clip0_3357_44753">
<rect y="0.000305176" width="60.821" height="60.821" rx="30.4105" fill="white"/>
</clipPath>
<clipPath id="clip1_3357_44753">
<rect width="35.2164" height="46.9551" fill="white" transform="translate(26.5193 13.9455) rotate(-3.33018)"/>
</clipPath>
<clipPath id="clip2_3357_44753">
<rect width="42.0218" height="54.186" fill="white" transform="matrix(-1 0 0 1 42.0217 6.60382)"/>
</clipPath>
</defs>
</svg>
