<svg width="9" height="16" viewBox="0 0 9 16" fill="none" xmlns="http://www.w3.org/2000/svg">
<path d="M0.535118 1.24222C0.622204 1.15492 0.725658 1.08565 0.839555 1.03839C0.953453 0.991125 1.07556 0.966797 1.19887 0.966797C1.32218 0.966797 1.44428 0.991125 1.55818 1.03839C1.67208 1.08565 1.77553 1.15492 1.86262 1.24222L8.09512 7.47472C8.16465 7.54411 8.21981 7.62652 8.25744 7.71725C8.29508 7.80798 8.31445 7.90525 8.31445 8.00347C8.31445 8.1017 8.29508 8.19896 8.25744 8.28969C8.21981 8.38042 8.16465 8.46284 8.09512 8.53222L1.86262 14.7647C1.49512 15.1322 0.902618 15.1322 0.535118 14.7647C0.167618 14.3972 0.167618 13.8047 0.535118 13.4372L5.96512 7.99972L0.527619 2.56222C0.16762 2.20222 0.167618 1.60222 0.535118 1.24222Z" fill="#363636"/>
</svg>
