<svg width="51" height="47" viewBox="0 0 51 47" fill="none" xmlns="http://www.w3.org/2000/svg">
  <defs>
    <clipPath id="clip0_3079_38489">
      <rect width="46.6616" height="46.6616" rx="23.3308" fill="white"/>
    </clipPath>
    <clipPath id="clip1_3079_38489">
      <rect width="27.0178" height="36.0238" fill="white" transform="translate(20.3455 10.6982) rotate(-3.33018)"/>
    </clipPath>
    <clipPath id="clip2_3079_38489">
      <rect width="32.2389" height="41.5713" fill="white" transform="matrix(-1 0 0 1 32.2389 5.06641)"/>
    </clipPath>
  </defs>
  <g clip-path="url(#clip0_3079_38489)">
    <rect width="46.6616" height="46.6616" rx="23.3308" fill="white" fill-opacity="0.8"/>
    <path opacity="0.4"
          d="M28.4442 0.144812C30.4432 2.35503 31.5253 5.54251 30.5534 8.33795C29.8774 10.2811 28.334 11.7896 27.0227 13.3947C25.7113 14.997 24.5508 16.9601 24.8642 18.9913C25.0905 20.4572 26.0508 21.6958 26.9704 22.8748C29.3929 25.9742 31.8009 29.2157 32.8512 32.9827C33.9014 36.7469 33.0949 40.9685 30.4316 43.8719C23.7008 51.2156 15.1742 45.244 13.9411 44.3321C10.1464 41.5253 5.1273 41.0622 0.404144 40.5082C-4.31901 39.9543 -9.3816 39.0281 -12.6542 35.6475C-16.1269 32.0594 -16.3271 25.5822 -12.4424 22.426C-11.0527 21.2981 -9.31487 20.6618 -7.81786 19.676C-4.84703 17.7214 -3.41964 14.2783 -2.79008 10.8294C-1.06676 1.36356 3.65059 -2.16768 8.05461 -4.00573C14.4895 -6.69322 23.8052 -4.98584 28.4442 0.144812Z"
          fill="white" fill-opacity="0.36"/>
    <path opacity="0.4"
          d="M19.2864 5.67216C17.2875 7.88237 16.2053 11.0699 17.1772 13.8653C17.8532 15.8085 19.3967 17.317 20.708 18.9221C22.0193 20.5244 23.1798 22.4874 22.8665 24.5187C22.6402 25.9846 21.6799 27.2232 20.7602 28.4022C18.3377 31.5016 15.9297 34.743 14.8795 38.5101C13.8293 42.2742 14.6358 46.4958 17.2991 49.3992C24.0299 56.7429 32.5565 50.7714 33.7895 49.8594C37.5843 47.0526 42.6034 46.5896 47.3265 46.0356C52.0497 45.4816 57.1123 44.5555 60.3848 41.1748C63.8575 37.5868 64.0577 31.1095 60.173 27.9533C58.7833 26.8255 57.0455 26.1891 55.5485 25.2033C52.5777 23.2488 51.1503 19.8056 50.5207 16.3568C48.7974 6.8909 44.0801 3.35967 39.676 1.52161C33.2412 -1.16588 23.9254 0.5415 19.2864 5.67216Z"
          fill="white" fill-opacity="0.36"/>
    <g clip-path="url(#clip1_3079_38489)">
      <path
        d="M45.7681 29.7048L43.0604 32.9265L40.7389 30.7693L37.7916 35.6713L41.3602 38.7804C42.774 39.8045 44.7168 39.2631 45.4486 37.6429L48.7266 31.63C49.0009 31.0917 48.2551 30.7793 47.6962 30.6023L45.7681 29.7048Z"
        fill="#111111"/>
      <path
        d="M44.8354 31.6361L43.7194 31.2097C43.6089 31.1571 43.5588 31.0217 43.6084 30.906L48.2982 20.8438C48.3477 20.7281 48.4764 20.6763 48.5869 20.729L49.3442 21.085C49.4546 21.1377 49.5047 21.2731 49.4552 21.3887L45.1241 31.5213C45.0759 31.6369 44.9472 31.6887 44.8354 31.6361Z"
        fill="#2D3248"/>
      <path
        d="M49.3581 29.0742L49.6424 27.0597C49.6932 26.7022 49.5698 26.3402 49.3139 26.0946L47.8039 24.649C47.4992 24.3566 47.0256 24.3922 46.7649 24.7242L46.4947 25.0703L47.7164 25.6719L45.9734 24.8133C45.7785 24.7172 45.5522 24.8499 45.5282 25.0742C45.5066 25.2741 45.5859 25.4723 45.7364 25.5978L47.3207 26.9141L45.3445 25.6743C45.2025 25.5859 45.0298 25.7168 45.0677 25.8851C45.2086 26.5268 45.5552 27.0988 46.0494 27.5051L46.8896 28.0107C46.8896 28.0107 45.7456 30.7883 45.8287 30.8761C45.8995 30.9499 45.9837 31.0121 46.0786 31.0616C46.8313 31.4475 48.4046 31.8299 49.3581 29.0742Z"
        fill="#FFA485"/>
      <path
        d="M46.5732 24.9674C46.5976 24.9485 46.6319 24.9438 46.6609 24.9596L47.9063 25.6377C47.9472 25.6595 47.963 25.7123 47.9425 25.7551C47.9207 25.798 47.8718 25.8143 47.8309 25.7925L46.5856 25.1144C46.5446 25.0926 46.5288 25.0398 46.5493 24.997C46.555 24.9846 46.5634 24.9747 46.5732 24.9674Z"
        fill="#E06A4B"/>
      <path
        d="M46.565 27.7719C46.5944 27.7487 46.6366 27.7489 46.6674 27.774C46.7684 27.8608 46.9297 27.9293 46.9309 27.9292C46.9742 27.9468 46.995 27.998 46.9785 28.0433C46.962 28.0885 46.9133 28.1102 46.8701 28.0925C46.8622 28.089 46.6839 28.0134 46.5628 27.9103C46.5278 27.8801 46.522 27.8241 46.5506 27.7875C46.5553 27.7805 46.5602 27.7762 46.565 27.7719Z"
        fill="#E06A4B"/>
      <path
        d="M42.3714 33.8958C42.3561 33.8967 42.3392 33.8923 42.327 33.8796C42.3 33.8556 42.2963 33.8129 42.3189 33.7847L43.58 32.2061C43.6026 32.1779 43.6433 32.1742 43.6703 32.1982C43.6973 32.2221 43.701 32.2649 43.6784 32.293L42.4173 33.8716C42.4054 33.8871 42.388 33.8948 42.3714 33.8958Z"
        fill="#2D3248"/>
      <path
        d="M48.0919 32.3894C48.0906 32.3895 48.0894 32.3896 48.0881 32.3896C46.1637 32.3915 45.0573 30.8056 45.0462 30.7902C45.0253 30.7605 45.0318 30.7185 45.0612 30.6967C45.0894 30.6762 45.1294 30.6819 45.1504 30.713C45.1615 30.7284 46.2314 32.2587 48.088 32.2567C48.1238 32.256 48.1524 32.2865 48.152 32.3241C48.1528 32.359 48.125 32.3875 48.0919 32.3894Z"
        fill="#2D3248"/>
      <path
        d="M40.637 29.0953L37.0773 25.9147C36.2797 25.1958 35.2917 24.8088 34.2176 25.0512L29.9518 25.098L28.6372 25.2068C28.6257 25.2061 28.6155 25.2067 28.6039 25.2047L28.5236 25.0778L26.7378 25.132C25.5055 25.2279 24.6122 25.4356 23.5865 26.1801C22.5804 26.91 22.0774 28 22.0251 29.2773C22.0182 29.4456 21.8186 32.4099 21.6986 33.8643C21.6641 34.2812 21.9916 34.6355 22.3905 34.6122C22.871 34.5843 23.5374 34.5442 24.2753 34.5012L23.0346 46.6272L39.8305 45.6499L37.6828 36.7167L40.9363 31.1189C41.3152 30.4671 41.1846 29.5844 40.637 29.0953Z"
        fill="#EB8D2E"/>
      <path
        d="M26.5012 25.1109C26.4488 25.1112 26.4246 25.1798 26.4651 25.2163L30.1056 28.5319C31.957 30.1764 34.6539 28.9023 34.8833 26.2733L34.9223 24.9659L26.5012 25.1109Z"
        fill="#111111"/>
      <path
        d="M36.8407 21.1669C36.7294 21.0552 36.6025 20.9619 36.4947 20.846C36.2683 20.604 36.1401 20.2677 36.1422 19.9306C36.1445 19.6847 36.215 19.4456 36.243 19.201C36.3049 18.6616 36.1519 18.0972 35.8277 17.6689C35.5798 17.3409 35.3344 17.1243 35.239 16.6934C35.2026 16.529 35.1851 16.3609 35.1741 16.1923C35.206 16.2361 35.2319 16.2628 35.2472 16.2619C35.2765 16.2602 35.3122 16.2581 35.3505 16.2586C35.5102 16.256 35.7254 16.261 35.8486 16.2471C35.968 16.2334 36.0885 16.217 36.2078 16.2007C36.2952 16.1875 36.4631 16.1939 36.5385 16.1479C36.5521 16.1403 36.5618 16.1317 36.5702 16.1218C36.6145 16.0709 36.5863 16.0027 36.5757 15.9094C36.5607 15.7827 36.5469 15.6559 36.5319 15.5292C36.5116 15.3572 36.4926 15.1838 36.4723 15.0117C36.2516 13.0856 34.987 11.7024 32.7427 11.9001C31.9332 11.5256 31.0235 11.3852 30.1452 11.4537C29.3508 11.5147 28.5614 11.7486 27.869 12.1568C27.8239 11.997 27.7661 11.8379 27.6892 11.6812C27.1835 10.6391 26.1784 10.1122 25.4403 10.5029C25.0632 10.7021 24.8308 11.1037 24.7592 11.5872C24.0061 11.5894 23.3509 11.9323 23.0715 12.5582C22.6441 13.5203 23.2659 14.7785 24.4602 15.371C24.8289 15.5536 25.2105 15.6509 25.5722 15.6701C25.5361 16.0173 25.5422 16.3634 25.5747 16.724C25.622 17.2517 25.6724 17.8543 25.319 18.2858C25.0802 18.5763 24.7098 18.716 24.3802 18.8976C22.9047 19.7126 22.1739 21.6578 22.7359 23.2739C22.7911 23.4305 22.8632 23.5928 23.0004 23.6869C23.1282 23.7734 23.2913 23.7854 23.4439 23.7927C25.7228 23.9058 28.0016 23.7531 30.2743 23.606C31.9967 23.4951 33.7206 23.3867 35.4463 23.3991C35.8775 23.4022 36.3091 23.4133 36.7399 23.4339C37.1028 23.4504 37.4514 23.5966 37.4599 23.1275C37.4732 22.4554 37.3242 21.6517 36.8407 21.1669Z"
        fill="#111111"/>
      <path
        d="M33.9505 23.4027C35.2826 22.9344 36.1323 21.4724 35.8982 19.911L35.3493 16.2572C35.311 16.258 35.2752 16.2588 35.2459 16.2605C35.1669 16.2664 34.7847 15.4991 34.7847 15.4991L34.607 16.1365C34.589 16.202 34.504 16.2124 34.4711 16.1538L33.8916 15.1161C33.8916 15.1161 33.8951 16.2746 33.7406 16.2581C33.6093 16.2429 33.4779 16.2251 33.3462 16.2045C32.9603 16.1424 32.5741 16.0548 32.1876 15.9389C31.8908 15.8501 31.6014 15.7327 31.32 15.6C31.2819 15.5821 31.2424 15.5629 31.2042 15.5437C30.6551 16.5894 29.7512 17.2288 28.8106 17.1076L28.2064 17.03C27.5153 17.1534 26.9911 17.7908 27.0019 18.5489L27.0027 18.5837C27.0157 19.4235 27.6806 20.1032 28.4793 20.0943L29.1592 20.087L28.3303 24.918C28.3266 24.9424 28.3255 24.9667 28.3231 24.991L27.7247 24.9936C27.6468 24.9941 27.6132 25.0981 27.6749 25.1482L30.4228 27.4092C31.9243 28.6445 34.1248 27.6732 34.3226 25.6879L34.3836 25.0666C34.3883 25.0153 34.3499 24.9706 34.3 24.9708L33.6902 24.9727C33.7478 24.8203 33.7883 24.6595 33.8105 24.4917L33.9505 23.4027Z"
        fill="#FFA485"/>
      <path
        d="M31.5021 26.1331C29.7498 26.2351 28.3863 24.824 28.3673 24.8036C28.3482 24.7845 28.3489 24.7523 28.367 24.7324C28.3863 24.7125 28.4157 24.7135 28.4347 24.7325C28.4619 24.7605 31.1245 27.5112 33.7608 24.9315C33.7802 24.9129 33.8109 24.9138 33.8287 24.9343C33.8466 24.9547 33.8459 24.987 33.8265 25.0056C33.0304 25.785 32.2336 26.0905 31.5021 26.1331Z"
        fill="#111111"/>
      <path
        d="M31.9255 26.9941C31.6592 27.0096 31.4293 26.7947 31.413 26.515C31.3967 26.2353 31.6001 25.9952 31.8665 25.9797C32.1329 25.9642 32.3627 26.1791 32.379 26.4588C32.3953 26.7385 32.1919 26.9786 31.9255 26.9941ZM31.8723 26.0801C31.6582 26.0925 31.4955 26.2846 31.5086 26.5094C31.5217 26.7342 31.7056 26.9062 31.9197 26.8937C32.1338 26.8812 32.2965 26.6892 32.2834 26.4643C32.2704 26.2395 32.0864 26.0676 31.8723 26.0801Z"
        fill="white"/>
      <path
        d="M28.3012 19.0321C28.2782 19.0334 28.2559 19.0226 28.2431 19.0006C28.2246 18.9694 28.2337 18.9272 28.2633 18.9081L28.6797 18.6368L28.2323 18.0908C28.209 18.0626 28.2117 18.0208 28.2384 17.9965C28.2651 17.9721 28.305 17.9765 28.3283 18.0033L28.8251 18.6082C28.8375 18.6236 28.8425 18.6434 28.8398 18.6624C28.837 18.6813 28.8266 18.6994 28.8105 18.7084L28.33 19.021C28.3215 19.0296 28.3114 19.0315 28.3012 19.0321Z"
        fill="#E06A4B"/>
      <path
        d="M35.489 18.2016C35.5137 18.3626 35.41 18.5136 35.2554 18.5387C35.1021 18.5638 34.9576 18.454 34.9328 18.2917C34.9081 18.1306 35.0119 17.9796 35.1664 17.9545C35.3197 17.9294 35.4643 18.0405 35.489 18.2016Z"
        fill="#111111"/>
      <path
        d="M33.405 18.2499C33.3885 18.4281 33.2388 18.5577 33.0689 18.5394C32.899 18.5211 32.7748 18.3631 32.7912 18.1849C32.8077 18.0067 32.9575 17.8772 33.1273 17.8955C33.2972 17.9138 33.4215 18.0717 33.405 18.2499Z"
        fill="#111111"/>
      <path
        d="M33.7723 22.0714C33.7581 22.0752 33.7422 22.0731 33.7289 22.0664C33.7142 22.0597 33.3698 21.8898 33.1063 22.1704C33.0806 22.1976 33.0389 22.197 33.013 22.1713C32.9871 22.1442 32.986 22.1006 33.0116 22.0735C33.3429 21.7226 33.7819 21.9412 33.7863 21.9425C33.8188 21.9587 33.8327 22.0001 33.8175 22.0341C33.8071 22.0528 33.7906 22.0658 33.7723 22.0714Z"
        fill="#E06A4B"/>
      <path
        d="M31.8161 17.007C31.9255 17.0396 32.0579 17.0077 32.1882 16.984C32.3184 16.9577 32.45 16.9339 32.5641 16.9178C32.6796 16.9017 32.8118 16.8887 32.9442 16.8783C33.0751 16.8653 33.2117 16.86 33.3079 16.7994C33.4004 16.7416 33.4248 16.6113 33.2876 16.4729C33.1583 16.3381 32.8493 16.2151 32.4687 16.2668C32.0895 16.3211 31.8289 16.5229 31.7426 16.6877C31.6502 16.8582 31.7108 16.9769 31.8161 17.007Z"
        fill="#111111"/>
      <path
        d="M35.8104 17.0006C35.7324 17.0226 35.6437 16.9928 35.5554 16.9697C35.4669 16.944 35.3774 16.9224 35.2997 16.9054C35.2207 16.8885 35.1304 16.8736 35.0401 16.8614C34.9498 16.8465 34.8559 16.8386 34.7929 16.7872C34.7312 16.7384 34.7214 16.6356 34.824 16.5316C34.9204 16.4307 35.1392 16.3441 35.3994 16.3988C35.6583 16.4535 35.8293 16.6222 35.8791 16.7535C35.9331 16.89 35.8847 16.9815 35.8104 17.0006Z"
        fill="#111111"/>
      <path d="M32.7741 18.5483C32.7741 18.5483 33.0527 18.3481 33.3156 18.6027L32.7741 18.5483Z" fill="#FFA485"/>
      <path
        d="M33.3194 18.6705C33.3028 18.6715 33.2858 18.6657 33.2723 18.6531C33.0501 18.4378 32.8203 18.5988 32.8105 18.6061C32.781 18.6266 32.7422 18.6195 32.7213 18.5885C32.7015 18.5574 32.7081 18.5168 32.7375 18.4949C32.848 18.4146 33.1215 18.3249 33.3587 18.5554C33.3845 18.5808 33.387 18.6236 33.363 18.6505C33.3508 18.662 33.3359 18.6695 33.3194 18.6705Z"
        fill="#E06A4B"/>
      <path d="M35.0482 18.4887C35.0482 18.4887 35.2204 18.3726 35.3673 18.5454L35.0482 18.4887Z" fill="#FFA485"/>
      <path
        d="M35.371 18.6102C35.3519 18.6113 35.3335 18.6043 35.3198 18.5876C35.2141 18.4635 35.0955 18.5349 35.0832 18.5437C35.0536 18.5628 35.0147 18.553 34.995 18.5219C34.9766 18.4908 34.9844 18.4501 35.0139 18.4295C35.089 18.3795 35.2702 18.3287 35.4144 18.4989C35.4377 18.5271 35.4351 18.5688 35.4096 18.5932C35.3987 18.6032 35.385 18.6094 35.371 18.6102Z"
        fill="#E06A4B"/>
      <path
        d="M33.9459 23.4368C33.9459 23.4368 31.2907 23.5819 30.7833 22.5091C30.2771 21.4362 30.7833 22.5091 30.7833 22.5091C30.7833 22.5091 30.6931 24.2773 33.7444 25.0061L33.9459 23.4368Z"
        fill="#E06A4B"/>
      <path
        d="M34.4358 17.5307L34.3746 18.2151C34.3514 18.4756 34.5337 18.708 34.7834 18.7351C34.9081 18.748 34.9993 18.8649 34.9877 18.9944C34.9496 19.4169 34.5929 19.725 34.1914 19.6826L33.9277 19.655"
        fill="#FFA485"/>
      <path
        d="M34.3071 19.7531C34.2663 19.7555 34.2253 19.7552 34.1842 19.7508L33.9204 19.7232C33.8857 19.7199 33.8595 19.6865 33.8624 19.6501C33.8654 19.6136 33.8958 19.5864 33.9318 19.5896L34.1956 19.6172C34.5622 19.655 34.8886 19.3742 34.9225 18.9895C34.9311 18.8964 34.8649 18.8129 34.7761 18.8033C34.6384 18.7885 34.5142 18.7192 34.4271 18.6075C34.3388 18.4958 34.2973 18.3545 34.3106 18.2101L34.3718 17.5258C34.3748 17.4893 34.4066 17.4633 34.4412 17.4653C34.4759 17.4687 34.5022 17.5021 34.4992 17.5385L34.438 18.2228C34.4276 18.3308 34.4594 18.4377 34.5256 18.5212C34.592 18.6059 34.6858 18.6582 34.7887 18.6683C34.9482 18.6846 35.0656 18.8348 35.0497 19.0009C35.0125 19.4166 34.6907 19.7308 34.3071 19.7531Z"
        fill="#E06A4B"/>
      <path opacity="0.8"
            d="M32.9784 20.2661C33.073 20.1918 33.2033 20.2017 33.2952 20.28C33.4629 20.4227 33.8218 20.673 34.3191 20.6967C34.4416 20.7031 34.5117 20.8474 34.4672 20.966C34.368 21.2268 34.0847 21.6359 33.4287 21.3597C32.6304 21.0216 32.7339 20.4598 32.9784 20.2661Z"
            fill="white"/>
      <path
        d="M28.2619 20.6857C28.2326 20.6874 28.2044 20.6863 28.1748 20.684C28.0128 20.6693 27.865 20.5893 27.7589 20.4585C27.6528 20.3277 27.6022 20.1615 27.6154 19.9915C27.6285 19.8216 27.7039 19.6668 27.828 19.5575C27.952 19.4469 28.11 19.3948 28.272 19.4095C28.434 19.4242 28.5819 19.5043 28.688 19.635C28.794 19.7658 28.8446 19.9321 28.8315 20.102C28.8184 20.272 28.743 20.4267 28.6189 20.536C28.5167 20.6265 28.3931 20.678 28.2619 20.6857ZM28.1928 19.5417C28.0895 19.5477 27.9909 19.5883 27.9106 19.6601C27.8121 19.7464 27.7528 19.8694 27.7426 20.0029C27.7326 20.1378 27.7721 20.2684 27.8562 20.3723C27.9402 20.4761 28.0564 20.5392 28.185 20.5505C28.3135 20.5618 28.4377 20.521 28.5362 20.4334C28.6348 20.3471 28.6941 20.2241 28.7042 20.0906C28.7143 19.9558 28.6747 19.8251 28.5907 19.7213C28.5066 19.6174 28.3904 19.5543 28.2619 19.543C28.2387 19.5403 28.2157 19.5403 28.1928 19.5417Z"
        fill="white"/>
      <path
        d="M37.6884 37.0321C37.6795 37.0326 37.6705 37.0318 37.6626 37.0282C37.6299 37.0154 37.6123 36.9761 37.6244 36.9419L38.185 35.3463C38.592 34.188 38.5493 32.927 38.0653 31.7963L37.1611 29.6845C37.1464 29.6504 37.1607 29.6106 37.193 29.5953C37.2255 29.5813 37.2634 29.5953 37.2769 29.6294L38.1811 31.7413C38.6797 32.9046 38.7232 34.2018 38.304 35.3931L37.7434 36.9886C37.736 37.0146 37.7139 37.0306 37.6884 37.0321Z"
        fill="#111111"/>
      <path
        d="M33.1864 33.5016L34.3308 31.676C34.6959 31.0949 35.21 30.6339 35.8148 30.3477L37.7749 29.4199C38.0561 29.2867 38.2972 28.7942 38.6019 28.8436L43.268 28.8434C43.3587 28.8409 43.41 29.2944 43.3702 29.38C43.3691 29.3828 43.3679 29.3842 43.3668 29.3869C43.265 29.6144 43.0538 29.7663 42.816 29.7882L40.21 29.9536L40.2963 29.9647C40.5321 29.9953 40.73 30.1664 40.8051 30.4024L40.9382 30.8216L41.0577 30.9624C41.2211 31.1556 41.2639 31.4297 41.1677 31.6663L40.2382 33.9547C40.1811 34.0949 40.0234 34.1538 39.894 34.0821C39.5756 33.9073 39.4298 33.5116 39.5538 33.1593L39.8225 32.3931L38.5828 33.8993C38.3786 34.1475 38.1212 34.3397 37.8317 34.4626L36.8957 34.8581L34.6927 36.2915L33.1864 33.5016Z"
        fill="#FFA485"/>
      <path
        d="M40.3362 30.1798C40.3282 30.1848 40.3189 30.1898 40.3091 30.1881L38.9317 30.1695C38.8945 30.1695 38.8627 30.1197 38.8605 30.0593C38.8584 29.9988 38.8872 29.95 38.9245 29.9501L40.3019 29.9687C40.3391 29.9687 40.3709 30.0185 40.373 30.0789C40.3743 30.1237 40.3586 30.1628 40.3362 30.1798Z"
        fill="#E06A4B"/>
      <path
        d="M40.9215 30.9753C40.9153 30.9802 40.9078 30.9829 40.9002 30.9833L39.3466 31.1167C39.3122 31.1187 39.2814 31.073 39.2766 31.0121C39.273 30.9512 39.2969 30.9 39.3312 30.8958L40.8848 30.7623C40.9192 30.7603 40.95 30.8061 40.9548 30.8669C40.9576 30.9143 40.9433 30.9559 40.9215 30.9753Z"
        fill="#E06A4B"/>
      <path
        d="M39.8068 32.4578C39.7835 32.4669 39.7538 32.4687 39.7275 32.4593C39.6789 32.4433 39.6565 32.3994 39.678 32.3591L39.9655 31.8425C39.9871 31.8038 40.0435 31.7848 40.0941 31.8007C40.1427 31.8166 40.1651 31.8606 40.1436 31.9009L39.856 32.4174C39.8452 32.4352 39.8281 32.4487 39.8068 32.4578Z"
        fill="#E06A4B"/>
      <path
        d="M33.078 32.5194L29.2147 35.5707L29.1061 34.2759L22.7467 34.5801L23.7831 40.1728C24.4899 43.2213 28.0681 44.3464 30.2322 42.201L36.9784 35.9071C37.2574 35.6465 37.2329 35.182 36.9279 34.9513L33.7017 32.5127C33.5157 32.3718 33.2613 32.3731 33.078 32.5194Z"
        fill="#111111"/>
      <path
        d="M36.5482 36.3802C36.5342 36.381 36.5186 36.3765 36.5065 36.3665L32.3239 33.1389C32.2957 33.1164 32.2895 33.0751 32.3095 33.0457C32.3308 33.0163 32.3701 33.01 32.3981 33.0312L36.5808 36.2588C36.609 36.2813 36.6152 36.3226 36.5952 36.3519C36.5846 36.3687 36.5661 36.3791 36.5482 36.3802Z"
        fill="#2D3248"/>
      <path
        d="M35.9419 36.9278C35.9279 36.9286 35.9123 36.9241 35.9002 36.9141L34.3793 35.7404C34.3511 35.7179 34.3449 35.6767 34.3649 35.6473C34.3862 35.6179 34.4255 35.6115 34.4536 35.6327L35.9745 36.8064C36.0027 36.8289 36.0089 36.8702 35.9889 36.8995C35.9784 36.9176 35.9611 36.9267 35.9419 36.9278Z"
        fill="#2D3248"/>
      <path
        d="M28.0845 34.4522C28.0501 34.4543 28.019 34.4265 28.0169 34.389C28.0147 34.3516 28.041 34.3205 28.0767 34.3184L29.6396 34.2127C29.9274 34.1933 30.1488 33.932 30.1338 33.6294L30.1626 31.3129C30.163 31.2752 30.192 31.2454 30.2279 31.2473C30.2637 31.2479 30.2911 31.2785 30.2907 31.3162L30.2615 33.6274C30.2805 33.9982 30.0052 34.3217 29.6486 34.3465L28.0845 34.4522Z"
        fill="#111111"/>
      <path
        d="M27.9741 36.6434C27.9537 36.6446 27.9327 36.6351 27.9201 36.617C27.8992 36.5874 27.9032 36.5455 27.9313 36.5237L29.7798 35.0399C29.8079 35.0181 29.8479 35.0238 29.8687 35.0521C29.8896 35.0818 29.8857 35.1237 29.8575 35.1454L28.0091 36.6293C27.9981 36.638 27.9869 36.6427 27.9741 36.6434Z"
        fill="#2D3248"/>
    </g>
    <g clip-path="url(#clip2_3079_38489)">
      <path
        d="M7.75465 37.9458L4.13239 36.2483L7.10336 31.1005L4.90116 30.6423L9.23567 23.8767L9.23715 23.9123C10.2304 22.6104 11.8379 21.768 13.6445 21.768H21.1106L21.0927 21.5518L24.0102 21.5816C26.7254 21.6314 29.1714 23.3132 29.9223 25.8103C29.9521 25.9114 29.9803 26.0124 30.0056 26.1162L31.6874 34.9692L26.6822 34.5793L27.6622 46.5839H7.41562L7.75465 37.9458Z"
        fill="#5C69AB"/>
      <path
        d="M7.67729 40.0112C7.71446 40.0112 7.74569 39.9856 7.75015 39.95L9.60736 27.1771C9.61331 27.1387 9.58506 27.1017 9.54342 27.0974C9.50328 27.0917 9.46462 27.1188 9.46015 27.1586L7.60294 39.9301C7.59699 39.9685 7.62524 40.0055 7.66688 40.0097C7.66985 40.0097 7.67283 40.0112 7.67729 40.0112Z"
        fill="#2D3248"/>
      <path d="M13.6981 24.0747L11.9331 46.6382L21.2786 46.5841L20.1188 24.3436L21.3351 23.0986L13.6981 24.0747Z"
            fill="#5FC0C7"/>
      <path
        d="M4.62693 36.0248H9.3146C9.94423 36.0248 10.4561 35.4942 10.4561 34.8415V25.7097C10.4561 25.057 9.94423 24.5264 9.3146 24.5264H4.62693C3.9973 24.5264 3.48548 25.057 3.48548 25.7097V34.8415C3.48548 35.4963 3.9973 36.0248 4.62693 36.0248Z"
        fill="#111111"/>
      <path
        d="M7.42167 31.8832C7.89006 31.8747 8.35697 31.9857 8.3302 32.5448C8.38225 33.0514 7.92872 33.1823 7.45438 33.225C7.75326 33.2406 8.00604 33.3416 8.02686 33.6803C8.13838 34.2836 7.58077 34.4998 7.06182 34.5354C7.56144 34.6435 7.26702 35.4176 6.63208 35.6253C6.06852 35.8401 5.48563 36.0351 4.93546 36.277C4.3823 36.5203 3.83807 36.755 3.23882 36.8788C2.58902 37.0126 1.90353 37.0225 1.26859 36.8404C0.861163 36.7237 0.461169 36.5132 0.232176 36.1702C-0.184175 35.5485 0.050765 34.6663 0.275297 34.0161C0.513212 33.3246 0.89239 32.653 1.44554 32.145C1.44554 32.145 3.4128 30.3394 4.19346 29.8528C4.27673 29.8002 4.36446 29.749 4.46111 29.7276C4.55777 29.7048 4.66929 29.7162 4.74512 29.7788C4.84326 29.8599 4.85813 29.9994 4.84921 30.1246C4.82393 30.5102 4.65739 30.8687 4.49085 31.223C4.82839 31.1263 5.18824 31.021 5.57931 30.9C6.42391 30.7023 7.77705 30.2128 7.98225 31.2871C8.01794 31.6627 7.74136 31.8178 7.42167 31.8832Z"
        fill="#E59078"/>
      <path opacity="0.36"
            d="M4.48792 31.2209L2.64853 31.9181C2.64853 31.9181 4.41505 30.6632 4.75854 30.5664L4.48792 31.2209Z"
            fill="#E06A4B"/>
      <path
        d="M6.29605 32.2535C6.30348 32.2535 6.31092 32.2521 6.31835 32.2507C6.75998 32.1198 7.4663 31.9234 7.60013 31.9206C7.64176 31.9192 7.67447 31.8865 7.67299 31.848C7.6715 31.8082 7.63284 31.7797 7.59715 31.7783C7.40087 31.7826 6.38973 32.0814 6.27523 32.1155C6.23657 32.1269 6.21427 32.1668 6.22616 32.2052C6.23508 32.235 6.26482 32.2535 6.29605 32.2535Z"
        fill="#DF6969"/>
      <path
        d="M6.5221 33.5714C6.52953 33.5714 6.53548 33.57 6.54291 33.5686L7.57338 33.2811C7.61353 33.2698 7.63584 33.2299 7.62394 33.1929C7.61205 33.1559 7.5719 33.1332 7.53175 33.1445L6.50128 33.432C6.46113 33.4433 6.43883 33.4832 6.45072 33.5202C6.46113 33.5515 6.49087 33.5714 6.5221 33.5714Z"
        fill="#DF6969"/>
      <path
        d="M6.50274 34.75C6.50869 34.75 6.51613 34.7485 6.52207 34.7471L7.08118 34.6048C7.12132 34.5949 7.14512 34.555 7.13322 34.5181C7.12281 34.4796 7.08266 34.4583 7.04252 34.4683L6.48341 34.6105C6.44326 34.6205 6.41947 34.6603 6.43137 34.6973C6.44029 34.7286 6.47003 34.75 6.50274 34.75Z"
        fill="#DF6969"/>
      <path
        d="M5.29383 30.8334C5.56595 29.6155 7.09306 30.2173 8.05067 30.4692C8.49379 30.62 8.90122 30.7523 9.28188 30.8733C9.10493 30.4635 8.92649 30.048 8.91162 29.6083C8.90716 29.4661 8.92798 29.3067 9.04248 29.2171C9.1317 29.1488 9.25809 29.1388 9.36812 29.1673C9.47816 29.1957 9.57481 29.2569 9.66849 29.3195C10.5428 29.8986 12.7257 32.0243 12.7257 32.0243C14.0075 33.5325 14.6632 35.7536 13.8989 36.8634C13.832 36.9616 13.7294 37.0313 13.6119 37.064C13.0528 37.2262 11.3086 37.7755 10.4938 37.4141L6.67969 35.8319C5.96297 35.5743 5.65368 34.6808 6.22765 34.5741C5.63584 34.5172 5.00834 34.2525 5.15555 33.5667C5.19123 33.1797 5.48416 33.073 5.82617 33.0644C5.2864 32.999 4.77339 32.8368 4.85072 32.2591C4.84031 31.6217 5.37562 31.5093 5.91092 31.5334C5.54662 31.4509 5.23733 31.2645 5.29383 30.8334Z"
        fill="#FFA485"/>
      <path opacity="0.36"
            d="M9.28186 30.8747L11.3577 31.7298C11.3577 31.7298 9.38595 30.2401 8.99636 30.1191L9.28186 30.8747Z"
            fill="#E06A4B"/>
      <path
        d="M7.18527 31.984C7.2165 31.984 7.24475 31.9655 7.25516 31.9356C7.26854 31.8986 7.24772 31.8574 7.20906 31.846C7.0797 31.8033 5.93771 31.4305 5.71467 31.4191C5.66857 31.4163 5.63884 31.4476 5.63586 31.486C5.63437 31.5258 5.6656 31.5586 5.70575 31.5614C5.87675 31.5699 6.81353 31.8673 7.15999 31.9812C7.16891 31.984 7.17635 31.984 7.18527 31.984Z"
        fill="#DF6969"/>
      <path
        d="M6.88049 33.4816C6.91171 33.4816 6.94145 33.4631 6.95186 33.4318C6.96376 33.3948 6.94294 33.3549 6.90428 33.3421L5.7385 32.9807C5.69836 32.9694 5.65821 32.9893 5.64483 33.0263C5.63144 33.0633 5.65375 33.1031 5.69241 33.1159L6.85818 33.4773C6.86562 33.4801 6.87305 33.4816 6.88049 33.4816Z"
        fill="#DF6969"/>
      <path
        d="M6.86116 34.83C6.89387 34.83 6.92213 34.8101 6.93253 34.7788C6.94443 34.7418 6.92213 34.702 6.88198 34.6906L6.25001 34.5099C6.20987 34.4985 6.16972 34.5199 6.15782 34.5583C6.14593 34.5953 6.16823 34.6351 6.20838 34.6465L6.84034 34.8272C6.84629 34.8286 6.85373 34.83 6.86116 34.83Z"
        fill="#DF6969"/>
      <path
        d="M23.1835 34.1759L22.9278 34.8688L15.2803 32.8029L14.3747 32.5581C14.1175 32.4884 13.8469 32.615 13.7457 32.8527L11.6893 37.6775C11.5525 37.9977 11.7175 38.3619 12.0536 38.4871L20.9679 41.7981L24.4356 43.0872C25.4735 43.3618 26.4742 43.4329 27.3931 43.3333C30.2749 43.0217 32.3537 41.0411 32.2317 38.4601L31.6027 34.442L23.1835 34.1759Z"
        fill="#5C69AB"/>
      <path
        d="M14.3214 35.7003C14.3526 35.7003 14.3809 35.6818 14.3913 35.652L15.3593 32.8845C15.3727 32.8475 15.3518 32.8063 15.3132 32.7949C15.2745 32.7821 15.2314 32.802 15.2195 32.839L14.2515 35.6064C14.2381 35.6434 14.2589 35.6847 14.2976 35.6961C14.3065 35.6989 14.3139 35.7003 14.3214 35.7003Z"
        fill="#2D3248"/>
      <path
        d="M12.7763 37.7432C12.9577 37.7432 13.1035 37.6024 13.1035 37.4302C13.1035 37.2566 12.9562 37.1172 12.7763 37.1172C12.5949 37.1172 12.4492 37.2581 12.4492 37.4302C12.4477 37.6024 12.5949 37.7432 12.7763 37.7432ZM12.7763 37.258C12.8745 37.258 12.9548 37.3349 12.9548 37.4288C12.9548 37.5227 12.8745 37.5995 12.7763 37.5995C12.6782 37.5995 12.5979 37.5227 12.5979 37.4288C12.5964 37.3349 12.6767 37.258 12.7763 37.258Z"
        fill="#2D3248"/>
      <path
        d="M26.2914 35.8036C26.3241 35.8036 26.3539 35.7822 26.3628 35.7509C26.3732 35.7125 26.3509 35.6741 26.3108 35.6627C26.2498 35.6471 20.2291 34.0634 20.1577 34.0449C20.1176 34.0336 20.0774 34.0563 20.0655 34.0933C20.0536 34.1317 20.0774 34.1701 20.1161 34.1815C20.1874 34.2014 26.0223 35.7353 26.2706 35.8007C26.2781 35.8036 26.284 35.8036 26.2914 35.8036Z"
        fill="#2D3248"/>
      <path
        d="M24.2053 35.2595C24.2068 35.2595 24.2068 35.2595 24.2082 35.2595C24.2499 35.2581 24.2811 35.224 24.2796 35.1855L24.0447 29.7119C24.0432 29.672 24.009 29.6436 23.9673 29.6436C23.9257 29.645 23.8945 29.6791 23.896 29.7175L24.1309 35.1912C24.1324 35.2296 24.1651 35.2595 24.2053 35.2595Z"
        fill="#2D3248"/>
      <path
        d="M12.7764 38.8248C12.8061 38.8248 12.8343 38.8078 12.8462 38.7793C12.8611 38.7423 12.8418 38.7011 12.8031 38.6868L12.0135 38.398C11.8886 38.3525 11.7905 38.2628 11.737 38.1447C11.6834 38.0266 11.682 37.8972 11.731 37.7776L12.0031 37.1317C12.018 37.0947 12.0002 37.0534 11.9615 37.0392C11.9243 37.0249 11.8797 37.042 11.8649 37.079L11.5927 37.725C11.5273 37.8801 11.5303 38.0494 11.6002 38.2016C11.6701 38.3539 11.7979 38.4706 11.96 38.5303L12.7496 38.8192C12.7585 38.8234 12.7674 38.8248 12.7764 38.8248Z"
        fill="#2D3248"/>
      <path
        d="M26.5114 43.4608C26.8102 43.4608 27.1091 43.4409 27.405 43.4011C27.4452 43.3954 27.4734 43.3598 27.4675 43.32C27.4615 43.2815 27.4243 43.2545 27.3827 43.2602C26.3359 43.4025 25.2593 43.2858 24.272 42.9244L20.4386 41.5243C20.3999 41.5101 20.3568 41.5286 20.3419 41.5656C20.3271 41.6026 20.3464 41.6438 20.385 41.6581L24.2184 43.0582C24.953 43.3256 25.7307 43.4608 26.5114 43.4608Z"
        fill="#2D3248"/>
      <path
        d="M9.20886 7.58769L9.82 7.69582C9.89733 7.71005 9.96721 7.64887 9.95978 7.57488L9.89733 6.82504C9.86461 6.43661 10.278 6.15204 10.6512 6.30997C10.9456 6.43518 11.2891 6.56466 11.6282 6.65715C11.9791 6.1122 12.6051 5.74795 13.3233 5.74795C13.3843 5.74795 13.4452 5.75079 13.5062 5.75649C14.0489 5.32536 14.7463 5.06641 15.5077 5.06641H16.7285C18.2199 5.06641 19.4481 6.13069 19.637 7.50801C19.6593 7.5137 19.6831 7.51939 19.7054 7.5265C20.6362 7.82246 21.1343 8.79426 20.9128 9.70915L20.4414 11.6556C20.3388 11.6442 20.2332 11.6414 20.1277 11.6499L19.115 11.7282L18.0875 11.8064L17.8779 9.30791H16.8534C16.1753 10.0378 14.7523 11.0367 12.1412 10.8147C11.53 10.7621 11.0126 10.6468 10.5754 10.4889C9.29511 10.0293 8.68991 9.20546 8.40442 8.52392C8.19327 8.01739 8.64976 7.48809 9.20886 7.58769Z"
        fill="#111111"/>
      <path
        d="M17.3233 8.68424C17.353 8.63301 17.4155 8.61309 17.472 8.63444C17.5582 8.66859 17.692 8.71554 17.8318 8.74826L18.0876 11.8045L19.1151 11.7263L20.1277 11.648C20.2348 11.6395 20.3388 11.6423 20.4414 11.6537C21.1894 11.7377 21.802 12.3196 21.8645 13.0638L21.8957 13.4351C21.9671 14.2817 21.3009 15.0301 20.4162 15.097L19.8467 15.1411L20.7968 20.7827C21.0481 22.2753 19.9879 23.681 18.4266 23.9215L17.7441 24.0268C16.1843 24.2672 14.7151 23.2528 14.4638 21.7588L14.0876 19.5206L13.9553 19.5306C12.5159 19.6416 11.255 18.6143 11.1405 17.237L10.5754 10.4856C11.0141 10.6435 11.5301 10.7587 12.1412 10.8114C15.7114 11.1159 17.0631 9.1367 17.3233 8.68424Z"
        fill="#FFA485"/>
      <path
        d="M20.4028 13.9492C20.4296 13.9492 20.4549 13.9364 20.4683 13.9122C20.4876 13.8781 20.4742 13.834 20.4385 13.8155L19.8943 13.5323L20.4162 12.8792C20.4415 12.8479 20.4355 12.8038 20.4028 12.7796C20.3701 12.7554 20.324 12.7611 20.2987 12.7924L19.7248 13.5124C19.7114 13.5295 19.7069 13.5494 19.7114 13.5707C19.7159 13.5907 19.7292 13.6091 19.7486 13.6177L20.3686 13.9407C20.379 13.9464 20.3909 13.9492 20.4028 13.9492Z"
        fill="#E06A4B"/>
      <path
        d="M13.6473 14.7241C13.6651 14.7241 13.683 14.7241 13.7008 14.7227L14.1826 14.6857C14.2243 14.6828 14.254 14.6487 14.251 14.6088C14.248 14.569 14.2109 14.5405 14.1707 14.5434L13.6889 14.5804C13.5388 14.5932 13.3901 14.5391 13.283 14.4353C13.1759 14.3314 13.1239 14.1891 13.1373 14.044L13.2994 12.4034C13.3038 12.365 13.2726 12.3294 13.2324 12.3266C13.1938 12.3223 13.1551 12.3508 13.1521 12.3906L12.9901 14.0312C12.9722 14.2176 13.0406 14.4011 13.1774 14.5349C13.3023 14.6572 13.4704 14.7241 13.6473 14.7241Z"
        fill="#E06A4B"/>
      <path
        d="M11.695 13.4606C11.6757 13.6455 11.817 13.8106 12.0103 13.8291C12.2036 13.8476 12.3761 13.7124 12.3954 13.5274C12.4147 13.3425 12.2735 13.1774 12.0801 13.1589C11.8868 13.1404 11.7144 13.2756 11.695 13.4606Z"
        fill="#111111"/>
      <path
        d="M14.3142 17.6667C14.345 17.6721 14.3758 17.6667 14.4066 17.6533C14.4346 17.6372 15.1377 17.2781 15.7204 17.782C15.7764 17.8302 15.8633 17.8275 15.9137 17.7713C15.9641 17.7176 15.9613 17.6346 15.9025 17.5863C15.1686 16.9537 14.2778 17.4174 14.2694 17.4228C14.2021 17.4576 14.1797 17.5381 14.2161 17.6024C14.2385 17.6372 14.275 17.6587 14.3142 17.6667Z"
        fill="#E06A4B"/>
      <path
        d="M16.7462 11.9066C16.5678 11.965 16.3462 11.928 16.1306 11.9038C15.9135 11.8753 15.6949 11.8526 15.5031 11.8383C15.3113 11.8241 15.0912 11.8156 14.8726 11.8113C14.6555 11.8028 14.4295 11.807 14.2644 11.7231C14.1053 11.6448 14.0548 11.4499 14.2674 11.2293C14.4682 11.0145 14.9663 10.8025 15.5997 10.848C16.2317 10.8964 16.6823 11.1781 16.8399 11.4186C17.0049 11.6676 16.9172 11.8526 16.7462 11.9066Z"
        fill="#111111"/>
      <path
        d="M10.7849 12.3845C10.9143 12.4101 11.06 12.3574 11.2042 12.3162C11.3485 12.2706 11.4927 12.228 11.6221 12.1967C11.75 12.1654 11.8987 12.1341 12.0474 12.107C12.1946 12.0771 12.3492 12.0558 12.4474 11.9733C12.544 11.895 12.55 11.7385 12.3715 11.5919C12.2035 11.4482 11.8332 11.3373 11.408 11.4411C10.9842 11.5464 10.721 11.8139 10.6496 12.0174C10.5723 12.228 10.66 12.3603 10.7849 12.3845Z"
        fill="#111111"/>
      <path
        d="M14.7536 13.3435C14.7863 13.5441 14.9826 13.6821 15.1922 13.6494C15.4019 13.6181 15.5461 13.4303 15.5119 13.2297C15.4792 13.029 15.283 12.891 15.0733 12.9237C14.8636 12.9551 14.7209 13.1429 14.7536 13.3435Z"
        fill="#111111"/>
      <path d="M15.562 13.6381C15.562 13.6381 15.2006 13.429 14.8913 13.7349L15.562 13.6381Z" fill="#FFA485"/>
      <path
        d="M14.8905 13.8081C14.9099 13.8081 14.9292 13.801 14.9441 13.7868C15.2088 13.525 15.5091 13.6943 15.5225 13.7014C15.5582 13.7213 15.6028 13.7114 15.6251 13.6772C15.6459 13.6431 15.6355 13.6004 15.5998 13.579C15.4571 13.4965 15.1151 13.4126 14.837 13.6872C14.8088 13.7156 14.8088 13.7612 14.8385 13.7882C14.8534 13.8024 14.8712 13.8081 14.8905 13.8081Z"
        fill="#E06A4B"/>
      <path d="M12.3492 13.8636C12.3492 13.8636 12.028 13.754 11.7544 13.9148L12.3492 13.8636Z" fill="#FFA485"/>
      <path
        d="M11.7546 13.9846C11.768 13.9846 11.7814 13.9818 11.7933 13.9747C12.0327 13.8338 12.3226 13.9291 12.3256 13.9291C12.3643 13.9419 12.4059 13.922 12.4208 13.885C12.4341 13.848 12.4148 13.8082 12.3761 13.794C12.3613 13.7897 12.0178 13.6759 11.7174 13.8523C11.6817 13.8722 11.6713 13.9163 11.6921 13.9505C11.7055 13.9718 11.7293 13.9846 11.7546 13.9846Z"
        fill="#E06A4B"/>
      <path opacity="0.9"
            d="M15.9547 15.1003C15.825 15.0308 15.6613 15.0633 15.5594 15.1668C15.3741 15.3574 14.9664 15.7002 14.3487 15.8095C14.1974 15.8361 14.1326 16.012 14.2098 16.1405C14.3781 16.4213 14.8027 16.8424 15.5764 16.4198C16.5199 15.9056 16.2944 15.2806 15.9547 15.1003Z"
            fill="white"/>
      <path
        d="M14.1068 19.5333C14.1068 19.5333 17.2547 19.4863 17.9268 18.2129C17.9268 18.2129 17.7186 20.9049 14.3878 21.1994L14.1068 19.5333Z"
        fill="#E06A4B"/>
      <path
        d="M13.1402 21.3184L12.3908 23.1596C12.3031 23.3773 12.3477 23.6206 12.5098 23.7984L14.4502 25.9227C14.587 26.1618 14.8889 26.1789 15.045 25.9555L16.7194 23.9763L13.7752 21.0296C13.5417 20.7934 13.1685 20.9613 13.1402 21.3184Z"
        fill="#4256AB"/>
      <path
        d="M14.7611 26.1844C14.8979 26.1844 15.0243 26.1161 15.109 25.9952L16.7804 24.0217C16.8042 23.9932 16.8027 23.9534 16.7759 23.9278L13.8317 20.9811C13.7113 20.8587 13.5462 20.8174 13.3901 20.8701C13.2132 20.9298 13.0883 21.0977 13.0689 21.3012L12.324 23.1338C12.2258 23.3757 12.2764 23.6489 12.4563 23.8452L14.3923 25.9639C14.4711 26.0962 14.602 26.1773 14.7447 26.1844C14.7492 26.183 14.7551 26.1844 14.7611 26.1844ZM16.6228 23.9804L14.9901 25.9098C14.9276 25.9994 14.8399 26.045 14.7507 26.0407C14.657 26.0364 14.5722 25.9809 14.5187 25.887C14.5157 25.8828 14.5128 25.8785 14.5098 25.8742L12.5693 23.7499C12.4251 23.5934 12.3849 23.3757 12.4637 23.1836L13.2132 21.3425C13.2161 21.3354 13.2176 21.3297 13.2176 21.3225C13.2295 21.1717 13.3172 21.0465 13.4422 21.0038C13.5433 20.9697 13.6459 20.9967 13.7262 21.0778L16.6228 23.9804Z"
        fill="#4256AB"/>
      <path
        d="M20.6807 20.5973L16.3432 23.9908L18.9008 26.3968C19.1595 26.6074 19.5893 26.5789 19.8019 26.337L22.1944 23.618C22.3684 23.4202 22.4041 23.1428 22.2851 22.9108L21.1461 20.677C21.0688 20.5233 20.8264 20.482 20.6807 20.5973Z"
        fill="#4256AB"/>
      <path
        d="M19.3202 26.6111C19.341 26.6111 19.3633 26.6097 19.3841 26.6083C19.5745 26.5926 19.747 26.5115 19.86 26.3835L22.2525 23.6644C22.4458 23.4453 22.4845 23.138 22.3536 22.8804L21.2146 20.6466C21.17 20.5583 21.0793 20.4943 20.9692 20.4716C20.8488 20.4474 20.7254 20.4744 20.6347 20.5455L16.2972 23.939C16.2808 23.9518 16.2704 23.9703 16.2704 23.9902C16.2689 24.0102 16.2779 24.0301 16.2927 24.0443L18.8503 26.4503C18.9782 26.5542 19.1447 26.6111 19.3202 26.6111ZM20.88 20.6039C20.8993 20.6039 20.9172 20.6053 20.9365 20.6096C21.0019 20.6238 21.0555 20.6594 21.0793 20.7092L22.2183 22.943C22.3239 23.1493 22.2911 23.3969 22.1365 23.5734L19.744 26.2924C19.6577 26.392 19.5209 26.4546 19.3707 26.4674C19.2131 26.4802 19.0585 26.4347 18.9484 26.345L16.4533 23.9988L20.7269 20.6551C20.77 20.621 20.8235 20.6039 20.88 20.6039Z"
        fill="#4256AB"/>
      <path
        d="M19.2874 26.6981C19.3023 26.6981 19.3172 26.6981 19.3335 26.6967C19.5462 26.6839 19.7454 26.5871 19.8807 26.4278L21.506 24.5126C21.5313 24.4827 21.5268 24.4372 21.4956 24.413C21.4644 24.3888 21.4168 24.3931 21.3915 24.423L19.7662 26.3381C19.6562 26.4676 19.5001 26.5444 19.3261 26.5544C19.1521 26.5629 18.9871 26.506 18.8622 26.3908L16.7194 24.4088C16.654 24.349 16.5648 24.3191 16.4756 24.3262C16.3864 24.3333 16.3046 24.3774 16.251 24.4472L15.0912 25.9725C15.0079 26.0806 14.8801 26.1446 14.7403 26.1489C14.5961 26.1489 14.4697 26.0934 14.3804 25.9895L13.6697 25.1458C13.6444 25.1145 13.5968 25.1102 13.5656 25.1344C13.5344 25.1586 13.5284 25.2041 13.5537 25.234L14.2645 26.0778C14.3819 26.2172 14.5559 26.2954 14.7433 26.2898C14.9306 26.2855 15.1001 26.2001 15.2102 26.055L16.37 24.5297C16.3983 24.4927 16.4399 24.4699 16.4875 24.4657C16.5336 24.4614 16.5812 24.477 16.6139 24.5084L18.7566 26.4904C18.8993 26.6241 19.0912 26.6981 19.2874 26.6981Z"
        fill="#263473"/>
      <path
        d="M19.2682 26.0185C19.4883 26.0185 19.6667 25.8478 19.6667 25.6372C19.6667 25.4266 19.4883 25.2559 19.2682 25.2559C19.0481 25.2559 18.8697 25.4266 18.8697 25.6372C18.8697 25.8463 19.0481 26.0185 19.2682 26.0185ZM19.2682 25.3967C19.4065 25.3967 19.518 25.5049 19.518 25.6358C19.518 25.7681 19.405 25.8748 19.2682 25.8748C19.1299 25.8748 19.0184 25.7667 19.0184 25.6358C19.0184 25.5034 19.1299 25.3967 19.2682 25.3967Z"
        fill="#263473"/>
      <path
        d="M19.4229 28.8226C19.463 28.8226 19.4957 28.7927 19.4972 28.7543C19.4987 28.7144 19.466 28.6817 19.4258 28.6803C19.1686 28.6718 18.9143 28.4967 18.7924 28.2421C18.6853 28.0172 18.6734 27.7341 18.7582 27.4424C18.8385 27.1692 18.9901 26.916 19.1418 26.684C19.3128 26.4251 19.5448 26.0694 19.4243 25.7222C19.3887 25.6183 19.3232 25.5458 19.2414 25.5173C19.2028 25.5031 19.1597 25.523 19.1463 25.56C19.1314 25.597 19.1522 25.6383 19.1894 25.6511C19.2281 25.6639 19.2608 25.7065 19.2831 25.7677C19.3812 26.0509 19.179 26.3596 19.0154 26.6086C18.8563 26.8505 18.6987 27.1137 18.6139 27.4054C18.5203 27.7284 18.5351 28.0471 18.6571 28.3018C18.8013 28.6035 19.1076 28.814 19.4214 28.8226C19.4214 28.8226 19.4214 28.8226 19.4229 28.8226Z"
        fill="#263473"/>
      <path
        d="M14.5648 25.8818C14.7849 25.8818 14.9633 25.7111 14.9633 25.5005C14.9633 25.2899 14.7849 25.1191 14.5648 25.1191C14.3447 25.1191 14.1663 25.2899 14.1663 25.5005C14.1663 25.7096 14.3447 25.8818 14.5648 25.8818ZM14.5648 25.26C14.7031 25.26 14.8146 25.3681 14.8146 25.499C14.8146 25.6314 14.7016 25.7381 14.5648 25.7381C14.428 25.7381 14.315 25.63 14.315 25.499C14.315 25.3667 14.428 25.26 14.5648 25.26Z"
        fill="#263473"/>
      <path
        d="M14.7194 29.9695C14.7596 29.9695 14.7923 29.9396 14.7938 29.9012C14.7953 29.8614 14.764 29.8287 14.7224 29.8272C14.4681 29.8158 14.2139 29.5654 14.0919 29.2026C13.9819 28.8768 13.9685 28.467 14.0548 28.0473C14.135 27.6574 14.2897 27.3003 14.4428 26.9702C14.6094 26.613 14.8384 26.125 14.7224 25.6583C14.6986 25.5615 14.648 25.4363 14.5469 25.3851C14.5112 25.3666 14.4652 25.3808 14.4473 25.415C14.428 25.4506 14.4428 25.4932 14.4785 25.5103C14.5187 25.5302 14.5559 25.5971 14.5782 25.6896C14.6823 26.1079 14.4741 26.5533 14.3075 26.9104C14.1499 27.2476 13.9923 27.6147 13.909 28.0174C13.8168 28.4599 13.8317 28.8967 13.9507 29.2453C14.0934 29.6636 14.3997 29.9553 14.7165 29.9681C14.7165 29.9695 14.7179 29.9695 14.7194 29.9695Z"
        fill="#263473"/>
      <path
        d="M20.8502 23.6199C20.8681 23.6199 20.8874 23.6127 20.9008 23.5999C21.2101 23.3196 21.506 23.0208 21.7811 22.7107C21.9075 22.5684 22.0413 22.4005 22.0368 22.1984C22.0353 22.1088 22.0041 22.0249 21.9744 21.9523C21.8688 21.6891 21.2532 20.5821 21.0658 20.3402C21.0405 20.3089 20.9945 20.3018 20.9617 20.326C20.929 20.3487 20.9216 20.3943 20.9454 20.4256C21.1223 20.6547 21.7335 21.7531 21.8346 22.0035C21.8599 22.0675 21.8851 22.1344 21.8866 22.2013C21.8911 22.3535 21.7751 22.4958 21.6666 22.6182C21.3944 22.9241 21.1015 23.2186 20.7967 23.4961C20.7669 23.5231 20.7655 23.5686 20.7937 23.5971C20.8101 23.6127 20.8294 23.6199 20.8502 23.6199Z"
        fill="#263473"/>
      <path
        d="M20.1752 20.9921C20.1901 20.9921 20.2035 20.9879 20.2168 20.9793L21.0481 20.4429C21.0823 20.4216 21.0912 20.3761 21.0674 20.3448C21.0451 20.312 20.9975 20.3035 20.9648 20.3263L20.1336 20.8627C20.0994 20.884 20.0905 20.9295 20.1142 20.9608C20.1276 20.9808 20.1514 20.9921 20.1752 20.9921Z"
        fill="#263473"/>
      <path
        d="M13.3455 23.7393C13.3649 23.7393 13.3857 23.7322 13.3991 23.7165C13.4273 23.6881 13.4258 23.6426 13.3961 23.6155L12.6199 22.9155C12.5798 22.8799 12.5396 22.8429 12.5188 22.8002C12.4772 22.712 12.5233 22.5996 12.5798 22.4915C12.7017 22.2553 12.8385 22.0248 12.9857 21.8028C13.008 21.7701 12.9976 21.726 12.9634 21.7046C12.9292 21.6833 12.8831 21.6933 12.8608 21.726C12.7106 21.9508 12.5708 22.187 12.4459 22.4274C12.3775 22.5598 12.3166 22.7149 12.3835 22.8571C12.4147 22.9254 12.4697 22.9738 12.5173 23.0179L13.2935 23.718C13.3084 23.7322 13.3277 23.7393 13.3455 23.7393Z"
        fill="#263473"/>
    </g>
  </g>
  <path
    d="M7.42136 31.8813C7.88976 31.8727 8.35666 31.9837 8.3299 32.5429C8.38194 33.0494 7.92842 33.1803 7.45407 33.223C7.75295 33.2387 8.00574 33.3397 8.02655 33.6783C8.13808 34.2816 7.58046 34.4979 7.06151 34.5334C7.56113 34.6416 7.26671 35.4156 6.63178 35.6233C6.06822 35.8382 5.48533 36.0331 4.93515 36.275C4.382 36.5183 3.83777 36.7531 3.23852 36.8769C2.58871 37.0106 1.90322 37.0206 1.26829 36.8385C0.860858 36.7218 0.460864 36.5112 0.231871 36.1683C-0.184481 35.5465 0.0504599 34.6643 0.274992 34.0141C0.512907 33.3226 0.892085 32.651 1.44524 32.1431C1.44524 32.1431 3.41249 30.3375 4.19315 29.8509C4.27642 29.7982 4.36415 29.747 4.46081 29.7257C4.55746 29.7029 4.66898 29.7143 4.74482 29.7769C4.84296 29.858 4.85783 29.9974 4.84891 30.1226C4.82363 30.5082 4.65709 30.8668 4.49055 31.2211C4.82809 31.1243 5.18794 31.019 5.57901 30.8981C6.42361 30.7003 7.77674 30.2109 7.98195 31.2851C8.01763 31.6607 7.74106 31.8158 7.42136 31.8813Z"
    fill="#E59078"/>
  <path opacity="0.36"
        d="M4.48761 31.219L2.64823 31.9162C2.64823 31.9162 4.41475 30.6612 4.75824 30.5645L4.48761 31.219Z"
        fill="#E06A4B"/>
  <path
    d="M6.29574 32.2516C6.30318 32.2516 6.31061 32.2502 6.31805 32.2487C6.75968 32.1178 7.46599 31.9215 7.59982 31.9186C7.64146 31.9172 7.67417 31.8845 7.67268 31.8461C7.67119 31.8062 7.63253 31.7778 7.59685 31.7764C7.40057 31.7806 6.38942 32.0794 6.27493 32.1136C6.23626 32.125 6.21396 32.1648 6.22586 32.2032C6.23478 32.2331 6.26452 32.2516 6.29574 32.2516Z"
    fill="#DF6969"/>
  <path
    d="M6.52179 33.5695C6.52922 33.5695 6.53517 33.568 6.54261 33.5666L7.57308 33.2792C7.61323 33.2678 7.63553 33.228 7.62364 33.191C7.61174 33.154 7.57159 33.1312 7.53144 33.1426L6.50097 33.43C6.46082 33.4414 6.43852 33.4812 6.45042 33.5182C6.46082 33.5495 6.49056 33.5695 6.52179 33.5695Z"
    fill="#DF6969"/>
  <path
    d="M6.50244 34.748C6.50839 34.748 6.51582 34.7466 6.52177 34.7452L7.08087 34.6029C7.12102 34.5929 7.14481 34.5531 7.13292 34.5161C7.12251 34.4777 7.08236 34.4563 7.04221 34.4663L6.48311 34.6086C6.44296 34.6185 6.41917 34.6584 6.43106 34.6954C6.43999 34.7267 6.46972 34.748 6.50244 34.748Z"
    fill="#DF6969"/>
  <path
    d="M45.7768 29.7059L43.0692 32.9276L41.7969 33.9737L39.294 36.9895L41.3689 38.7815C42.7827 39.8057 44.7256 39.2643 45.4574 37.644L48.7353 31.6311C49.0096 31.0928 48.2638 30.7804 47.705 30.6035L45.7768 29.7059Z"
    fill="#111111"/>
  <path
    d="M44.844 31.6371L43.7279 31.2107C43.6175 31.1581 43.5674 31.0227 43.6169 30.907L48.3067 20.8448C48.3562 20.7291 48.4849 20.6773 48.5954 20.7299L49.3527 21.086C49.4632 21.1387 49.5133 21.274 49.4637 21.3897L45.1327 31.5222C45.0844 31.6378 44.9557 31.6896 44.844 31.6371Z"
    fill="#2D3248"/>
  <path
    d="M49.3667 29.0752L49.651 27.0606C49.7018 26.7032 49.5784 26.3411 49.3225 26.0955L47.8125 24.65C47.5078 24.3575 47.0342 24.3932 46.7735 24.7252L46.5033 25.0713L47.725 25.6729L45.982 24.8142C45.7871 24.7182 45.5608 24.8508 45.5368 25.0751C45.5152 25.2751 45.5945 25.4732 45.745 25.5988L47.3293 26.9151L45.3531 25.6753C45.2111 25.5869 45.0384 25.7178 45.0763 25.8861C45.2172 26.5278 45.5638 27.0997 46.058 27.506L46.8982 28.0117C46.8982 28.0117 45.7542 30.7893 45.8373 30.8771C45.9081 30.9508 45.9923 31.0131 46.0872 31.0626C46.8399 31.4485 48.4132 31.8309 49.3667 29.0752Z"
    fill="#FFA485"/>
  <path
    d="M46.5816 24.9693C46.6061 24.9505 46.6403 24.9458 46.6694 24.9616L47.9147 25.6397C47.9556 25.6615 47.9715 25.7143 47.9509 25.7571C47.9291 25.8 47.8802 25.8162 47.8393 25.7945L46.594 25.1163C46.5531 25.0945 46.5372 25.0418 46.5577 24.9989C46.5634 24.9865 46.5718 24.9766 46.5816 24.9693Z"
    fill="#E06A4B"/>
  <path
    d="M47.3429 26.6251C47.371 26.6033 47.4105 26.601 47.4413 26.6248C47.4788 26.6535 47.4883 26.708 47.4612 26.7471C47.4612 26.7471 47.3635 26.8911 47.2513 27.0507C47.2241 27.0899 47.1721 27.097 47.1346 27.0683C47.0972 27.0396 47.0901 26.9849 47.1173 26.9457C47.2283 26.7875 47.3248 26.645 47.3248 26.6436C47.3307 26.6366 47.3368 26.6308 47.3429 26.6251Z"
    fill="#E06A4B"/>
  <path
    d="M47.9658 25.5529C47.994 25.5311 48.0335 25.5288 48.0643 25.5525C48.1018 25.5812 48.1112 25.6344 48.0842 25.6749C48.0842 25.6749 47.9864 25.8189 47.8742 25.9785C47.8471 26.0176 47.7951 26.0247 47.7576 25.996C47.7201 25.9673 47.7131 25.9126 47.7403 25.8735C47.8513 25.7153 47.9478 25.5727 47.9478 25.5727C47.9537 25.5643 47.9598 25.5586 47.9658 25.5529Z"
    fill="#E06A4B"/>
  <path
    d="M46.5734 27.7739C46.6028 27.7507 46.645 27.7509 46.6759 27.776C46.7768 27.8627 46.9381 27.9312 46.9394 27.9312C46.9826 27.9488 47.0035 27.9999 46.9869 28.0452C46.9704 28.0905 46.9218 28.1121 46.8785 28.0945C46.8707 28.0909 46.6924 28.0153 46.5713 27.9123C46.5363 27.8821 46.5304 27.826 46.559 27.7895C46.5637 27.7825 46.5686 27.7782 46.5734 27.7739Z"
    fill="#E06A4B"/>
  <path
    d="M42.38 33.8968C42.3647 33.8976 42.3478 33.8933 42.3356 33.8805C42.3086 33.8566 42.3049 33.8139 42.3275 33.7857L43.5886 32.2071C43.6112 32.1789 43.6519 32.1752 43.6789 32.1992C43.7059 32.2231 43.7096 32.2658 43.687 32.294L42.4259 33.8726C42.414 33.8881 42.3966 33.8958 42.38 33.8968Z"
    fill="#2D3248"/>
  <path
    d="M48.1004 32.3914C48.0991 32.3914 48.0978 32.3915 48.0966 32.3916C46.1722 32.3935 45.0658 30.8076 45.0547 30.7921C45.0338 30.7625 45.0403 30.7205 45.0697 30.6986C45.0979 30.6782 45.1379 30.6839 45.1589 30.7149C45.17 30.7304 46.2399 32.2606 48.0965 32.2587C48.1323 32.2579 48.1609 32.2885 48.1605 32.3261C48.1613 32.361 48.1335 32.3894 48.1004 32.3914Z"
    fill="#2D3248"/>

</svg>
