<svg width="16" height="16" viewBox="0 0 16 16" fill="none" xmlns="http://www.w3.org/2000/svg">
<g clip-path="url(#clip0_3151_39709)">
<path d="M7.11144 4.04461C7.11144 4.75186 6.83049 5.43014 6.33039 5.93024C5.83029 6.43034 5.152 6.71129 4.44476 6.71129C3.73751 6.71129 3.05923 6.43034 2.55913 5.93024C2.05903 5.43014 1.77808 4.75186 1.77808 4.04461C1.77808 3.33736 2.05903 2.65908 2.55913 2.15898C3.05923 1.65888 3.73751 1.37793 4.44476 1.37793C5.152 1.37793 5.83029 1.65888 6.33039 2.15898C6.83049 2.65908 7.11144 3.33736 7.11144 4.04461V4.04461Z" fill="#C4C4C4"/>
<path d="M14.2223 4.04461C14.2223 4.3948 14.1533 4.74157 14.0193 5.06511C13.8853 5.38864 13.6888 5.68261 13.4412 5.93024C13.1936 6.17786 12.8996 6.37429 12.5761 6.5083C12.2526 6.64232 11.9058 6.71129 11.5556 6.71129C11.2054 6.71129 10.8586 6.64232 10.5351 6.5083C10.2116 6.37429 9.91759 6.17786 9.66997 5.93024C9.42234 5.68261 9.22592 5.38864 9.0919 5.06511C8.95789 4.74157 8.88892 4.3948 8.88892 4.04461C8.88892 3.33736 9.16987 2.65908 9.66997 2.15898C10.1701 1.65888 10.8483 1.37793 11.5556 1.37793C12.2628 1.37793 12.9411 1.65888 13.4412 2.15898C13.9413 2.65908 14.2223 3.33736 14.2223 4.04461V4.04461Z" fill="#C4C4C4"/>
<path d="M10.6044 13.8225C10.6453 13.5318 10.6666 13.2358 10.6666 12.9336C10.6686 11.537 10.1988 10.1807 9.33325 9.0847C10.0089 8.69463 10.7753 8.48926 11.5555 8.48926C12.3356 8.48925 13.102 8.69461 13.7777 9.08468C14.4533 9.47475 15.0144 10.0358 15.4045 10.7114C15.7946 11.387 15.9999 12.1535 16 12.9336V13.8225H10.6044Z" fill="#C4C4C4"/>
<path d="M4.44447 8.48926C5.62322 8.48926 6.75368 8.95751 7.58718 9.79101C8.42068 10.6245 8.88894 11.755 8.88894 12.9337V13.8226H0V12.9337C0 11.755 0.468255 10.6245 1.30175 9.79101C2.13525 8.95751 3.26572 8.48926 4.44447 8.48926V8.48926Z" fill="#C4C4C4"/>
</g>
<defs>
<clipPath id="clip0_3151_39709">
<rect width="16" height="16" fill="white"/>
</clipPath>
</defs>
</svg>
