<svg width="236" height="117" viewBox="0 0 236 117" fill="none" xmlns="http://www.w3.org/2000/svg">
<path opacity="0.8" d="M165.841 61.0254L69.9409 58.8238C68.3148 58.7863 67.0676 57.5321 67.1591 56.0239L67.5475 49.6218C67.6384 48.1218 69.0271 46.9485 70.646 47.0001L166.13 50.0315C167.524 50.076 168.624 51.2372 168.588 52.6265L168.438 58.555C168.402 59.9506 167.24 61.0581 165.841 61.0254Z" fill="#97A6B7"/>
<path opacity="0.8" d="M73.661 61.3244L80.4119 93.5724C80.8422 95.6277 82.7123 97.0611 84.9429 97.0486L149.643 96.6965C151.655 96.6854 153.445 95.3102 153.99 93.3644L162.43 63.2037L73.661 61.3244ZM96.4827 91.8033C96.4193 93.0807 95.284 94.121 93.9458 94.1252L91.6308 94.1325C90.285 94.1369 89.2465 93.0985 89.3136 91.8144L90.6104 67.011C90.6761 65.7497 91.811 64.7482 93.1416 64.7735L95.4306 64.8168C96.7542 64.8416 97.7744 65.8783 97.7122 67.1334L96.4827 91.8033ZM109.239 91.7839C109.181 93.0489 108.072 94.0787 106.76 94.0831L104.489 94.0907C103.17 94.0947 102.146 93.0668 102.208 91.7944L103.383 67.2302C103.443 65.9807 104.552 64.9885 105.857 65.0135L108.103 65.0561C109.401 65.0807 110.406 66.1074 110.35 67.3502L109.239 91.7839ZM121.752 91.7651C121.7 93.0183 120.616 94.0381 119.329 94.0422L117.102 94.0492C115.807 94.0534 114.8 93.0348 114.855 91.7754L115.913 67.4449C115.967 66.2071 117.052 65.2243 118.332 65.2484L120.535 65.2896C121.808 65.3134 122.799 66.3303 122.748 67.5613L121.752 91.7651ZM134.028 91.7458C133.982 92.9866 132.922 93.9971 131.659 94.0014L129.474 94.0084C128.204 94.0122 127.212 93.0035 127.261 91.7558L128.207 67.6554C128.255 66.4294 129.315 65.4553 130.571 65.4792L132.733 65.5199C133.983 65.5434 134.958 66.5506 134.913 67.7704L134.028 91.7458ZM146.074 91.7279C146.034 92.9576 144.998 93.9581 143.757 93.9625L141.613 93.9694C140.367 93.9734 139.39 92.9738 139.433 91.738L140.271 67.8629C140.313 66.648 141.35 65.6832 142.583 65.7065L144.704 65.7466C145.931 65.77 146.892 66.7674 146.853 67.9761L146.074 91.7279Z" fill="#97A6B7"/>
<g opacity="0.4">
<path d="M80.6299 39.7634L80.6303 39.7632L112.318 17.8162C112.318 17.8162 112.318 17.8162 112.319 17.8161C112.931 17.3917 113.659 17.1652 114.377 17.1718C115.081 17.1784 115.926 17.4211 116.535 18.1225C117.174 18.8571 117.269 19.7658 117.067 20.5072C116.869 21.2304 116.393 21.8405 115.785 22.2639L115.784 22.2642L84.1718 44.2601L84.1717 44.2602C83.5435 44.6972 82.798 44.9386 82.0634 44.9455C81.3473 44.9523 80.4684 44.7268 79.8315 44.0096L80.6299 39.7634ZM80.6299 39.7634C80.0042 40.1971 79.5068 40.8177 79.2941 41.5535M80.6299 39.7634L79.2941 41.5535M79.2941 41.5535C79.0758 42.3089 79.1586 43.2519 79.8315 44.0096L79.2941 41.5535Z" fill="#97A6B7" stroke="#97A6B7" stroke-width="3"/>
</g>
<g opacity="0.4">
<path d="M129.957 18.0953C129.957 18.0954 129.957 18.0955 129.957 18.0955L158.693 43.6652C159.259 44.168 159.684 44.8294 159.843 45.5547C160.005 46.2896 159.896 47.1771 159.242 47.8346C158.607 48.4732 157.75 48.6004 157.053 48.5053C156.345 48.4087 155.649 48.0743 155.082 47.5699L129.957 18.0953ZM129.957 18.0953C129.383 17.5849 128.683 17.2444 127.973 17.1352M129.957 18.0953L127.973 17.1352M127.973 17.1352C127.28 17.0285 126.412 17.1288 125.753 17.7482L127.973 17.1352ZM126.265 21.9733L155.081 47.5696L125.753 17.7482C125.062 18.3975 124.934 19.3015 125.097 20.056C125.256 20.7949 125.692 21.4647 126.265 21.9732C126.265 21.9732 126.265 21.9733 126.265 21.9733Z" fill="#97A6B7" stroke="#97A6B7" stroke-width="3"/>
</g>
<path d="M143.122 57.3992C141.902 70.5847 130.223 81.0012 116.994 80.6639C103.721 80.3254 93.9218 69.2947 95.1497 56.0272C96.3769 42.7597 108.16 32.3463 121.426 32.7667C134.646 33.1859 144.342 44.2136 143.122 57.3992Z" fill="#DC3B41"/>
<path d="M92.6603 55.7968C91.2996 70.5005 102.207 82.7876 116.93 83.163C131.48 83.534 144.271 72.1198 145.611 57.6295C146.964 43.0175 136.173 30.7331 121.505 30.2679L121.505 30.2679C106.914 29.8055 94.0089 41.2172 92.6603 55.7968ZM92.6603 55.7968L95.1497 56.0272L92.6603 55.7968Z" stroke="white" stroke-opacity="0.95" stroke-width="5"/>
<path d="M119.447 71.8663C111.09 71.8663 104.292 65.0681 104.292 56.712C104.292 48.3558 111.09 41.5576 119.447 41.5576C127.803 41.5576 134.601 48.3558 134.601 56.712C134.602 65.0681 127.803 71.8663 119.447 71.8663ZM119.447 47.1316C114.164 47.1316 109.866 51.4293 109.866 56.712C109.866 61.9947 114.164 66.2923 119.447 66.2923C124.729 66.2923 129.027 61.9947 129.027 56.712C129.027 51.4293 124.729 47.1316 119.447 47.1316Z" fill="white"/>
<path d="M112.436 67.1833C111.726 67.1833 111.015 66.9136 110.472 66.3729C109.38 65.2874 109.375 63.5231 110.46 62.4311L125.588 47.2127C126.674 46.1207 128.438 46.1159 129.53 47.2008C130.622 48.2863 130.627 50.0505 129.542 51.1426L114.414 66.361C113.869 66.9088 113.152 67.1833 112.436 67.1833Z" fill="white"/>
<g opacity="0.2">
<path opacity="0.2" d="M118.642 75.3009C116.807 72.0528 120.521 69.3802 120.673 62.903C120.903 53.0672 112.566 49.5007 113.682 41.2036C113.993 38.8967 115.14 35.4459 119.441 31.5706C107.006 32.9666 96.5798 43.2263 95.3986 55.9874C94.1024 70.0005 104.451 81.6512 118.471 82.0087C123.251 82.1306 127.838 80.9228 131.858 78.724C126.626 79.0771 120.585 78.7385 118.642 75.3009Z" fill="url(#paint0_linear_2202:30123)"/>
</g>
<defs>
<linearGradient id="paint0_linear_2202:30123" x1="95.5224" y1="54.6512" x2="133.758" y2="58.1879" gradientUnits="userSpaceOnUse">
<stop stop-color="#F89523"/>
<stop offset="1" stop-color="#D90000"/>
</linearGradient>
</defs>
</svg>
