<svg width="17" height="18" viewBox="0 0 17 18" fill="none" xmlns="http://www.w3.org/2000/svg">
<path d="M12.932 17.0001H4.06835C3.1288 17.0001 2.3638 16.252 2.3638 15.3333V5.99961C2.3638 5.8156 2.51653 5.66626 2.70471 5.66626C2.89289 5.66626 3.04562 5.8156 3.04562 5.99961V15.3333C3.04562 15.8847 3.50448 16.3334 4.06835 16.3334H12.932C13.4958 16.3334 13.9547 15.8847 13.9547 15.3333V5.99961C13.9547 5.8156 14.1074 5.66626 14.2956 5.66626C14.4838 5.66626 14.6365 5.8156 14.6365 5.99961V15.3333C14.6365 16.252 13.8715 17.0001 12.932 17.0001Z" fill="#DC3B41" stroke="#DC3B41" stroke-width="0.3"/>
<path d="M15.6591 6.33356H1.34091C1.15273 6.33356 1 6.18422 1 6.00021V4.66683C1 3.74812 1.765 3.00009 2.70455 3.00009H14.2955C15.235 3.00009 16 3.74812 16 4.66683V6.00021C16 6.18422 15.8473 6.33356 15.6591 6.33356ZM1.68182 5.66687H15.3182V4.66683C15.3182 4.11547 14.8593 3.66679 14.2955 3.66679H2.70455C2.14068 3.66679 1.68182 4.11547 1.68182 4.66683V5.66687Z" fill="#DC3B41" stroke="#DC3B41" stroke-width="0.3"/>
<path d="M11.5682 3.66677C11.38 3.66677 11.2273 3.51744 11.2273 3.33343V2.00004C11.2273 1.81603 11.0745 1.66669 10.8864 1.66669H6.11364C5.92546 1.66669 5.77273 1.81603 5.77273 2.00004V3.33343C5.77273 3.51744 5.62 3.66677 5.43182 3.66677C5.24364 3.66677 5.09091 3.51744 5.09091 3.33343V2.00004C5.09091 1.44868 5.54978 1 6.11364 1H10.8864C11.4502 1 11.9091 1.44868 11.9091 2.00004V3.33343C11.9091 3.51744 11.7564 3.66677 11.5682 3.66677Z" fill="#DC3B41" stroke="#DC3B41" stroke-width="0.3"/>
<path d="M8.49999 14.3335C8.31181 14.3335 8.15909 14.1842 8.15909 14.0002V8.66663C8.15909 8.48262 8.31181 8.33328 8.49999 8.33328C8.68817 8.33328 8.8409 8.48262 8.8409 8.66663V14.0002C8.8409 14.1842 8.68817 14.3335 8.49999 14.3335Z" fill="#DC3B41" stroke="#DC3B41" stroke-width="0.3"/>
<path d="M5.43182 14.3335C5.24364 14.3335 5.09091 14.1842 5.09091 14.0002V8.66663C5.09091 8.48262 5.24364 8.33328 5.43182 8.33328C5.62001 8.33328 5.77274 8.48262 5.77274 8.66663V14.0002C5.77274 14.1842 5.62001 14.3335 5.43182 14.3335Z" fill="#DC3B41" stroke="#DC3B41" stroke-width="0.3"/>
<path d="M11.5682 14.3335C11.38 14.3335 11.2273 14.1842 11.2273 14.0002V8.66663C11.2273 8.48262 11.38 8.33328 11.5682 8.33328C11.7563 8.33328 11.9091 8.48262 11.9091 8.66663V14.0002C11.9091 14.1842 11.7563 14.3335 11.5682 14.3335Z" fill="#DC3B41" stroke="#DC3B41" stroke-width="0.3"/>
</svg>
