<svg width="15" height="15" viewBox="0 0 15 15" fill="none" xmlns="http://www.w3.org/2000/svg">
<path d="M4.26917 5.09375L4.92833 0.5H1.5L0.0675 4.4375C0.0233333 4.5775 0 4.72275 0 4.875C0 5.841 0.958333 6.625 2.1425 6.625C3.23417 6.625 4.13667 5.9565 4.26917 5.09375ZM7.5 6.625C8.68333 6.625 9.6425 5.841 9.6425 4.875C9.6425 4.83913 9.64 4.80325 9.63833 4.76912L9.21417 0.5H5.78583L5.36083 4.76562C5.35917 4.8015 5.3575 4.83738 5.3575 4.875C5.3575 5.841 6.31667 6.625 7.5 6.625ZM11.6667 7.54025V11H3.33333V7.5455C2.96833 7.68375 2.56667 7.7625 2.1425 7.7625C1.98 7.7625 1.8225 7.74238 1.66667 7.71963V13.275C1.66667 13.9488 2.19083 14.5 2.83167 14.5H12.1667C12.8083 14.5 13.3333 13.9479 13.3333 13.275V7.7205C13.1758 7.74589 13.0168 7.76022 12.8575 7.76337C12.4512 7.76294 12.0481 7.68742 11.6667 7.54025ZM14.9333 4.4375L13.4992 0.5H10.0717L10.73 5.08675C10.8583 5.953 11.7608 6.625 12.8575 6.625C14.0408 6.625 15 5.841 15 4.875C15 4.72275 14.9767 4.5775 14.9333 4.4375Z" fill="#AAAAAA"/>
</svg>
