<svg width="20" height="21" viewBox="0 0 20 21" fill="none" xmlns="http://www.w3.org/2000/svg">
<path d="M10 20.9375C15.5228 20.9375 20 16.4603 20 10.9375C20 5.41465 15.5228 0.9375 10 0.9375C4.47715 0.9375 0 5.41465 0 10.9375C0 16.4603 4.47715 20.9375 10 20.9375Z" fill="#363636"/>
<path d="M20 10.9375C20 5.44492 15.4926 0.9375 10 0.9375V20.9375C15.4926 20.9375 20 16.4301 20 10.9375Z" fill="#363636"/>
<path d="M10 3.32031C5.8 3.32031 2.38281 6.7375 2.38281 10.9375C2.38281 15.1375 5.8 18.5938 10 18.5938C14.2 18.5938 17.6172 15.1375 17.6172 10.9375C17.6172 6.7375 14.2 3.32031 10 3.32031Z" fill="white"/>
<path d="M10 5.66406C9.67613 5.66406 9.41406 5.92613 9.41406 6.25V12.1094C9.41406 12.4332 9.67613 12.6953 10 12.6953C10.3239 12.6953 10.5859 12.4332 10.5859 12.1094V6.25C10.5859 5.92613 10.3239 5.66406 10 5.66406Z" fill="#363636"/>
<path d="M14.1016 10.9375C14.1016 10.6136 13.8395 10.3516 13.5156 10.3516H10V11.5234H13.5156C13.8395 11.5234 14.1016 11.2614 14.1016 10.9375Z" fill="#363636"/>
</svg>
