<svg width="15" height="16" viewBox="0 0 15 16" fill="none" xmlns="http://www.w3.org/2000/svg">
<path d="M7.48954 15.5C3.34728 15.5 0 12.1527 0 8.01046C0 3.8682 3.34728 0.5 7.48954 0.5C11.6318 0.5 15 3.8682 15 8.01046C15 12.1527 11.6318 15.5 7.48954 15.5ZM7.48954 2.36192C4.39331 2.36192 1.88285 4.91423 1.88285 8.01046C1.88285 11.1067 4.39331 13.6172 7.48954 13.6172C10.5858 13.6172 13.1381 11.1067 13.1381 8.01046C13.1381 4.91423 10.5858 2.36192 7.48954 2.36192ZM9.51883 10.8766L6.86192 8.93096C6.67364 8.78452 6.48536 8.47071 6.48536 8.21967V3.9728C6.48536 3.74268 6.69456 3.55439 6.94561 3.55439H7.82427C8.05439 3.55439 8.24268 3.74268 8.24268 3.9728V7.32008C8.24268 7.57113 8.43096 7.88494 8.61925 8.03138L10.5649 9.43305C10.7531 9.5795 10.795 9.87239 10.6485 10.0607L10.1255 10.772C9.97908 10.9603 9.70711 11.0021 9.51883 10.8766Z" fill="#AAAAAA"/>
</svg>
