<svg width="20" height="17" viewBox="0 0 20 17" fill="none" xmlns="http://www.w3.org/2000/svg">
<path d="M15.5542 14.9679H8.88758V10.5234H7.77647V14.9679H4.44314V10.5234H3.33203V14.9679C3.33203 15.2626 3.44909 15.5452 3.65746 15.7536C3.86584 15.9619 4.14845 16.079 4.44314 16.079H15.5542C15.8489 16.079 16.1315 15.9619 16.3399 15.7536C16.5483 15.5452 16.6653 15.2626 16.6653 14.9679V10.5234H15.5542V14.9679Z" fill="#808080" stroke="#808080" stroke-width="0.3"/>
<path d="M18.7743 5.67344L16.5077 1.1401C16.4157 0.954986 16.2739 0.799199 16.0982 0.69026C15.9225 0.58132 15.72 0.523547 15.5132 0.523438H4.49106C4.28435 0.523547 4.08177 0.58132 3.90609 0.69026C3.73041 0.799199 3.58861 0.954986 3.49662 1.1401L1.22995 5.67344C1.15256 5.82871 1.11261 5.99995 1.11329 6.17344V7.88455C1.11278 8.14416 1.2032 8.39576 1.36884 8.59566C1.61365 8.87629 1.91601 9.10093 2.25536 9.25431C2.59471 9.40769 2.96311 9.48621 3.33551 9.48455C3.94316 9.48549 4.53228 9.27538 5.00218 8.8901C5.47207 9.27559 6.06106 9.48627 6.66884 9.48627C7.27662 9.48627 7.86562 9.27559 8.33551 8.8901C8.8054 9.27559 9.39439 9.48627 10.0021 9.48627C10.6099 9.48627 11.1989 9.27559 11.6688 8.8901C12.1387 9.27559 12.7277 9.48627 13.3355 9.48627C13.9432 9.48627 14.5322 9.27559 15.0021 8.8901C15.5267 9.32079 16.1977 9.53132 16.8743 9.47745C17.5508 9.42357 18.1801 9.10948 18.6299 8.60122C18.7976 8.40208 18.89 8.15041 18.891 7.8901V6.17344C18.8917 5.99995 18.8517 5.82871 18.7743 5.67344ZM16.6688 8.37344C16.4315 8.37288 16.1978 8.31561 15.9871 8.20641C15.7764 8.09721 15.5949 7.93924 15.4577 7.74566L15.0021 7.12344L14.5521 7.74566C14.4123 7.93627 14.2295 8.09127 14.0186 8.1981C13.8077 8.30494 13.5746 8.36061 13.3382 8.36061C13.1018 8.36061 12.8687 8.30494 12.6579 8.1981C12.447 8.09127 12.2642 7.93627 12.1243 7.74566L11.6688 7.12344L11.2188 7.74566C11.0789 7.93627 10.8962 8.09127 10.6853 8.1981C10.4744 8.30494 10.2413 8.36061 10.0049 8.36061C9.76854 8.36061 9.53546 8.30494 9.32457 8.1981C9.11368 8.09127 8.93091 7.93627 8.79106 7.74566L8.33551 7.12344L7.88551 7.74566C7.74566 7.93627 7.5629 8.09127 7.352 8.1981C7.14111 8.30494 6.90803 8.36061 6.67162 8.36061C6.43521 8.36061 6.20213 8.30494 5.99123 8.1981C5.78034 8.09127 5.59758 7.93627 5.45773 7.74566L5.00218 7.12344L4.54662 7.74566C4.40938 7.93924 4.22786 8.09721 4.01719 8.20641C3.80652 8.31561 3.5728 8.37288 3.33551 8.37344C3.12614 8.37598 2.91865 8.33367 2.727 8.24934C2.53535 8.16501 2.36397 8.04063 2.2244 7.88455V6.17344L4.49106 1.63455H15.5132L17.7799 6.16788V7.86788C17.6412 8.02615 17.4703 8.15309 17.2788 8.24026C17.0872 8.32742 16.8793 8.37282 16.6688 8.37344Z" fill="#808080" stroke="#808080" stroke-width="0.3"/>
</svg>
