<svg width="18" height="19" viewBox="0 0 18 19" fill="none" xmlns="http://www.w3.org/2000/svg">
<path d="M7.83784 10.6114L8.54716 10.2015L7.62729 9.42773L7.83784 10.6114Z" fill="#A7B5CA"/>
<path d="M18 9.49059C18 9.28354 17.8995 9.10138 17.7464 8.98649C17.745 8.98544 17.7446 8.9835 17.7455 8.98198C17.7464 8.98033 17.7459 8.97823 17.7442 8.97727L16.6566 8.3445C16.0558 7.99497 15.8497 7.22604 16.1953 6.62293L16.8223 5.52855C16.823 5.52729 16.8226 5.52569 16.8214 5.52493C16.8202 5.52423 16.8198 5.52279 16.8203 5.52156C16.8592 5.43203 16.8768 5.33456 16.8717 5.23694C16.8666 5.13853 16.8385 5.04273 16.7897 4.95731C16.7406 4.87197 16.6722 4.7995 16.5901 4.7458C16.5088 4.69263 16.4163 4.65933 16.3199 4.64855C16.3183 4.64837 16.3171 4.64699 16.3171 4.64534C16.3171 4.64356 16.3156 4.64212 16.3138 4.64212H15.0603C14.3663 4.64212 13.8036 4.07947 13.8036 3.3854V2.11933C13.8036 2.11784 13.8024 2.11663 13.8009 2.11663C13.7995 2.11663 13.7984 2.11558 13.7982 2.11421C13.7875 2.0171 13.7544 1.92385 13.7015 1.8419C13.6482 1.75927 13.5764 1.69045 13.4918 1.64102C13.4069 1.59174 13.3116 1.56339 13.2138 1.55828C13.1169 1.55322 13.0202 1.57108 12.9315 1.61042C12.9299 1.6111 12.9281 1.61051 12.9273 1.60906C12.9265 1.60749 12.9245 1.60695 12.9229 1.60785L11.7774 2.2743C11.1906 2.61576 10.4379 2.41407 10.1004 1.82493L9.4886 0.757084C9.48786 0.755791 9.48621 0.755349 9.48492 0.7561C9.48373 0.756795 9.48221 0.756473 9.48139 0.755359C9.42389 0.676692 9.34894 0.612632 9.26251 0.568296C9.17537 0.52359 9.079 0.500194 8.98121 0.5C8.77573 0.5 8.59474 0.601234 8.48095 0.755554C8.47991 0.756956 8.47798 0.757357 8.47648 0.756474C8.47486 0.755518 8.47276 0.756074 8.47182 0.757711L7.84499 1.85178C7.50478 2.44558 6.74615 2.64884 6.15463 2.30469L5.08502 1.68238C5.08372 1.68162 5.08206 1.68207 5.08132 1.68337C5.08063 1.68457 5.07914 1.68505 5.07787 1.68449C4.98905 1.64531 4.89237 1.62757 4.79552 1.63272C4.69787 1.63791 4.6028 1.66622 4.51803 1.71535C4.43329 1.76481 4.36132 1.83372 4.30798 1.91648C4.25519 1.99841 4.22212 2.09163 4.21141 2.18869C4.21122 2.19038 4.2098 2.19166 4.2081 2.19166C4.20627 2.19166 4.20479 2.19315 4.20479 2.19498V3.46382C4.20479 4.14783 3.65028 4.70234 2.96627 4.70234H1.73036C1.72892 4.70234 1.72776 4.7035 1.72776 4.70494C1.72776 4.70627 1.72676 4.70738 1.72543 4.70753C1.62904 4.71835 1.53647 4.75172 1.45513 4.80499C1.37313 4.85869 1.30484 4.93109 1.25579 5.01635C1.20701 5.10185 1.17892 5.19774 1.17381 5.29624C1.16876 5.39374 1.18635 5.49106 1.22518 5.58048C1.22586 5.58205 1.22529 5.58388 1.22383 5.58477C1.22226 5.58574 1.22174 5.58778 1.22266 5.58938L1.82615 6.64279C2.16889 7.24104 1.96452 8.00376 1.36858 8.3505L0.255139 8.99833C0.25384 8.99909 0.253396 9.00075 0.254144 9.00206C0.254836 9.00326 0.254513 9.00479 0.253398 9.00562C0.175337 9.06357 0.11177 9.13909 0.0677741 9.22618C0.0234103 9.31399 0.00019218 9.4111 0 9.50964C0 9.7167 0.100456 9.89908 0.253589 10.0138C0.254993 10.0148 0.255395 10.0167 0.254516 10.0183C0.253563 10.0199 0.254122 10.022 0.255766 10.023L1.34896 10.659C1.9467 11.0067 2.15169 11.7717 1.80791 12.3718L1.17769 13.4717C1.17699 13.473 1.17742 13.4745 1.17864 13.4752C1.17977 13.4758 1.18023 13.4772 1.17971 13.4784C1.14078 13.5679 1.12316 13.6654 1.12827 13.7631C1.13342 13.8615 1.16151 13.9573 1.21027 14.0427C1.25939 14.128 1.32779 14.2005 1.40992 14.2542C1.49121 14.3074 1.58367 14.3406 1.67995 14.3514C1.68165 14.3516 1.68294 14.3531 1.68294 14.3548C1.68294 14.3566 1.68444 14.3581 1.68629 14.3581H2.93954C3.63355 14.3581 4.19615 14.9207 4.19615 15.6147V16.8807C4.19615 16.8822 4.19736 16.8834 4.19886 16.8834C4.20024 16.8834 4.2014 16.8844 4.20156 16.8858C4.22365 17.0768 4.33018 17.2554 4.508 17.359C4.59291 17.4082 4.68817 17.4365 4.786 17.4416C4.88286 17.4467 4.97954 17.4289 5.06831 17.3896C5.06983 17.3889 5.07162 17.3895 5.07243 17.3909C5.07331 17.3925 5.0753 17.393 5.07685 17.3921L6.22219 16.7258C6.80915 16.3843 7.56192 16.586 7.89949 17.1752L8.51116 18.2429C8.5119 18.2442 8.51356 18.2447 8.51484 18.2439C8.51604 18.2432 8.51756 18.2435 8.51837 18.2446C8.57588 18.3233 8.65082 18.3874 8.73725 18.4317C8.8244 18.4764 8.92077 18.4998 9.01856 18.5C9.22409 18.5 9.40513 18.3987 9.51891 18.2446C9.5199 18.2432 9.52173 18.2428 9.52317 18.2437C9.52474 18.2445 9.52673 18.244 9.52763 18.2424L10.1544 17.1485C10.4947 16.5545 11.2535 16.3512 11.8452 16.6954L12.9148 17.3176C12.916 17.3184 12.9177 17.3179 12.9185 17.3166C12.9191 17.3154 12.9206 17.315 12.9219 17.3155C13.0107 17.3547 13.1074 17.3724 13.2042 17.3673C13.3019 17.3621 13.397 17.3338 13.4817 17.2846C13.5665 17.2352 13.6385 17.1663 13.6918 17.0835C13.7446 17.0016 13.7777 16.9084 13.7884 16.8113C13.7885 16.8096 13.79 16.8083 13.7917 16.8083C13.7935 16.8083 13.795 16.8069 13.795 16.805V15.5365C13.795 14.8525 14.3495 14.2979 15.0336 14.2979H16.2696C16.2711 14.2979 16.2722 14.2967 16.2722 14.2953C16.2722 14.294 16.2732 14.2929 16.2746 14.2927C16.371 14.2819 16.4635 14.2485 16.5449 14.1952C16.6269 14.1415 16.6952 14.0691 16.7442 13.9839C16.793 13.8984 16.8211 13.8025 16.8262 13.704C16.8312 13.6065 16.8136 13.5091 16.7748 13.4197C16.7741 13.4182 16.7747 13.4164 16.7762 13.4156C16.7777 13.4147 16.7783 13.4127 16.7774 13.4111L16.1639 12.3403C15.8267 11.7517 16.0277 11.0012 16.6141 10.6601L17.7449 10.0021C17.7462 10.0014 17.7466 9.99972 17.7459 9.99842C17.7452 9.99721 17.7455 9.99568 17.7466 9.99485C17.8247 9.93686 17.8882 9.86129 17.9322 9.77417C17.9766 9.68631 17.9998 9.58917 18 9.49059Z" fill="#A7B5CA"/>
<path d="M5.83829 7.84722C5.83829 7.19175 6.09086 6.74755 6.55299 6.74755C6.99901 6.74755 7.26232 7.17009 7.26232 7.85805V7.90681C7.26232 8.60019 6.98826 9.02272 6.54762 9.02272C6.10698 9.02272 5.83829 8.58936 5.83829 7.89597V7.84722ZM5 7.95014C5 8.97397 5.56424 9.77569 6.53687 9.77569C7.54175 9.77569 8.10061 8.94146 8.10061 7.96098V7.80388C8.10061 6.78547 7.52563 6 6.55299 6C5.58036 6 5 6.79631 5 7.79305V7.95014ZM10.7377 12.0715C10.7377 11.4215 10.9849 10.9773 11.4524 10.9773C11.8984 10.9773 12.1563 11.3998 12.1563 12.0824V12.1365C12.1563 12.8245 11.8823 13.247 11.447 13.247C11.001 13.247 10.7377 12.8137 10.7377 12.1257V12.0715ZM9.89401 12.1799C9.89401 13.2037 10.4583 14 11.4363 14C12.4411 14 13 13.1658 13 12.1907V12.0336C13 11.0152 12.4196 10.2243 11.4524 10.2243C10.4797 10.2243 9.89401 11.0206 9.89401 12.0228V12.1799ZM6.46157 13.5654C6.58432 13.5654 6.69998 13.5078 6.77402 13.4099L9.39704 9.94137L11.8025 6.80438C12.0011 6.54539 11.8164 6.1711 11.49 6.1711C11.3665 6.1711 11.2502 6.22904 11.1758 6.3276L8.59099 9.75177L6.15067 12.9353C5.95313 13.193 6.13687 13.5654 6.46157 13.5654Z" fill="white" stroke="white" stroke-width="0.4"/>
</svg>
