<svg width="18" height="18" viewBox="0 0 18 18" fill="none" xmlns="http://www.w3.org/2000/svg">
<path d="M14.2838 5.55103C14.5673 5.26753 14.7233 4.89103 14.7233 4.49053C14.7233 4.09003 14.5673 3.71353 14.2838 3.43003L13.0942 2.24053C12.8108 1.95703 12.4342 1.80103 12.0338 1.80103C11.6333 1.80103 11.2568 1.95703 10.974 2.23978L3.29399 9.89594C3.10578 10.0836 3 10.3384 3 10.6041V12.5003C3 13.0526 3.44772 13.5003 4 13.5003H5.89645C6.16113 13.5003 6.41501 13.3953 6.60245 13.2085L14.2838 5.55103ZM12.0338 3.30103L13.224 4.48978L12.0315 5.67778L10.842 4.48903L12.0338 3.30103ZM5.34155 12.0003C4.87761 12.0003 4.5 11.6242 4.5 11.1602C4.5 10.937 4.58886 10.7229 4.74697 10.5653L9.78 5.54803L10.9695 6.73752L5.93676 11.7545C5.77889 11.9119 5.56445 12.0003 5.34155 12.0003ZM3 15.7503C3 15.3361 3.33579 15.0003 3.75 15.0003H14.25C14.6642 15.0003 15 15.3361 15 15.7503C15 16.1645 14.6642 16.5003 14.25 16.5003H3.75C3.33579 16.5003 3 16.1645 3 15.7503Z" fill="#0560A6" stroke="white" stroke-width="0.3"/>
</svg>
