<svg width="17" height="17" viewBox="0 0 17 17" fill="none" xmlns="http://www.w3.org/2000/svg">
<path d="M8.49979 0.606934C12.8586 0.606934 16.3926 4.14096 16.3926 8.49979C16.3926 12.8586 12.8586 16.3926 8.49979 16.3926C4.14096 16.3926 0.606934 12.8586 0.606934 8.49979C0.606934 4.14096 4.14096 0.606934 8.49979 0.606934ZM8.49979 1.59354C4.68557 1.59354 1.59354 4.68557 1.59354 8.49979C1.59354 12.314 4.68557 15.406 8.49979 15.406C12.314 15.406 15.406 12.314 15.406 8.49979C15.406 4.68557 12.314 1.59354 8.49979 1.59354ZM8.49979 4.55336C8.63062 4.55336 8.7561 4.60534 8.84861 4.69785C8.94112 4.79036 8.9931 4.91583 8.9931 5.04667V8.00649H11.9529C12.0837 8.00649 12.2092 8.05846 12.3017 8.15097C12.3942 8.24349 12.4462 8.36896 12.4462 8.49979C12.4462 8.63062 12.3942 8.7561 12.3017 8.84861C12.2092 8.94112 12.0837 8.9931 11.9529 8.9931H8.9931V11.9529C8.9931 12.0837 8.94112 12.2092 8.84861 12.3017C8.7561 12.3942 8.63062 12.4462 8.49979 12.4462C8.36896 12.4462 8.24349 12.3942 8.15097 12.3017C8.05846 12.2092 8.00649 12.0837 8.00649 11.9529V8.9931H5.04667C4.91583 8.9931 4.79036 8.94112 4.69785 8.84861C4.60534 8.7561 4.55336 8.63062 4.55336 8.49979C4.55336 8.36896 4.60534 8.24349 4.69785 8.15097C4.79036 8.05846 4.91583 8.00649 5.04667 8.00649H8.00649V5.04667C8.00649 4.91583 8.05846 4.79036 8.15097 4.69785C8.24349 4.60534 8.36896 4.55336 8.49979 4.55336Z" fill="#F89523" stroke="#F89523" stroke-width="0.4"/>
</svg>
