<svg xmlns="http://www.w3.org/2000/svg" width="42" height="42" viewBox="0 0 42 42">
  <g id="Group_204" data-name="Group 204" transform="translate(-282.12 -153.12)">
    <rect id="Rectangle_33" data-name="Rectangle 33" width="42" height="42" rx="8" transform="translate(282.12 153.12)" fill="#38b24d"/>
    <g id="comments" transform="translate(291.293 159.448)">
      <g id="Group_387" data-name="Group 387" transform="translate(0 0)">
        <path id="Path_1327" data-name="Path 1327" d="M22.621,3.67A12.247,12.247,0,0,0,1.636,12.618a11.672,11.672,0,0,0,.837,4.1A12.132,12.132,0,0,0,4.2,19.748l-1.01,2.4a1.815,1.815,0,0,0,1.992,2.511l4.676-.808A12.263,12.263,0,0,0,22.621,3.67ZM12.98,17.15h-3.2a.924.924,0,0,1,0-1.847h3.2a.93.93,0,0,1,.924.924A.912.912,0,0,1,12.98,17.15ZM17.973,13.4h-8.2a.93.93,0,0,1-.924-.924.912.912,0,0,1,.924-.924h8.2a.924.924,0,0,1,0,1.847Zm0-3.781h-8.2a.924.924,0,1,1,0-1.847h8.2a.93.93,0,0,1,.924.924A.95.95,0,0,1,17.973,9.616Z" transform="translate(-1.63 2)" fill="#fff"/>
      </g>
    </g>
  </g>
</svg>
