<svg xmlns="http://www.w3.org/2000/svg" width="42" height="42" viewBox="0 0 42 42">
  <g id="Group_376" data-name="Group 376" transform="translate(-44 -345)">
    <rect id="Rectangle_31" data-name="Rectangle 31" width="42" height="42" rx="8" transform="translate(44 345)" fill="#1067b0"/>
    <g id="invoice_1_" data-name="invoice (1)" transform="translate(55.62 351.3)">
      <g id="Group_385" data-name="Group 385">
        <path id="Path_1324" data-name="Path 1324" d="M82.188,0H65a.73.73,0,0,0-.729.729V22.022a.73.73,0,0,0,.214.516l2.149,2.149a.73.73,0,0,0,1.032,0L69.3,23.053l1.633,1.633a.729.729,0,0,0,1.032,0l1.633-1.633,1.633,1.633a.729.729,0,0,0,1.032,0l1.633-1.633,1.633,1.633a.729.729,0,0,0,1.032,0L82.7,22.538a.729.729,0,0,0,.214-.516V.729A.729.729,0,0,0,82.188,0ZM72.863,5.479V4.636a.729.729,0,0,1,1.459,0V5.47h.833a.729.729,0,1,1,0,1.459H73.072a.833.833,0,0,0,0,1.667h1.042a2.292,2.292,0,0,1,.208,4.575v.843a.729.729,0,0,1-1.459,0v-.833H72.03a.729.729,0,1,1,0-1.459h2.084a.833.833,0,1,0,0-1.666H73.072a2.292,2.292,0,0,1-.209-4.575ZM77.5,18.649H69.686a.729.729,0,0,1,0-1.459H77.5a.729.729,0,1,1,0,1.459Z" transform="translate(-64.268 2)" fill="#fff"/>
      </g>
    </g>
  </g>
</svg>
