<svg xmlns="http://www.w3.org/2000/svg" width="42" height="42" viewBox="0 0 42 42">
  <g id="Group_203" data-name="Group 203" transform="translate(-163.063 -151.063)">
    <rect id="Rectangle_32" data-name="Rectangle 32" width="42" height="42" rx="8" transform="translate(163.063 151.063)" fill="#f7941e"/>
    <g id="servant-outline" transform="translate(173.11 159.425)">
      <g id="Group_386" data-name="Group 386" transform="translate(0 0)">
        <path id="Path_1325" data-name="Path 1325" d="M21.21,13.777l-2.274-.524a8.007,8.007,0,0,0,2.209-3,1.917,1.917,0,0,0,1.574-1.945c.109-1.225-.327-1.73-.889-1.932-.015-.392-.069-.755-.091-1.1C21.484,1.407,19.375-.3,15.964.041a5.33,5.33,0,0,1-1.328,0,5.125,5.125,0,0,0-4.545,2.306,6.06,6.06,0,0,0-.728,4.062c-.514.224-.9.739-.793,1.895a1.923,1.923,0,0,0,1.5,1.931,8.2,8.2,0,0,0,2.243,3.021l-2.256.519a6.484,6.484,0,0,0-5.236,6.175v3.5a1.914,1.914,0,0,0,1.97,1.822H24.48a1.907,1.907,0,0,0,1.962-1.821v-3.5A6.483,6.483,0,0,0,21.21,13.777ZM8.563,24.168H6.791a.756.756,0,0,1-.768-.713v-3.5a5.172,5.172,0,0,1,2.54-4.369Zm1.989-17.16a1.519,1.519,0,0,1,.078-.479,5.182,5.182,0,0,1,.5-1.061,2.485,2.485,0,0,1,1.4-1.06l.053-.017a.5.5,0,0,1,.556.177.415.415,0,0,1-.051.541c-.028.028-.056.055-.085.082a.261.261,0,0,0-.05.321.309.309,0,0,0,.315.145,11.134,11.134,0,0,0,5.072-2,1.13,1.13,0,0,1,1.479.078,2.433,2.433,0,0,1,.69,1.327,12,12,0,0,1,.141,1.946c0,2.9-2.25,6.4-5.045,6.4S10.551,9.908,10.551,7.008Zm5.526,17.16h-.869l-4.135-9.473,2.583-.6a4.768,4.768,0,0,0,1.94.42,4.908,4.908,0,0,0,2-.43l2.627.614Zm9.163-.713a.749.749,0,0,1-.761.713H22.745V15.609a5.159,5.159,0,0,1,2.495,4.344v3.5Z" transform="translate(-4.822 0)" fill="#fff"/>
        <circle id="Ellipse_75" data-name="Ellipse 75" cx="0.962" cy="0.962" r="0.962" transform="translate(9.84 17.749)" fill="#fff"/>
        <circle id="Ellipse_76" data-name="Ellipse 76" cx="0.962" cy="0.962" r="0.962" transform="translate(9.84 19.222)" fill="#fff"/>
        <path id="Path_1326" data-name="Path 1326" d="M24.941,27.138l-1.733.5c-.027.007-.053.013-.081.018a1.538,1.538,0,0,0-2.089,0c-.027,0-.054-.011-.08-.018l-1.727-.5a.791.791,0,0,0-1.009.779v1.965a.791.791,0,0,0,1.011.779l1.8-.526a1.527,1.527,0,0,0,2.1,0l1.808.526a.8.8,0,0,0,1.018-.779V27.916A.8.8,0,0,0,24.941,27.138Z" transform="translate(-11.281 -12.894)" fill="#fff"/>
      </g>
    </g>
  </g>
</svg>
