<svg xmlns="http://www.w3.org/2000/svg" width="30.654" height="25.815" viewBox="0 0 30.654 25.815">
  <g id="sun" transform="translate(0 -0.842)">
    <path id="Path_463" data-name="Path 463" d="M11.264,2.645a1.734,1.734,0,1,1,3.466,0v1.8a1.734,1.734,0,1,1-3.466,0Zm-7.8,9.918a1.72,1.72,0,0,1,1.733,1.8,1.72,1.72,0,0,1-1.733,1.8H1.733A1.72,1.72,0,0,1,0,14.366a1.72,1.72,0,0,1,1.733-1.8ZM6.821,6.29a1.814,1.814,0,0,1,0,2.55,1.653,1.653,0,0,1-2.45,0L3.144,7.566a1.815,1.815,0,0,1,0-2.551,1.654,1.654,0,0,1,2.451,0Zm14.8,2.55a1.653,1.653,0,0,1-2.45,0,1.814,1.814,0,0,1,0-2.55L20.4,5.015a1.653,1.653,0,0,1,2.45,0,1.814,1.814,0,0,1,0,2.55Z" transform="translate(0 0)" fill="#ffac33"/>
    <path id="Path_464" data-name="Path 464" d="M14.629,22.729a7.26,7.26,0,1,0-7.26-7.26A7.26,7.26,0,0,0,14.629,22.729Z" transform="translate(-1.722 -1.721)" fill="#ffac33"/>
    <path id="Path_465" data-name="Path 465" d="M25.118,17.593a6.391,6.391,0,0,0-1.859.274,5.126,5.126,0,0,0-9.748.432,3.549,3.549,0,0,0-2.118-.706,3.489,3.489,0,0,0-3.529,3.449,3.379,3.379,0,0,0,.265,1.306,3.991,3.991,0,0,0-1.05-.156,3.833,3.833,0,1,0,0,7.664H25.117a6.132,6.132,0,1,0,0-12.262Z" transform="translate(-0.738 -3.198)" fill="#d4ebfb"/>
  </g>
</svg>
