<svg width="33" height="32" viewBox="0 0 33 32" fill="none" xmlns="http://www.w3.org/2000/svg">
<path d="M16.0001 2.66699C8.77208 2.66699 2.66675 8.77233 2.66675 16.0003C2.66675 23.2283 8.77208 29.3337 16.0001 29.3337C23.2281 29.3337 29.3334 23.2283 29.3334 16.0003C29.3334 8.77233 23.2281 2.66699 16.0001 2.66699ZM16.0001 9.33366C18.3027 9.33366 20.0001 11.0297 20.0001 13.3337C20.0001 15.6377 18.3027 17.3337 16.0001 17.3337C13.6987 17.3337 12.0001 15.6377 12.0001 13.3337C12.0001 11.0297 13.6987 9.33366 16.0001 9.33366ZM9.19208 22.363C10.3881 20.603 12.3827 19.4297 14.6667 19.4297H17.3334C19.6187 19.4297 21.6121 20.603 22.8081 22.363C21.1041 24.187 18.6867 25.3337 16.0001 25.3337C13.3134 25.3337 10.8961 24.187 9.19208 22.363Z" fill="#A7B5CA"/>
<ellipse cx="24.5" cy="24.5" rx="8.5" ry="7.5" fill="white"/>
<path d="M31.9704 21.5322C31.934 21.5475 31.9376 21.5904 31.9139 21.6145C31.8913 21.6145 31.8691 21.6141 31.8465 21.6141C31.4279 21.6145 31.3139 21.5085 31.2891 21.0939C31.2873 21.0618 31.2877 21.0305 31.2578 21.0097C31.5256 20.8553 31.8148 20.9485 31.9391 21.229C31.9478 21.2487 31.9598 21.2673 31.9704 21.2862C31.9704 21.3686 31.9704 21.4505 31.9704 21.5322Z" fill="#FDC53D"/>
<path d="M22.7029 26.2613C23.3816 24.9702 24.0607 23.6794 24.739 22.3883C24.8254 22.224 24.9088 22.0582 24.9933 21.8936C25.0541 21.9129 25.0658 21.9602 25.0862 21.9988C25.5991 22.9766 26.111 23.9552 26.6243 24.933C26.8334 25.3312 27.0444 25.7286 27.2553 26.1257C27.334 26.274 27.3373 26.2747 27.4571 26.1472C28.0331 25.5352 28.608 24.9224 29.1832 24.3097C29.7523 23.7038 30.3213 23.0976 30.89 22.4914C30.9235 22.4553 30.9552 22.4174 30.9877 22.3806C30.9982 22.3868 31.0088 22.3934 31.019 22.3996C30.9662 22.5781 30.9144 22.757 30.8605 22.9351C30.2638 24.9071 29.6667 26.8791 29.0692 28.8511C29.047 28.9247 29.0215 28.9976 28.9978 29.0708C27.0451 29.0705 25.092 29.0701 23.1393 29.0697C23.1029 28.8562 23.0646 28.6431 23.0308 28.4293C22.9597 27.9837 22.8865 27.5385 22.8231 27.0919C22.783 26.8147 22.7185 26.5414 22.7029 26.2613Z" fill="#FDC53D"/>
<path d="M22.7028 26.2625C22.7184 26.5426 22.7829 26.8158 22.8223 27.0927C22.8857 27.5394 22.9589 27.9846 23.0299 28.4301C23.0642 28.644 23.1024 28.8571 23.1385 29.0706L23.1374 29.0717C22.4306 29.0717 21.7239 29.072 21.0171 29.072C20.342 26.8413 19.6673 24.611 18.9854 22.3574C19.0855 22.4503 19.1726 22.5228 19.2495 22.6044C19.9413 23.3392 20.6313 24.0755 21.322 24.811C21.745 25.2617 22.168 25.7127 22.5917 26.163C22.6263 26.1991 22.6656 26.2293 22.7028 26.2625Z" fill="#FDAA27"/>
<path d="M23.1389 29.0684C25.0916 29.0687 27.0447 29.0691 28.9974 29.0695C28.9395 29.3354 28.8517 29.5926 28.7675 29.8505C28.7289 29.9686 28.6243 29.9992 28.5037 29.9988C27.6185 29.9966 26.7332 29.9981 25.8479 29.9973C24.99 29.9966 24.132 29.9944 23.2741 29.993C23.2289 29.6851 23.1834 29.3773 23.1382 29.0691L23.1389 29.0684Z" fill="#FDAA27"/>
<path d="M23.1377 29.0723C23.1829 29.3801 23.2285 29.6879 23.2736 29.9961C22.674 29.9976 22.0743 29.9987 21.4747 30.0009C21.345 30.0012 21.2717 29.9251 21.2368 29.8136C21.1595 29.5681 21.09 29.32 21.0171 29.0726C21.7242 29.0726 22.431 29.0726 23.1377 29.0723Z" fill="#FD9419"/>
<path d="M24.7443 20.0742C24.9935 19.9521 25.2431 19.9904 25.4267 20.1787C25.6132 20.37 25.6427 20.6141 25.5108 20.8767C25.4729 20.8308 25.431 20.8563 25.387 20.8658C25.1808 20.9099 24.9152 20.7784 24.8095 20.597C24.7123 20.4297 24.7148 20.2549 24.7443 20.0742Z" fill="#FDC53D"/>
<path d="M24.7444 20.0742C24.7149 20.2549 24.7123 20.4294 24.81 20.5974C24.9153 20.7788 25.1812 20.9103 25.3874 20.8662C25.4311 20.8568 25.4734 20.8313 25.5113 20.8772C25.3856 21.0899 25.1448 21.2094 24.9284 21.1664C24.6493 21.111 24.4559 20.9048 24.4249 20.6302C24.4005 20.4174 24.5389 20.177 24.7444 20.0742Z" fill="#FDAB29"/>
<path d="M18.2278 21.0092C18.43 20.8926 18.6293 20.9079 18.7921 21.0525C18.9444 21.188 18.9808 21.4103 18.8843 21.6135C18.8253 21.6135 18.7662 21.6135 18.7072 21.6135C18.4391 21.6128 18.2609 21.4328 18.2577 21.1625C18.2573 21.1108 18.2792 21.0521 18.2278 21.0092Z" fill="#FDC53D"/>
<path d="M31.2575 21.0088C31.2877 21.0296 31.287 21.0609 31.2888 21.0929C31.3139 21.5075 31.4276 21.6132 31.8462 21.6132C31.8688 21.6132 31.891 21.6135 31.9136 21.6135C31.8047 21.8125 31.6298 21.8955 31.4017 21.8565C31.2404 21.8292 31.0812 21.6682 31.0473 21.4988C31.0072 21.297 31.0841 21.1174 31.2575 21.0088Z" fill="#FDAB29"/>
<path d="M18.2278 21.0088C18.2788 21.0518 18.2569 21.1104 18.2576 21.1622C18.2609 21.4325 18.4391 21.6125 18.7075 21.6132C18.7666 21.6132 18.8256 21.6132 18.8846 21.6132C18.7779 21.8088 18.6095 21.8915 18.3873 21.8573C18.2143 21.8307 18.0547 21.6758 18.0183 21.4995C17.9778 21.3053 18.0594 21.1148 18.2278 21.0088Z" fill="#FDAB29"/>
</svg>
