<svg width="14" height="13" viewBox="0 0 14 13" fill="none" xmlns="http://www.w3.org/2000/svg">
<path d="M6.14739 0.981226C6.44375 0.0537061 7.75615 0.0537051 8.05251 0.981225L8.87586 3.55806C9.00826 3.97245 9.39338 4.2537 9.82841 4.2537H12.528C13.4927 4.2537 13.8981 5.48477 13.1222 6.058L10.9095 7.69279C10.5649 7.94741 10.4208 8.39329 10.5512 8.80144L11.3896 11.4252C11.6849 12.3495 10.6232 13.1104 9.84277 12.5339L7.69418 10.9464C7.341 10.6855 6.8589 10.6855 6.50572 10.9464L4.35714 12.5339C3.57673 13.1104 2.51503 12.3495 2.81035 11.4252L3.64869 8.80144C3.7791 8.39329 3.63499 7.94741 3.29036 7.69279L1.07767 6.058C0.301796 5.48477 0.707238 4.2537 1.6719 4.2537H4.37149C4.80652 4.2537 5.19164 3.97245 5.32405 3.55806L6.14739 0.981226Z" fill="#D1D1D1"/>
</svg>
