<svg width="44" height="44" viewBox="0 0 44 44" fill="none" xmlns="http://www.w3.org/2000/svg">
<path d="M19.4173 24.4711L20.9936 23.5603L18.9494 21.8407L19.4173 24.4711Z" fill="#D92A30"/>
<path d="M42.75 21.9806V21.9791C42.75 21.3254 42.457 20.7468 42.0068 20.356C41.9523 20.2915 41.886 20.235 41.8088 20.1901L39.3918 18.7839C38.413 18.2145 38.0773 16.9619 38.6403 15.9794L40.0336 13.5474C40.0733 13.478 40.1009 13.4049 40.1169 13.3306C40.2141 13.0611 40.2567 12.7744 40.2417 12.4873C40.2242 12.1519 40.1284 11.8251 39.9619 11.5333L39.9605 11.531C39.7928 11.2395 39.5589 10.9915 39.2773 10.8074C39.0409 10.6528 38.7766 10.547 38.4999 10.4959C38.4225 10.4692 38.3394 10.4547 38.253 10.4547H35.4674C34.3393 10.4547 33.4247 9.54016 33.4247 8.412V5.59851C33.4247 5.5173 33.4119 5.43907 33.3882 5.36574C33.3384 5.08487 33.2333 4.81609 33.0781 4.57552C32.8961 4.29321 32.6502 4.05754 32.3601 3.88803L32.3582 3.88698C32.0669 3.71783 31.7396 3.62032 31.403 3.60275C31.121 3.58802 30.8395 3.62982 30.5747 3.725C30.4944 3.74085 30.4152 3.7701 30.3404 3.81363L27.7949 5.29463C26.8505 5.84413 25.6392 5.51956 25.096 4.57145L23.7366 2.19847C23.696 2.12773 23.6458 2.06602 23.5885 2.01407C23.4055 1.79542 23.1803 1.61509 22.9257 1.48445C22.6267 1.33108 22.2958 1.25067 21.9597 1.25H21.9582C21.3038 1.25 20.7266 1.54781 20.3392 2.00154C20.2754 2.0563 20.2197 2.1227 20.1755 2.19985L18.7826 4.63111C18.2334 5.58957 17.0089 5.91766 16.0541 5.36215L13.6772 3.97924C13.6065 3.93809 13.5319 3.90971 13.456 3.89338C13.188 3.79583 12.9027 3.75302 12.6169 3.76821C12.2812 3.78605 11.9548 3.88336 11.664 4.05189L11.6621 4.05301C11.3714 4.22264 11.1251 4.45867 10.9429 4.74147C10.7902 4.97841 10.686 5.24269 10.6354 5.51892C10.6086 5.59653 10.594 5.67987 10.594 5.76662V8.58627C10.594 9.69209 9.69753 10.5885 8.59171 10.5885H5.84525C5.76447 10.5885 5.68665 10.6012 5.61367 10.6247C5.33199 10.675 5.06295 10.7819 4.82274 10.9392C4.54164 11.1233 4.30808 11.3711 4.14055 11.6623L4.13919 11.6647C3.97261 11.9567 3.8769 12.2838 3.85948 12.6194C3.84488 12.901 3.88569 13.1822 3.9791 13.4472C3.99441 13.5279 4.02319 13.6074 4.06624 13.6826L5.40734 16.0235C5.96405 16.9952 5.63209 18.2341 4.66411 18.7973L2.1898 20.2369C2.11915 20.278 2.05764 20.3288 2.00598 20.3867C1.78869 20.5713 1.61019 20.798 1.48118 21.0533C1.32976 21.3531 1.25066 21.6842 1.25 22.02V22.0214C1.25 22.6747 1.54273 23.2541 1.99358 23.6449C2.04801 23.7093 2.1142 23.7656 2.19122 23.8104L4.62054 25.2237C5.5925 25.7892 5.92582 27.0331 5.36682 28.0088L3.96632 30.4533C3.92671 30.5224 3.89924 30.5951 3.88323 30.669C3.7859 30.9386 3.74326 31.2255 3.75829 31.5127C3.77585 31.8481 3.8716 32.1749 4.03812 32.4667L4.03946 32.469C4.20722 32.7605 4.44116 33.0085 4.7227 33.1926C4.95834 33.3467 5.22167 33.4523 5.49741 33.5036C5.57565 33.5309 5.65974 33.5458 5.7473 33.5458H8.53232C9.66034 33.5458 10.5748 34.4602 10.5748 35.5883V38.4015C10.5748 38.4838 10.5879 38.563 10.6122 38.6372C10.7193 39.2288 11.0712 39.7811 11.6404 40.1125L11.6416 40.1132C11.9329 40.2821 12.2601 40.3795 12.5964 40.3971C12.8784 40.4118 13.1597 40.3701 13.4244 40.2751C13.5049 40.2592 13.5841 40.23 13.6591 40.1864L16.2042 38.7056C17.1489 38.156 18.3604 38.4806 18.9036 39.4289L20.2629 41.8015C20.3035 41.8723 20.3537 41.934 20.4109 41.9859C20.5939 42.2046 20.8191 42.3849 21.0738 42.5155C21.3728 42.6689 21.7037 42.7493 22.0398 42.75H22.0412C22.6971 42.75 23.2753 42.4509 23.6627 41.9961C23.7252 41.9419 23.7798 41.8764 23.8233 41.8005L25.2161 39.3695C25.7654 38.4107 26.9903 38.0824 27.9455 38.6381L30.3223 40.0208C30.393 40.0619 30.4676 40.0903 30.5434 40.1066C30.8114 40.2042 31.0967 40.247 31.3826 40.2318C31.7183 40.214 32.0447 40.1166 32.3355 39.9481L32.3372 39.9471C32.628 39.7776 32.8744 39.5415 33.0567 39.2586C33.2095 39.0216 33.3137 38.7572 33.3642 38.4809C33.391 38.4033 33.4055 38.3201 33.4055 38.2334V35.4145C33.4055 34.3086 34.3021 33.412 35.408 33.412H38.1548C38.2355 33.412 38.3134 33.3993 38.3863 33.3759C38.668 33.3255 38.9371 33.2186 39.1773 33.0613C39.4584 32.8772 39.6919 32.6294 39.8595 32.3382L39.8608 32.3358C40.0274 32.0438 40.1231 31.7167 40.1405 31.3811C40.1551 31.0994 40.1143 30.8181 40.0208 30.553C40.0055 30.4727 39.9768 30.3935 39.9338 30.3186L38.5705 27.9389C38.0261 26.9886 38.3507 25.777 39.2974 25.2262L41.8102 23.7641C41.8809 23.723 41.9425 23.6721 41.9942 23.6142C42.2114 23.4294 42.3899 23.2027 42.5189 22.9473C42.6703 22.6475 42.7493 22.3164 42.75 21.9806ZM12.6415 4.25614C12.6419 4.2554 12.6423 4.25467 12.6427 4.25394L12.6415 4.25614ZM4.25267 31.4881C4.25198 31.4877 4.25129 31.4873 4.25059 31.4869L4.25267 31.4881ZM31.3579 39.7441C31.3575 39.7447 31.3571 39.7454 31.3568 39.7461L31.3579 39.7441ZM20.4566 3.21651C20.4568 3.21663 20.457 3.21676 20.4572 3.21688L20.4566 3.21651ZM4.98572 30.1794C4.98619 30.1797 4.98666 30.1799 4.98714 30.1802L4.98572 30.1794Z" fill="#D92A30" stroke="white" stroke-width="1.5"/>
</svg>
