<svg width="24" height="21" viewBox="0 0 24 21" fill="none" xmlns="http://www.w3.org/2000/svg">
<path d="M19.8075 11.3283H7.64755C7.06791 11.3283 6.59798 10.8658 6.59798 10.2955C6.59798 9.72512 7.06791 9.26271 7.64755 9.26271H19.8075L18.4505 7.9274C18.0406 7.52407 18.0406 6.87018 18.4505 6.46685C18.8603 6.06352 19.5249 6.06352 19.9348 6.46685L23.0833 9.56511C23.1079 9.58927 23.1311 9.61461 23.1531 9.64105C23.1627 9.65255 23.171 9.66473 23.18 9.67651C23.1916 9.69165 23.2035 9.70646 23.2142 9.72222C23.224 9.73661 23.2324 9.75156 23.2414 9.76629C23.25 9.78047 23.259 9.79431 23.2669 9.80891C23.2752 9.82406 23.2821 9.83962 23.2895 9.85504C23.2968 9.87012 23.3044 9.88499 23.3109 9.90041C23.3172 9.91549 23.3224 9.93084 23.3279 9.94613C23.334 9.96265 23.3405 9.97897 23.3457 9.99584C23.3503 10.0111 23.3538 10.0266 23.3577 10.0421C23.3621 10.0593 23.367 10.0763 23.3705 10.0938C23.3741 10.1116 23.3762 10.1297 23.3788 10.1477C23.3811 10.163 23.3841 10.1782 23.3856 10.1937C23.389 10.227 23.3907 10.2606 23.3908 10.294C23.3908 10.2945 23.3909 10.2951 23.3909 10.2956C23.3909 10.296 23.3908 10.2966 23.3908 10.2971C23.3907 10.3306 23.389 10.3641 23.3856 10.3975C23.3841 10.4128 23.3811 10.4277 23.379 10.443C23.3763 10.4611 23.3741 10.4793 23.3705 10.4974C23.367 10.5147 23.3622 10.5315 23.3578 10.5485C23.3538 10.5641 23.3503 10.5799 23.3455 10.5954C23.3404 10.612 23.334 10.628 23.3282 10.6443C23.3225 10.6598 23.3173 10.6755 23.3109 10.6908C23.3045 10.7059 23.297 10.7204 23.2899 10.7352C23.2823 10.751 23.2752 10.7669 23.2668 10.7824C23.2591 10.7965 23.2504 10.8099 23.242 10.8236C23.2329 10.8389 23.2241 10.8542 23.214 10.869C23.2038 10.8841 23.1924 10.8982 23.1814 10.9127C23.1719 10.9252 23.1631 10.9381 23.153 10.9502C23.132 10.9753 23.1098 10.9993 23.0867 11.0223C23.0856 11.0235 23.0847 11.0247 23.0835 11.0258L19.9348 14.1242C19.7298 14.3258 19.4613 14.4267 19.1927 14.4267C18.9241 14.4266 18.6554 14.3258 18.4505 14.1243C18.0406 13.7209 18.0406 13.067 18.4505 12.6637L19.8075 11.3283Z" fill="#F03131" stroke="white" stroke-width="0.6"/>
<path d="M2.04959 1H15.3441C15.9237 1 16.3937 1.46241 16.3937 2.03277V6.16387C16.3937 6.73424 15.9237 7.19664 15.3441 7.19664C14.7645 7.19664 14.2945 6.73424 14.2945 6.16387V3.06555H3.09916V17.5245H14.2945V14.4261C14.2945 13.8557 14.7645 13.3933 15.3441 13.3933C15.9237 13.3933 16.3937 13.8557 16.3937 14.4261V18.5572C16.3937 19.1276 15.9237 19.59 15.3441 19.59H2.04959C1.46995 19.59 1.00002 19.1276 1.00002 18.5572V2.03277C1.00002 1.46241 1.46995 1 2.04959 1Z" fill="#F03131" stroke="white"/>
<ellipse opacity="0.16" cx="8.78822" cy="9.81518" rx="6.81455" ry="6.70552" fill="#F03131"/>
</svg>
