<svg width="14" height="13" viewBox="0 0 14 13" fill="none" xmlns="http://www.w3.org/2000/svg">
<path d="M6.34747 0.981226C6.64383 0.0537061 7.95622 0.0537051 8.25258 0.981225L9.07593 3.55806C9.20833 3.97245 9.59346 4.2537 10.0285 4.2537H12.7281C13.6927 4.2537 14.0982 5.48477 13.3223 6.058L11.1096 7.69279C10.765 7.94741 10.6209 8.39329 10.7513 8.80144L11.5896 11.4252C11.8849 12.3495 10.8232 13.1104 10.0428 12.5339L7.89426 10.9464C7.54107 10.6855 7.05898 10.6855 6.70579 10.9464L4.55721 12.5339C3.7768 13.1104 2.7151 12.3495 3.01042 11.4252L3.84876 8.80144C3.97917 8.39329 3.83506 7.94741 3.49044 7.69279L1.27774 6.058C0.501869 5.48477 0.907311 4.2537 1.87197 4.2537H4.57156C5.00659 4.2537 5.39171 3.97245 5.52412 3.55806L6.34747 0.981226Z" fill="#F89523"/>
</svg>
