<svg width="12" height="13" viewBox="0 0 12 13" fill="none" xmlns="http://www.w3.org/2000/svg">
<path d="M10.8056 2.70917C10.7457 2.64286 10.6744 2.59026 10.5961 2.55437C10.5177 2.51847 10.4336 2.5 10.3488 2.5C10.2639 2.5 10.1799 2.51847 10.1015 2.55437C10.0231 2.59026 9.95186 2.64286 9.89191 2.70917L4.39685 8.78162L2.10291 6.24964C1.98175 6.11591 1.81742 6.04078 1.64607 6.04078C1.47472 6.04078 1.31039 6.11591 1.18923 6.24964C1.06807 6.38338 1 6.56476 1 6.75389C1 6.84754 1.01671 6.94027 1.04918 7.02679C1.08165 7.11331 1.12924 7.19192 1.18923 7.25814L3.93676 10.2908C4.18949 10.5697 4.59773 10.5697 4.85045 10.2908L10.8056 3.71767C11.0648 3.43872 11.0648 2.98812 10.8056 2.70917Z" fill="#363636" stroke="#363636" stroke-width="0.5"/>
</svg>
