<svg width="20" height="15" viewBox="0 0 20 15" fill="none" xmlns="http://www.w3.org/2000/svg">
<g clip-path="url(#clip0)">
<path d="M20 0.833252H0V14.1667H20V0.833252Z" fill="#F0F0F0"/>
<path d="M11.25 0.833008H8.75V6.24965H0V8.74965H8.75V14.1663H11.25V8.74965H20V6.24965H11.25V0.833008Z" fill="#D80027"/>
<path d="M15.3828 9.8186L20.0006 12.3841V9.8186H15.3828Z" fill="#0052B4"/>
<path d="M12.1738 9.8186L19.9999 14.1664V12.937L14.3869 9.8186H12.1738Z" fill="#0052B4"/>
<path d="M17.9153 14.1666L12.1738 10.9766V14.1666H17.9153Z" fill="#0052B4"/>
<path d="M12.1738 9.8186L19.9999 14.1664V12.937L14.3869 9.8186H12.1738Z" fill="#F0F0F0"/>
<path d="M12.1738 9.8186L19.9999 14.1664V12.937L14.3869 9.8186H12.1738Z" fill="#D80027"/>
<path d="M3.52895 9.8186L0 11.7792V9.8186H3.52895Z" fill="#0052B4"/>
<path d="M7.82645 10.3713V14.1663H0.996094L7.82645 10.3713Z" fill="#0052B4"/>
<path d="M5.61301 9.8186L0 12.937V14.1664L7.82609 9.8186H5.61301Z" fill="#D80027"/>
<path d="M4.61777 5.18095L0 2.61548V5.18095H4.61777Z" fill="#0052B4"/>
<path d="M7.82609 5.18082L0 0.833008V2.06246L5.61301 5.18082H7.82609Z" fill="#0052B4"/>
<path d="M2.08594 0.833008L7.82742 4.02301V0.833008H2.08594Z" fill="#0052B4"/>
<path d="M7.82609 5.18082L0 0.833008V2.06246L5.61301 5.18082H7.82609Z" fill="#F0F0F0"/>
<path d="M7.82609 5.18082L0 0.833008V2.06246L5.61301 5.18082H7.82609Z" fill="#D80027"/>
<path d="M16.4707 5.18101L19.9996 3.22046V5.18101H16.4707Z" fill="#0052B4"/>
<path d="M12.1738 4.6282V0.833252H19.0042L12.1738 4.6282Z" fill="#0052B4"/>
<path d="M14.3869 5.18082L19.9999 2.06246V0.833008L12.1738 5.18082H14.3869Z" fill="#D80027"/>
</g>
<defs>
<clipPath id="clip0">
<rect y="0.833008" width="20.0008" height="13.3338" rx="3" fill="white"/>
</clipPath>
</defs>
</svg>
