<svg width="106" height="18" viewBox="0 0 106 18" fill="none" xmlns="http://www.w3.org/2000/svg">
<path d="M7.29705 7.71167C7.57107 7.41628 7.58716 7.07065 7.68232 6.76164C8.17747 5.1504 8.65975 3.53494 9.15444 1.9237C9.23628 1.65743 9.30524 1.38365 9.62614 1.26671C10.7254 0.866605 11.8123 0.844064 12.8927 1.3226C13.489 1.58652 13.6457 2.12423 13.7023 2.71688C13.8903 4.6822 14.0889 6.64659 14.2581 8.61379C14.3947 10.2015 14.4774 11.794 14.619 13.3808C14.6673 13.9223 14.4719 14.1834 13.9671 14.252C13.6683 14.2928 13.3713 14.3745 13.0715 14.382C11.5566 14.422 11.0969 14.0026 11.0302 12.4749C10.942 10.4556 10.884 8.4344 10.8105 6.4146C10.8022 6.18919 10.776 5.96471 10.7576 5.73178C10.4707 5.77029 10.501 5.97786 10.4588 6.11687C10.0238 7.54777 9.57511 8.97539 9.17835 10.4176C9.02617 10.9712 8.72228 11.2446 8.19724 11.3906C7.68646 11.5329 7.18074 11.5291 6.67639 11.4573C6.00056 11.3615 5.5661 11.0093 5.36886 10.2739C4.98773 8.85235 4.51741 7.4562 4.0834 6.04924C4.02961 5.87455 4.01076 5.67919 3.76572 5.50214C3.60434 6.66115 3.66181 7.76802 3.62365 8.86785C3.56986 10.4124 3.52803 11.9579 3.50688 13.5034C3.50044 13.9829 3.37125 14.2247 2.85357 14.2881C2.27061 14.3595 1.7019 14.4389 1.12262 14.2989C0.191624 14.074 -0.0437697 13.7823 0.00634306 12.806C0.167715 9.66995 0.341502 6.53482 0.51069 3.39922C0.520804 3.20903 0.537355 3.01931 0.545171 2.82958C0.592066 1.68937 0.857339 1.33903 1.97131 1.09155C3.6871 0.710224 5.3399 1.15166 5.80425 3.22875C6.09895 4.54601 6.59042 5.81772 6.99776 7.10822C7.06074 7.30451 7.0704 7.52946 7.29705 7.71167Z" fill="#363636"/>
<path d="M21.357 10.928C21.6559 10.5997 21.7064 10.2362 21.8007 9.90282C22.2995 8.14506 22.768 6.37791 23.0862 4.57648C23.1744 4.07588 23.3845 3.80773 23.8581 3.72648C24.1555 3.6753 24.4511 3.57903 24.7495 3.56963C25.9881 3.53019 26.5954 4.15336 26.4607 5.40488C26.1927 7.89382 25.2663 10.1822 24.2893 12.4458C23.6121 14.0147 22.8121 15.5133 21.7152 16.8324C20.9948 17.6984 20.1097 18.082 19.0036 17.9853C18.4841 17.9398 18.0671 17.7261 17.7397 17.3227C17.1563 16.6032 17.1867 16.2271 17.8652 15.626C18.4459 15.1118 18.9999 14.5708 19.5089 13.9805C19.7176 13.7386 19.7856 13.57 19.4477 13.3808C18.9346 13.0934 18.6542 12.5899 18.4041 12.0762C17.2676 9.7408 16.5973 7.24388 15.9688 4.73192C15.8764 4.36281 15.9977 4.16557 16.3044 3.98618C17.4676 3.30524 19.2284 3.29444 19.6854 5.2964C20.0389 6.84471 20.524 8.36155 20.9603 9.88967C21.0568 10.2269 21.1092 10.5856 21.357 10.928Z" fill="#363636"/>
<path d="M95.9929 9.52788C95.9934 8.50507 96.0053 7.48225 95.9893 6.45991C95.9773 5.69679 96.2812 5.10977 96.9129 4.73549C99.2135 3.37315 101.618 3.13318 104.069 4.23301C105.307 4.78809 105.94 5.88088 105.971 7.24557C106.021 9.4086 105.983 11.574 106 13.738C106.003 14.0949 105.889 14.2188 105.543 14.2846C104.985 14.3907 104.431 14.4236 103.875 14.3541C102.919 14.2343 102.52 13.792 102.505 12.7983C102.484 11.2762 102.505 9.75376 102.494 8.23128C102.483 6.69753 101.779 6.15795 100.311 6.52096C99.7206 6.66701 99.4356 6.93187 99.459 7.64615C99.5229 9.5941 99.46 11.5463 99.499 13.4956C99.5105 14.0775 99.3036 14.3095 98.7754 14.3287C98.7294 14.3306 98.6834 14.3442 98.6375 14.3503C96.5902 14.6363 95.992 14.1104 95.992 12.0243C95.9925 11.1931 95.9925 10.3605 95.9929 9.52788Z" fill="#363636"/>
<path d="M89.4498 11.2146C89.7445 9.92875 90.0405 8.64296 90.3329 7.35669C90.5486 6.40667 90.7817 5.45946 90.9619 4.50239C91.0456 4.05814 91.2722 3.8346 91.6768 3.75383C92.0188 3.68527 92.3618 3.57867 92.7062 3.57068C94.0528 3.54063 94.6486 4.3014 94.3401 5.62993C93.8224 7.85777 93.0809 10.01 92.2248 12.1233C92.1269 12.3651 92.0294 12.607 91.9273 12.8469C91.6621 13.472 91.4915 14.1585 90.6925 14.3516C89.5978 14.6159 88.5275 14.6864 87.5009 14.1186C87.1515 13.9251 87.008 13.5537 86.8664 13.2034C85.7805 10.5181 84.8775 7.76901 84.0964 4.97529C83.9332 4.39203 84.0996 4.11214 84.609 3.86701C85.8044 3.2922 87.3744 3.47019 87.751 5.36554C88.0976 7.11108 88.5983 8.82517 89.0355 10.5519C89.0925 10.7773 89.1753 10.9957 89.2456 11.2174C89.3137 11.2164 89.3817 11.2155 89.4498 11.2146Z" fill="#363636"/>
<path d="M72.7935 9.52635C72.7944 8.48146 72.7985 7.4361 72.7926 6.39122C72.7889 5.69854 73.0211 5.10213 73.6072 4.75368C75.1299 3.84733 76.7671 3.35893 78.5394 3.68766C79.6768 3.89852 80.1343 4.78843 79.8097 5.93475C79.7053 6.30387 79.5269 6.50064 79.1228 6.47857C78.372 6.43771 77.6548 6.67158 76.9248 6.80213C76.4678 6.88384 76.2807 7.10221 76.2894 7.61597C76.322 9.58693 76.2834 11.5593 76.3184 13.5303C76.328 14.0788 76.1473 14.3108 75.6347 14.3187C75.5658 14.3197 75.4977 14.3436 75.4283 14.353C73.3884 14.6348 72.7926 14.1079 72.7926 12.0214C72.7926 11.1892 72.7926 10.358 72.7935 9.52635Z" fill="#363636"/>
<path d="M40.5089 9.5189C40.5094 8.47401 40.514 7.42913 40.5075 6.38424C40.5039 5.77891 40.6593 5.22195 41.1608 4.88336C42.7295 3.82533 44.4563 3.34351 46.3234 3.71215C47.4539 3.93522 47.8962 4.97118 47.4792 6.08275C47.3505 6.4251 47.1307 6.48333 46.8296 6.47206C46.054 6.44341 45.3161 6.68151 44.5639 6.81722C44.1377 6.89424 43.9653 7.12294 43.9718 7.60007C43.9989 9.61846 43.9717 11.6378 43.9911 13.6562C43.9952 14.0657 43.9037 14.2873 43.4725 14.2878C43.312 14.2883 43.1529 14.3493 42.9916 14.3658C41.0349 14.5658 40.5089 14.0821 40.5085 12.0844C40.508 11.2292 40.5085 10.3741 40.5089 9.5189Z" fill="#363636"/>
<path d="M79.8342 12.6102C79.8466 11.4925 80.6939 10.6829 81.8364 10.697C82.9959 10.711 83.7955 11.5113 83.7922 12.6538C83.789 13.7861 82.972 14.5609 81.7941 14.5497C80.6241 14.5384 79.8218 13.7438 79.8342 12.6102Z" fill="#363636"/>
<path d="M58.8465 6.80008C58.8465 5.11229 58.8529 3.42498 58.8442 1.73719C58.8382 0.576309 58.4598 0.159763 57.3316 0.0184099C56.8622 -0.0402916 56.407 0.0555092 55.9445 0.108575C55.4912 0.160702 55.3004 0.334459 55.3285 0.827082C55.3685 1.53761 55.3349 2.25236 55.3391 2.9657C55.3437 3.81053 55.3464 3.81053 54.5538 3.6518C52.1438 3.1681 49.5982 4.47597 48.7559 6.69207C48.1702 8.23381 48.1849 9.81264 48.7614 11.3624C49.2129 12.5754 50.0359 13.4681 51.2142 13.9542C53.4316 14.869 55.6204 14.7562 57.7449 13.6268C58.4893 13.2314 58.863 12.6035 58.852 11.7202C58.8322 10.0803 58.8465 8.43997 58.8465 6.80008ZM54.7777 11.6056C53.4237 11.8897 52.2404 11.3849 51.9728 9.91032C51.8569 9.27259 51.873 8.64096 52.0325 8.00323C52.3976 6.54132 53.918 6.2713 55.0232 6.55823C55.3391 6.63994 55.3786 6.87334 55.3726 7.16027C55.3602 7.77828 55.3689 8.39676 55.3689 9.01524C55.3689 9.60977 55.3381 10.2066 55.3786 10.7988C55.4117 11.2821 55.1804 11.5211 54.7777 11.6056Z" fill="#363636"/>
<path d="M33.1432 3.56162C29.8808 3.54518 27.6777 5.71995 27.6566 8.97765C27.6345 12.3438 29.7323 14.5148 33.0425 14.551C36.4208 14.5881 38.5701 12.5077 38.5968 9.17489C38.6239 5.80918 36.4562 3.57805 33.1432 3.56162ZM35.0222 8.97671C35.0222 9.52804 34.9923 10.0033 34.8195 10.4536C34.5542 11.1449 34.1114 11.607 33.3377 11.6709C32.4986 11.7399 31.8568 11.4215 31.5231 10.6387C31.0647 9.56373 31.072 8.45779 31.5667 7.3913C31.9226 6.62396 32.58 6.39713 33.3703 6.4718C34.1059 6.5413 34.5556 6.97663 34.8057 7.64912C34.9726 8.09713 35.0443 8.56768 35.0222 8.97671Z" fill="#363636"/>
<path d="M64.7837 10.3357C66.4406 10.1107 68.0911 9.8285 69.737 9.52701C70.6602 9.35795 71.0082 8.87519 70.9682 7.92751C70.9094 6.53652 70.3577 5.37001 69.2294 4.58904C67.3252 3.27084 65.2664 3.21308 63.267 4.2636C61.485 5.20001 60.7866 6.87981 60.7857 9.33024C60.7618 10.9678 61.4491 12.7312 63.2923 13.7282C65.3768 14.8552 67.5886 14.8782 69.7412 13.8531C70.5724 13.4572 70.7604 12.4071 70.2703 11.6478C70.0391 11.2899 69.7995 11.1312 69.3481 11.3453C68.4019 11.7938 67.3826 11.9131 66.3501 11.8136C65.6696 11.7483 65.0205 11.5557 64.5584 10.9814C64.2922 10.6508 64.1391 10.423 64.7837 10.3357ZM64.1079 7.45555C64.323 6.74597 65.0867 6.2834 66.0581 6.28622C66.6337 6.25522 67.1532 6.46326 67.5219 6.99815C67.6939 7.24704 67.6911 7.44334 67.3422 7.49923C66.3547 7.65608 65.3685 7.82044 64.3786 7.96132C63.9125 8.02848 64.0338 7.69928 64.1079 7.45555Z" fill="#363636"/>
</svg>
