<svg width="35" height="25" viewBox="0 0 35 25" fill="none" xmlns="http://www.w3.org/2000/svg">
<path d="M27.234 9.39277C25.7406 8.0043 23.2817 7.95303 21.468 9.10418C21.2666 9.23209 21.1302 9.22892 20.9234 9.10524C19.3975 8.19087 17.8038 8.00958 16.1431 8.72522C15.7728 8.88484 15.4627 9.13695 15.1574 9.39329C14.9975 9.41179 14.8878 9.29816 14.7551 9.24425C13.8174 8.55239 12.7597 8.24478 11.5966 8.27755C11.5401 8.19616 11.5625 8.10948 11.5785 8.0228C11.7991 6.81086 12.1715 5.65336 12.8525 4.61109C13.3048 3.91871 13.8408 3.30349 14.5665 2.87696C15.4963 2.33045 16.4702 2.2147 17.4916 2.59736C18.3803 3.40127 18.9819 4.39545 19.4374 5.48635C19.6378 5.96573 19.7907 6.46044 19.9356 6.95885C20.0257 7.26805 20.2351 7.47787 20.5633 7.53654C20.8861 7.59468 21.1611 7.49426 21.3619 7.23263C21.5575 6.97841 21.5447 6.6967 21.4626 6.40336C21.0982 5.0984 20.5595 3.87272 19.7854 2.75328C19.8418 2.62168 19.975 2.60318 20.0869 2.56406C21.0961 2.211 22.0535 2.33679 22.9625 2.88224C23.1367 2.98689 23.3051 3.10212 23.4601 3.23266C23.5875 3.33943 23.6983 3.36797 23.8272 3.23531C23.8939 3.16713 23.9754 3.10793 24.0819 3.10899C24.8263 3.90285 25.3063 4.84893 25.6809 5.85315C25.8194 6.22418 25.9217 6.6079 26.0475 6.98316C26.1737 7.36107 26.4934 7.57407 26.8797 7.5487C27.2457 7.52491 27.5399 7.2617 27.6182 6.89543C27.6528 6.73317 27.6107 6.58095 27.5697 6.4282C27.1845 4.99428 26.5685 3.66765 25.6852 2.46681C25.9952 2.26544 26.3277 2.37961 26.6399 2.4314C27.5638 2.58468 28.2831 3.09524 28.898 3.77336C29.5544 4.49798 29.9913 5.33836 30.3312 6.24903C30.5422 6.81403 30.6888 7.38802 30.814 7.97259C30.8353 8.07301 30.8779 8.17819 30.8028 8.27702C30.0792 8.27174 29.3727 8.35789 28.6982 8.64013C28.3194 8.79869 27.9773 9.01486 27.64 9.24266C27.5095 9.30608 27.3971 9.41708 27.234 9.39277Z" fill="#363636"/>
<path fill-rule="evenodd" clip-rule="evenodd" d="M34.0267 8.12854C33.8258 6.82729 33.4694 5.57148 32.9179 4.3717C32.905 4.34587 32.8949 4.31879 32.8847 4.29174C32.8669 4.24408 32.8491 4.19652 32.8162 4.15606C32.2716 3.09687 31.6093 2.12647 30.6961 1.33843C28.8116 -0.287884 26.4768 -0.439045 24.4234 0.948365C24.2742 1.04879 24.1841 1.0213 24.0515 0.930923C22.2745 -0.278899 20.2397 -0.314839 18.4628 0.854285C18.2108 1.02025 18.06 1.01549 17.8197 0.8527C16.9539 0.265495 15.9895 -0.0336573 14.9346 0.00651154C13.3841 0.0657077 12.157 0.792447 11.1303 1.88546C9.93523 3.15818 9.21914 4.69094 8.75453 6.34896C8.66451 6.67051 8.59007 6.99647 8.5147 7.32651L8.51469 7.32654L8.51468 7.32657C8.47942 7.48097 8.44396 7.63625 8.4066 7.7924C8.308 7.7492 8.26924 7.67175 8.23197 7.59726C8.22272 7.57878 8.21356 7.56047 8.2036 7.54293C8.01343 7.2076 7.82298 6.87245 7.63253 6.53732L7.63238 6.53705L7.63222 6.53677C7.03841 5.49184 6.44467 4.44703 5.85978 3.39708C5.63973 3.00279 5.33443 2.83894 4.88474 2.85427C4.47337 2.86856 4.06097 2.86507 3.64862 2.86159H3.64861H3.6486C3.46599 2.86004 3.2834 2.8585 3.1009 2.8585C2.89533 2.85864 2.68975 2.85852 2.48419 2.85839C1.92628 2.85805 1.36844 2.85771 0.81089 2.86273C0.470426 2.8659 0.211481 3.02129 0.0734837 3.33577C-0.0645137 3.64866 -0.00377351 3.942 0.21894 4.19623C0.432064 4.43935 0.729903 4.46102 1.02668 4.46155L1.50431 4.4624H1.5044C2.43688 4.46422 3.36937 4.46603 4.30185 4.45204C4.54268 4.44887 4.66203 4.53026 4.77552 4.73216C6.18426 7.23849 7.59993 9.74111 9.01774 12.2422C10.614 15.0577 12.2135 17.8716 13.8167 20.6834C13.9047 20.8378 13.886 20.9197 13.7528 21.036C13.033 21.6654 12.863 22.6919 13.3298 23.5116C13.7965 24.3319 14.7444 24.7167 15.6555 24.4556C16.5724 24.1929 17.1825 23.3457 17.1036 22.3975C17.0823 22.1432 17.158 22.1078 17.3844 22.1084C19.9408 22.1158 22.4973 22.1158 25.0537 22.1099C25.2529 22.1094 25.3115 22.1549 25.2945 22.3621C25.2364 23.0698 25.4868 23.6638 26.049 24.1057C26.7565 24.6623 27.7257 24.6818 28.4578 24.1771C29.1707 23.686 29.4925 22.7727 29.2394 21.9609C28.9677 21.0888 28.21 20.5328 27.2835 20.5323C23.476 20.5312 19.668 20.5312 15.8601 20.5344C15.681 20.5349 15.5484 20.5148 15.4461 20.3335C13.6553 17.1618 11.8592 13.9927 10.0572 10.8273C9.95548 10.6481 9.98691 10.5487 10.1329 10.4293C10.6353 10.0181 11.2411 9.9039 11.856 9.89333C12.7911 9.87695 13.5818 10.2406 14.2132 10.933C14.2925 11.0207 14.3426 11.1185 14.373 11.2321C14.8371 12.9583 15.3022 14.684 15.7684 16.4097C15.8195 16.5987 15.8704 16.7878 15.9213 16.977L15.9213 16.9771L15.9215 16.9779C16.1132 17.6898 16.3048 18.4017 16.5064 19.111C16.6252 19.5286 17.0381 19.7664 17.4308 19.676C17.8629 19.5761 18.1133 19.2157 18.0542 18.7675C18.0408 18.6658 18.0136 18.5659 17.9866 18.4665L17.9774 18.4329C17.4942 16.645 17.0103 14.857 16.5265 13.0693L15.997 11.1127L15.9891 11.0843C15.961 10.9847 15.9341 10.8897 16.03 10.795C16.2954 10.5329 16.5634 10.2776 16.9187 10.1354C18.092 9.66606 19.1768 9.88646 20.2115 10.5397C20.358 10.6322 20.4076 10.739 20.4065 10.9065C20.4017 11.6331 20.4023 12.3594 20.4029 13.0858V13.0858V13.0859C20.4031 13.328 20.4033 13.5702 20.4033 13.8124L20.4031 15.1883C20.4028 16.4115 20.4024 17.6347 20.4044 18.8579C20.4054 19.5058 21.0438 19.897 21.5877 19.5862C21.8978 19.4091 22.0001 19.1295 21.9996 18.7849C21.9978 17.654 21.9975 16.523 21.9973 15.392C21.9969 13.9078 21.9966 12.4235 21.9927 10.9393C21.9921 10.739 22.0486 10.6143 22.2223 10.5101C22.4893 10.35 22.7615 10.1994 23.0562 10.1032C24.2236 9.72103 25.3099 9.79344 26.252 10.6766C26.407 10.8225 26.4443 10.9562 26.3878 11.1618C25.9398 12.792 25.4987 14.4245 25.0577 16.0571L24.8373 16.8727C24.7934 17.0354 24.7488 17.1981 24.7041 17.3607L24.7041 17.3608L24.7041 17.3608C24.5832 17.8012 24.4624 18.2415 24.3546 18.685C24.2406 19.1528 24.4862 19.5471 24.9322 19.6665C25.3462 19.7775 25.7527 19.5349 25.8971 19.0888C25.9217 19.0128 25.9423 18.936 25.963 18.859L25.963 18.8589L25.9696 18.8346L26.1637 18.1161L26.164 18.1149C26.7791 15.8379 27.3942 13.5608 28.0054 11.2829C28.0486 11.1232 28.12 10.9932 28.2335 10.8748C28.7828 10.3029 29.4477 9.9742 30.2432 9.90073C30.3702 9.88883 30.4961 9.90833 30.619 9.92737C30.7198 9.943 30.8187 9.95832 30.9146 9.9557C31.4591 9.94037 31.8832 10.165 32.2961 10.461C32.4277 10.5556 32.4379 10.6497 32.3558 10.795C31.4071 12.4711 30.4628 14.1498 29.5183 15.8286L29.518 15.8291L29.5163 15.8322L29.0305 16.6956C28.9468 16.8446 28.8627 16.9933 28.7785 17.1421L28.7781 17.1429C28.5194 17.6003 28.2607 18.0578 28.0124 18.5206C27.8003 18.9165 27.9372 19.3652 28.307 19.5772C28.6954 19.8002 29.143 19.6866 29.3961 19.2981C29.4473 19.219 29.4935 19.1367 29.5397 19.0545L29.5697 19.0011L30.3254 17.658L30.3272 17.6547C31.5665 15.4517 32.8059 13.2486 34.0475 11.0466C34.1546 10.8563 34.21 10.6608 34.2073 10.443C34.1972 9.66765 34.145 8.89545 34.0267 8.12854ZM17.2904 2.58938C17.355 2.61188 17.4209 2.63485 17.4917 2.59792C16.7639 1.95522 15.9391 1.55036 14.9385 1.60162C13.8174 1.65976 12.9687 2.24063 12.2451 3.03132C11.2909 4.07465 10.7229 5.32517 10.3243 6.65973C10.148 7.25063 10.0206 7.85264 9.94232 8.46468C9.94077 8.47655 9.93866 8.48922 9.9365 8.50217C9.92089 8.59589 9.90279 8.70453 10.0755 8.63487C10.5652 8.4372 11.0799 8.35528 11.5967 8.27705C11.6102 8.20893 11.6232 8.14076 11.6363 8.07259L11.6364 8.0725C11.6647 7.92493 11.693 7.77742 11.7251 7.63065C12.0709 6.05455 12.6804 4.609 13.8878 3.47952C14.8346 2.59422 15.9391 2.22318 17.2349 2.57149C17.2533 2.57645 17.2718 2.5829 17.2904 2.58938ZM30.8028 8.27757C30.7064 7.72207 30.5939 7.16869 30.4107 6.63593C29.9343 5.25328 29.2731 3.9869 28.0407 3.09949C27.3364 2.59209 26.5537 2.37433 25.6862 2.46736C25.4081 2.19146 25.4097 2.17825 25.7512 1.9996C27.0177 1.33682 28.3604 1.49643 29.5384 2.45573C30.5534 3.28236 31.1933 4.36903 31.6819 5.55296C32.0629 6.47578 32.2995 7.43931 32.4486 8.42503C32.4827 8.65124 32.4359 8.69511 32.2217 8.60367C31.8501 8.44521 31.4548 8.38232 31.06 8.3195C30.9741 8.30585 30.8883 8.2922 30.8028 8.27757ZM23.2381 3.14971C23.6661 3.45786 23.6671 3.45859 24.0817 3.10949C23.9387 2.86685 23.7242 2.69308 23.5106 2.52006C23.4846 2.49899 23.4586 2.47792 23.4327 2.45675C22.2664 1.49639 20.9072 1.33413 19.6434 1.99956C19.3194 2.17028 19.3189 2.17081 19.5523 2.46626C19.6076 2.53646 19.6643 2.60583 19.721 2.67517C19.7424 2.70136 19.7638 2.72755 19.7851 2.75379C21.0069 2.21996 22.1519 2.36742 23.2233 3.13909L23.2381 3.14971Z" fill="#363636"/>
<path d="M15.5052 22.5253C15.509 22.7431 15.3278 22.936 15.1136 22.9439C14.8797 22.9524 14.6858 22.7706 14.682 22.5386C14.6783 22.3044 14.8595 22.1247 15.1003 22.1231C15.3193 22.1221 15.5015 22.3028 15.5052 22.5253Z" fill="#F9F8F8"/>
<path d="M27.3133 22.9445C27.0991 22.9514 26.9036 22.7717 26.8908 22.5555C26.8764 22.3251 27.0607 22.1274 27.2925 22.1232C27.5136 22.1189 27.7038 22.2923 27.7171 22.509C27.7305 22.732 27.5408 22.9371 27.3133 22.9445Z" fill="#F6F6F5"/>
<path d="M27.2332 9.27189C25.7398 7.88342 23.2809 7.83216 21.4672 8.98331C21.2658 9.11122 21.1294 9.10805 20.9227 8.98437C19.3967 8.07 17.8031 7.88871 16.1423 8.60435C15.772 8.76397 15.4619 9.01608 15.1566 9.27242C14.9968 9.29092 14.887 9.17728 14.7543 9.12337C13.8166 8.43152 12.759 8.12391 11.5958 8.15668C11.5394 8.07528 11.5617 7.9886 11.5777 7.90192C11.7983 6.68999 12.1707 5.53249 12.8517 4.49021C13.304 3.79783 13.84 3.18261 14.5657 2.75608C15.4955 2.20958 16.4694 2.09383 17.4908 2.47649C18.3796 3.28039 18.9811 4.27457 19.4367 5.36547C19.637 5.84486 19.7899 6.33957 19.9348 6.83798C20.0249 7.14717 20.2343 7.357 20.5625 7.41567C20.8854 7.47381 21.1603 7.37339 21.3612 7.11176C21.5567 6.85753 21.5439 6.57582 21.4619 6.28248C21.0974 4.97753 20.5587 3.75185 19.7846 2.63241C19.8411 2.5008 19.9743 2.4823 20.0861 2.44319C21.0953 2.09013 22.0527 2.21592 22.9617 2.76137C23.1359 2.86602 23.3043 2.98124 23.4594 3.11179C23.5867 3.21855 23.6975 3.2471 23.8265 3.11443C23.8931 3.04625 23.9746 2.98706 24.0811 2.98811C24.8255 3.78198 25.3055 4.72806 25.6801 5.73228C25.8186 6.10331 25.9209 6.48703 26.0467 6.86229C26.1729 7.24019 26.4926 7.4532 26.8789 7.42783C27.245 7.40404 27.5391 7.14083 27.6174 6.77455C27.652 6.61229 27.6099 6.46007 27.5689 6.30733C27.1837 4.8734 26.5678 3.54678 25.6844 2.34594C25.9945 2.14457 26.3269 2.25873 26.6392 2.31053C27.563 2.4638 28.2823 2.97437 28.8972 3.65248C29.5536 4.37711 29.9905 5.21748 30.3305 6.12815C30.5414 6.69316 30.688 7.26715 30.8132 7.85171C30.8345 7.95213 30.8771 8.05731 30.802 8.15615C30.0784 8.15086 29.3719 8.23702 28.6974 8.51925C28.3186 8.67782 27.9765 8.89399 27.6392 9.12179C27.5087 9.18521 27.3963 9.2962 27.2332 9.27189Z" fill="#F89523"/>
</svg>
