<svg width="269" height="44" viewBox="0 0 269 44" fill="none" xmlns="http://www.w3.org/2000/svg">
<path d="M49.3156 16.9928C46.6529 14.5172 42.2687 14.4258 39.035 16.4782C38.6759 16.7063 38.4327 16.7006 38.0642 16.4801C35.3434 14.8498 32.5021 14.5266 29.541 15.8026C28.8808 16.0872 28.3279 16.5367 27.7836 16.9937C27.4986 17.0267 27.3029 16.8241 27.0663 16.728C25.3944 15.4944 23.5087 14.946 21.4349 15.0044C21.3342 14.8593 21.3741 14.7047 21.4026 14.5502C21.7959 12.3893 22.4599 10.3256 23.674 8.46726C24.4805 7.23277 25.4362 6.13587 26.73 5.37539C28.3877 4.40099 30.1243 4.19461 31.9454 4.87688C33.5299 6.3102 34.6025 8.08278 35.4147 10.0278C35.7719 10.8825 36.0445 11.7646 36.3029 12.6532C36.4635 13.2045 36.8368 13.5786 37.422 13.6832C37.9977 13.7869 38.4878 13.6078 38.846 13.1413C39.1946 12.6881 39.1718 12.1858 39.0255 11.6628C38.3757 9.33611 37.4153 7.15079 36.035 5.15487C36.1357 4.92023 36.3732 4.88724 36.5727 4.81751C38.3719 4.18801 40.0791 4.4123 41.6997 5.38481C42.0103 5.5714 42.3105 5.77683 42.587 6.00959C42.814 6.19995 43.0116 6.25083 43.2415 6.0143C43.3603 5.89274 43.5056 5.7872 43.6956 5.78908C45.0227 7.2045 45.8786 8.89132 46.5465 10.6818C46.7935 11.3433 46.9759 12.0275 47.2 12.6966C47.4252 13.3703 47.9952 13.7501 48.6839 13.7049C49.3365 13.6625 49.8609 13.1932 50.0006 12.5401C50.0623 12.2508 49.9873 11.9794 49.9141 11.7071C49.2273 9.15047 48.1291 6.78515 46.5541 4.64412C47.1069 4.28508 47.6997 4.48863 48.2564 4.58098C49.9037 4.85426 51.1861 5.76458 52.2824 6.97362C53.4528 8.26559 54.2317 9.76394 54.8378 11.3876C55.214 12.395 55.4753 13.4184 55.6985 14.4607C55.7365 14.6397 55.8125 14.8272 55.6786 15.0034C54.3885 14.994 53.1288 15.1476 51.9262 15.6508C51.2507 15.9336 50.6409 16.319 50.0395 16.7251C49.8068 16.8382 49.6063 17.0361 49.3156 16.9928Z" fill="#363636"/>
<path fill-rule="evenodd" clip-rule="evenodd" d="M61.4266 14.7389C61.0684 12.4188 60.4329 10.1798 59.4497 8.04063C59.4266 7.99461 59.4086 7.94636 59.3906 7.89817L59.3905 7.89812L59.3905 7.89806C59.3587 7.81309 59.327 7.72829 59.2682 7.65615C58.2973 5.76767 57.1165 4.0375 55.4883 2.63244C52.1282 -0.26719 47.9654 -0.536704 44.3043 1.93698C44.0383 2.11603 43.8777 2.06703 43.6412 1.90589C40.473 -0.251169 36.8451 -0.31525 33.6769 1.76924C33.2276 2.06515 32.9587 2.05666 32.5303 1.76642C30.9866 0.719459 29.2671 0.186084 27.3862 0.257704C24.6218 0.363248 22.434 1.65899 20.6034 3.60778C18.4726 5.87698 17.1958 8.60982 16.3675 11.566C16.207 12.1393 16.0742 12.7205 15.9398 13.309L15.9398 13.3091L15.9398 13.3091L15.9398 13.3091C15.8769 13.5844 15.8137 13.8612 15.7471 14.1396C15.5713 14.0626 15.5022 13.9245 15.4358 13.7917C15.4193 13.7587 15.4029 13.7261 15.3852 13.6948C15.0459 13.0966 14.7062 12.4987 14.3665 11.9009C13.3077 10.0378 12.2491 8.17496 11.2063 6.30293C10.8139 5.59993 10.2696 5.3078 9.46781 5.33513C8.73434 5.3606 7.99905 5.35438 7.26382 5.34817H7.26378H7.26374C6.93819 5.34542 6.61266 5.34267 6.28731 5.34267C5.92079 5.34292 5.55427 5.34269 5.18777 5.34247C4.19303 5.34186 3.19842 5.34125 2.20432 5.3502C1.59729 5.35586 1.13561 5.63291 0.889563 6.19361C0.64352 6.75149 0.751817 7.2745 1.14891 7.72777C1.52889 8.16126 2.05993 8.19989 2.58906 8.20084L3.44071 8.20235H3.4408C5.10338 8.20559 6.76596 8.20882 8.42854 8.18387C8.85793 8.17822 9.07072 8.32334 9.27307 8.68332C11.7848 13.152 14.3089 17.614 16.8368 22.0733C19.6829 27.0932 22.5347 32.1103 25.3932 37.1237C25.5499 37.3988 25.5166 37.5449 25.2792 37.7522C23.9957 38.8746 23.6927 40.7046 24.5249 42.1662C25.357 43.6288 27.047 44.3148 28.6715 43.8493C30.3064 43.3809 31.3941 41.8703 31.2535 40.1797C31.2155 39.7265 31.3504 39.6633 31.7542 39.6643C36.3121 39.6775 40.8701 39.6775 45.4281 39.6671C45.7834 39.6662 45.8879 39.7472 45.8575 40.1166C45.7539 41.3784 46.2004 42.4376 47.2026 43.2254C48.4642 44.2177 50.1922 44.2526 51.4974 43.3527C52.7685 42.4772 53.3423 40.8488 52.8911 39.4014C52.4066 37.8465 51.0557 36.8551 49.4037 36.8542C42.6152 36.8523 35.8257 36.8523 29.0363 36.8579C28.7171 36.8589 28.4806 36.8231 28.2982 36.4998C25.1053 30.8447 21.903 25.1944 18.6901 19.5506C18.5087 19.2311 18.5647 19.054 18.825 18.841C19.7209 18.1078 20.801 17.9043 21.8973 17.8854C23.5645 17.8562 24.9742 18.5046 26.0999 19.7391C26.2415 19.8955 26.3308 20.0698 26.3849 20.2724C27.2123 23.3502 28.0417 26.427 28.8729 29.5038C28.964 29.8409 29.0548 30.1782 29.1455 30.5155C29.4873 31.7853 29.8291 33.0551 30.1886 34.3202C30.4005 35.0646 31.1367 35.4887 31.8368 35.3275C32.6072 35.1494 33.0537 34.5067 32.9483 33.7076C32.9244 33.5264 32.8759 33.3483 32.8278 33.1711L32.8115 33.1111C31.9522 29.9321 31.0918 26.753 30.2316 23.5744L30.2301 23.5688L30.2277 23.5599L29.2804 20.0595C29.2758 20.0425 29.2711 20.0257 29.2663 20.0089C29.2162 19.8314 29.1684 19.6618 29.3393 19.4931C29.8124 19.0257 30.2903 18.5705 30.9239 18.317C33.0157 17.4802 34.9499 17.8732 36.7947 19.0379C37.056 19.2029 37.1443 19.3932 37.1424 19.6919C37.1339 20.9874 37.1349 22.2822 37.136 23.5774V23.5775V23.5776L37.136 23.5911C37.1364 24.0184 37.1367 24.4457 37.1367 24.873C37.1367 25.6765 37.1365 26.4799 37.1363 27.2834L37.1363 27.3264C37.1357 29.5072 37.1352 31.688 37.1386 33.8688C37.1405 35.0241 38.2786 35.7214 39.2485 35.1673C39.8014 34.8517 39.9838 34.3531 39.9828 33.7387C39.9795 31.7224 39.9791 29.706 39.9786 27.6897C39.9781 25.0433 39.9775 22.3968 39.9705 19.7504C39.9695 19.3932 40.0702 19.1708 40.3799 18.9852C40.8558 18.6996 41.3413 18.4311 41.8666 18.2596C43.948 17.5782 45.885 17.7073 47.5646 19.282C47.841 19.5421 47.9075 19.7805 47.8068 20.1471C47.0081 23.0529 46.222 25.9628 45.4359 28.8727L45.0424 30.3293C44.964 30.6195 44.8844 30.9094 44.8049 31.1993C44.5894 31.9846 44.3739 32.7698 44.1817 33.5606C43.9784 34.3946 44.4163 35.0976 45.2115 35.3106C45.9496 35.5085 46.6744 35.0759 46.9319 34.2806C46.9757 34.1449 47.0126 34.0077 47.0495 33.8703L47.0611 33.8273L47.406 32.5506C48.5033 28.4886 49.6006 24.4265 50.6909 20.3629C50.7679 20.0783 50.8952 19.8465 51.0975 19.6354C52.0769 18.6158 53.2625 18.0296 54.6808 17.8986C54.9072 17.8774 55.1316 17.9122 55.3507 17.9461C55.5306 17.974 55.7069 18.0013 55.8778 17.9966C56.8486 17.9693 57.6048 18.3698 58.341 18.8975C58.5757 19.0662 58.5937 19.234 58.4474 19.4931C56.7547 22.4838 55.0695 25.4793 53.3843 28.4749L53.3841 28.4753L52.5187 30.0136C52.369 30.2796 52.2188 30.5454 52.0685 30.8111L52.0682 30.8116L52.0681 30.8117C51.607 31.6271 51.146 32.4425 50.7033 33.2675C50.3252 33.9734 50.5693 34.7734 51.2286 35.1513C51.9211 35.549 52.7191 35.3464 53.1703 34.6538C53.2617 34.5127 53.3441 34.366 53.4265 34.2193L53.48 34.1241L54.8244 31.7346L54.8255 31.7326L54.8266 31.7306C57.0376 27.8004 59.2486 23.8701 61.4636 19.9417C61.6545 19.6024 61.7533 19.2537 61.7486 18.8655C61.7305 17.4831 61.6374 16.1063 61.4266 14.7389ZM31.5865 4.86272C31.7017 4.90285 31.8193 4.94381 31.9454 4.87795C30.6477 3.73205 29.1772 3.0102 27.3931 3.10161C25.3944 3.20527 23.8811 4.24092 22.591 5.65069C20.8896 7.5109 19.8769 9.74052 19.1664 12.12C18.8519 13.1735 18.6249 14.2469 18.4852 15.3381C18.4825 15.3593 18.4787 15.3818 18.4749 15.4049L18.4748 15.405C18.447 15.5721 18.4147 15.7658 18.7227 15.6416C19.5957 15.2891 20.5134 15.1431 21.4349 15.0036C21.4588 14.8825 21.4821 14.7613 21.5054 14.6401L21.5055 14.6396L21.5056 14.639L21.5056 14.639L21.5056 14.639C21.5561 14.3758 21.6066 14.1128 21.6638 13.8511C22.2804 11.041 23.3671 8.46362 25.5198 6.44981C27.2079 4.87136 29.1772 4.20982 31.4875 4.83084C31.5204 4.83968 31.5534 4.85117 31.5865 4.86272ZM55.6785 15.0047C55.5066 14.0143 55.3062 13.0277 54.9794 12.0778C54.1301 9.61258 52.9512 7.35469 50.7539 5.77248C49.498 4.86781 48.1025 4.47956 46.556 4.64542C46.0601 4.15351 46.0629 4.12995 46.6719 3.81143C48.9299 2.62972 51.3239 2.91431 53.4243 4.62469C55.234 6.09853 56.3749 8.03602 57.246 10.1469C57.9252 11.7923 58.347 13.5102 58.613 15.2677C58.6738 15.671 58.5902 15.7492 58.2083 15.5862C57.5458 15.3036 56.841 15.1915 56.1371 15.0795C55.984 15.0552 55.8311 15.0308 55.6785 15.0047ZM42.191 5.8617C42.954 6.41111 42.9558 6.41241 43.6951 5.78999C43.4402 5.35736 43.0577 5.04755 42.6769 4.73905C42.6305 4.70148 42.5841 4.66393 42.538 4.62617C40.4585 2.91391 38.0351 2.62461 35.7818 3.81103C35.2042 4.11542 35.2033 4.11636 35.6194 4.64314C35.718 4.76831 35.8191 4.892 35.9201 5.01564C35.9583 5.06233 35.9965 5.10902 36.0345 5.15578C38.2128 4.204 40.2543 4.46692 42.1647 5.84276L42.191 5.8617Z" fill="#363636"/>
<path d="M28.4036 40.4076C28.4103 40.7958 28.0873 41.1398 27.7054 41.1539C27.2883 41.169 26.9425 40.8448 26.9359 40.4311C26.9292 40.0137 27.2522 39.6933 27.6816 39.6904C28.0721 39.6886 28.397 40.0108 28.4036 40.4076Z" fill="#F9F8F8"/>
<path d="M49.4569 41.155C49.075 41.1672 48.7264 40.8468 48.7036 40.4614C48.6779 40.0505 49.0066 39.6981 49.4198 39.6906C49.8141 39.683 50.1532 39.9921 50.1769 40.3785C50.2007 40.7762 49.8625 41.1418 49.4569 41.155Z" fill="#F6F6F5"/>
<path d="M49.3142 16.7774C46.6514 14.3019 42.2673 14.2105 39.0336 16.2629C38.6745 16.491 38.4313 16.4853 38.0627 16.2648C35.342 14.6345 32.5006 14.3113 29.5395 15.5872C28.8793 15.8718 28.3264 16.3213 27.7821 16.7784C27.4971 16.8114 27.3014 16.6088 27.0649 16.5126C25.3929 15.2791 23.5072 14.7306 21.4334 14.7891C21.3327 14.6439 21.3726 14.4894 21.4011 14.3348C21.7944 12.174 22.4584 10.1103 23.6725 8.25193C24.479 7.01744 25.4347 5.92054 26.7286 5.16005C28.3863 4.18566 30.1228 3.97928 31.9439 4.66155C33.5285 6.09487 34.601 7.86745 35.4132 9.81247C35.7704 10.6672 36.043 11.5492 36.3014 12.4379C36.462 12.9892 36.8353 13.3633 37.4205 13.4679C37.9962 13.5715 38.4864 13.3925 38.8445 12.926C39.1932 12.4727 39.1704 11.9705 39.0241 11.4475C38.3743 9.12078 37.4139 6.93545 36.0335 4.93954C36.1342 4.70489 36.3717 4.67191 36.5712 4.60218C38.3705 3.97268 40.0776 4.19696 41.6982 5.16948C42.0089 5.35606 42.3091 5.5615 42.5855 5.79426C42.8126 5.98462 43.0101 6.0355 43.24 5.79897C43.3588 5.67741 43.5041 5.57186 43.6941 5.57375C45.0212 6.98917 45.8772 8.67599 46.545 10.4665C46.792 11.128 46.9744 11.8122 47.1986 12.4812C47.4237 13.155 47.9937 13.5348 48.6824 13.4895C49.3351 13.4471 49.8594 12.9778 49.9991 12.3248C50.0608 12.0355 49.9858 11.7641 49.9126 11.4918C49.2258 8.93514 48.1276 6.56982 46.5526 4.42878C47.1055 4.06975 47.6983 4.2733 48.2549 4.36565C49.9022 4.63893 51.1847 5.54925 52.2809 6.75829C53.4513 8.05026 54.2303 9.54861 54.8364 11.1723C55.2125 12.1797 55.4738 13.2031 55.697 14.2453C55.735 14.4244 55.811 14.6119 55.6771 14.7881C54.387 14.7787 53.1274 14.9323 51.9247 15.4355C51.2493 15.7182 50.6394 16.1036 50.038 16.5098C49.8053 16.6229 49.6049 16.8208 49.3142 16.7774Z" fill="#F89523"/>
<path d="M92.5886 22.9098C93.0771 22.3831 93.1058 21.7669 93.2755 21.2159C94.1583 18.3432 95.0182 15.4629 95.9002 12.5901C96.0461 12.1154 96.1691 11.6272 96.7412 11.4187C98.7011 10.7053 100.639 10.6652 102.565 11.5184C103.628 11.9889 103.908 12.9476 104.009 14.0043C104.344 17.5084 104.698 21.0108 105 24.5182C105.243 27.3491 105.391 30.1884 105.643 33.0176C105.729 33.983 105.381 34.4485 104.481 34.5708C103.948 34.6436 103.419 34.7893 102.884 34.8027C100.183 34.8739 99.3635 34.1262 99.2446 31.4025C99.0872 27.8021 98.9839 24.1984 98.8528 20.5972C98.838 20.1953 98.7913 19.795 98.7585 19.3797C98.247 19.4484 98.3011 19.8185 98.2257 20.0663C97.4503 22.6176 96.6502 25.1629 95.9428 27.7343C95.6715 28.7214 95.1297 29.2087 94.1936 29.4691C93.2829 29.7228 92.3812 29.7162 91.4819 29.588C90.277 29.4172 89.5023 28.7893 89.1507 27.4781C88.4711 24.9436 87.6326 22.4543 86.8588 19.9457C86.7629 19.6343 86.7293 19.286 86.2923 18.9703C86.0046 21.0367 86.1071 23.0102 86.0391 24.9712C85.9431 27.7251 85.8686 30.4806 85.8308 33.2361C85.8194 34.091 85.589 34.5222 84.666 34.6353C83.6266 34.7625 82.6127 34.904 81.5798 34.6545C79.9199 34.2535 79.5002 33.7335 79.5896 31.9928C79.8773 26.4013 80.1871 20.8115 80.4888 15.2209C80.5068 14.8818 80.5363 14.5435 80.5503 14.2052C80.6339 12.1723 81.1068 11.5477 83.093 11.1064C86.1522 10.4265 89.099 11.2136 89.927 14.9169C90.4524 17.2656 91.3287 19.533 92.0549 21.8338C92.1672 22.1838 92.1844 22.5849 92.5886 22.9098Z" fill="#363636"/>
<path d="M117.657 28.6447C118.19 28.0594 118.28 27.4114 118.448 26.8169C119.337 23.6829 120.172 20.5321 120.74 17.3203C120.897 16.4277 121.272 15.9496 122.116 15.8048C122.646 15.7135 123.173 15.5419 123.705 15.5251C125.914 15.4548 126.997 16.5659 126.756 18.7973C126.279 23.2349 124.627 27.3151 122.885 31.3508C121.677 34.1483 120.251 36.8201 118.295 39.172C117.011 40.716 115.433 41.4001 113.461 41.2276C112.534 41.1464 111.791 40.7654 111.207 40.0462C110.167 38.7634 110.221 38.0928 111.431 37.021C112.466 36.1042 113.454 35.1396 114.362 34.0871C114.734 33.6559 114.855 33.3553 114.253 33.0179C113.338 32.5055 112.838 31.6079 112.392 30.6919C110.365 26.528 109.17 22.0761 108.05 17.5974C107.885 16.9393 108.101 16.5876 108.648 16.2678C110.722 15.0537 113.862 15.0345 114.676 18.6039C115.307 21.3644 116.171 24.0689 116.949 26.7934C117.122 27.3946 117.215 28.0343 117.657 28.6447Z" fill="#363636"/>
<path d="M250.729 26.1492C250.73 24.3256 250.751 22.5019 250.723 20.6791C250.701 19.3185 251.243 18.2719 252.369 17.6046C256.471 15.1756 260.758 14.7477 265.128 16.7087C267.335 17.6984 268.464 19.6467 268.52 22.0799C268.608 25.9365 268.542 29.7973 268.571 33.6555C268.576 34.2919 268.373 34.5129 267.756 34.6302C266.761 34.8194 265.774 34.878 264.783 34.7541C263.078 34.5406 262.366 33.7518 262.341 31.9801C262.302 29.2664 262.341 26.5519 262.321 23.8374C262.301 21.1028 261.045 20.1408 258.429 20.788C257.376 21.0484 256.867 21.5206 256.909 22.7941C257.023 26.2672 256.911 29.7479 256.98 33.2235C257.001 34.2609 256.632 34.6745 255.69 34.7089C255.608 34.7122 255.526 34.7365 255.444 34.7474C251.794 35.2573 250.728 34.3195 250.728 30.6003C250.728 29.1182 250.728 27.6337 250.729 26.1492Z" fill="#363636"/>
<path d="M239.063 29.1551C239.589 26.8626 240.116 24.5701 240.638 22.2767C241.022 20.5829 241.438 18.894 241.759 17.1876C241.908 16.3955 242.312 15.997 243.034 15.853C243.644 15.7307 244.255 15.5407 244.869 15.5264C247.27 15.4728 248.332 16.8293 247.782 19.198C246.859 23.1701 245.537 27.0074 244.011 30.7753C243.836 31.2065 243.662 31.6377 243.481 32.0655C243.008 33.18 242.703 34.4041 241.279 34.7482C239.327 35.2196 237.419 35.3452 235.588 34.3329C234.965 33.988 234.71 33.3257 234.457 32.701C232.521 27.9134 230.911 23.0119 229.518 18.0308C229.227 16.9909 229.524 16.4918 230.432 16.0548C232.564 15.0299 235.363 15.3473 236.034 18.7266C236.652 21.8388 237.545 24.8949 238.325 27.9737C238.426 28.3756 238.574 28.7649 238.699 29.1601C238.82 29.1584 238.942 29.1568 239.063 29.1551Z" fill="#363636"/>
<path d="M209.366 26.1464C209.367 24.2835 209.375 22.4196 209.364 20.5566C209.358 19.3216 209.772 18.2583 210.817 17.637C213.531 16.021 216.45 15.1502 219.61 15.7363C221.638 16.1123 222.454 17.699 221.875 19.7428C221.689 20.4009 221.371 20.7517 220.651 20.7124C219.312 20.6395 218.033 21.0565 216.732 21.2893C215.917 21.435 215.583 21.8243 215.599 22.7403C215.657 26.2544 215.588 29.7711 215.65 33.2852C215.668 34.2632 215.345 34.6768 214.432 34.691C214.309 34.6927 214.187 34.7354 214.063 34.7522C210.426 35.2545 209.364 34.3151 209.364 30.595C209.364 29.1113 209.364 27.6293 209.366 26.1464Z" fill="#363636"/>
<path d="M151.804 26.1327C151.805 24.2697 151.813 22.4067 151.801 20.5437C151.795 19.4644 152.072 18.4714 152.966 17.8677C155.763 15.9813 158.842 15.1222 162.171 15.7795C164.186 16.1772 164.975 18.0243 164.232 20.0062C164.002 20.6165 163.61 20.7204 163.073 20.7003C161.69 20.6492 160.375 21.0737 159.034 21.3157C158.274 21.453 157.966 21.8608 157.978 22.7115C158.026 26.3102 157.978 29.9105 158.012 33.5092C158.02 34.2394 157.857 34.6346 157.088 34.6354C156.802 34.6362 156.518 34.7451 156.23 34.7744C152.742 35.1311 151.804 34.2687 151.803 30.7068C151.802 29.1821 151.803 27.6574 151.804 26.1327Z" fill="#363636"/>
<path d="M221.919 31.6444C221.941 29.6516 223.452 28.2081 225.489 28.2332C227.556 28.2584 228.982 29.6851 228.976 31.7223C228.97 33.741 227.514 35.1225 225.414 35.1024C223.327 35.0823 221.897 33.6656 221.919 31.6444Z" fill="#363636"/>
<path d="M184.499 21.2854C184.499 18.2761 184.51 15.2677 184.495 12.2585C184.484 10.1887 183.809 9.44598 181.798 9.19396C180.961 9.08929 180.149 9.2601 179.325 9.35472C178.517 9.44766 178.176 9.75746 178.226 10.6358C178.298 11.9026 178.238 13.177 178.245 14.4488C178.253 15.9551 178.258 15.9551 176.845 15.6721C172.548 14.8097 168.01 17.1416 166.508 21.0928C165.464 23.8416 165.49 26.6566 166.518 29.4197C167.323 31.5824 168.79 33.1741 170.891 34.0407C174.844 35.6718 178.747 35.4708 182.535 33.4571C183.862 32.7521 184.528 31.6327 184.509 30.0577C184.473 27.1339 184.499 24.2092 184.499 21.2854ZM177.244 29.8534C174.83 30.36 172.72 29.4599 172.243 26.8308C172.037 25.6937 172.065 24.5676 172.35 23.4305C173.001 20.824 175.712 20.3426 177.682 20.8542C178.245 20.9998 178.316 21.416 178.305 21.9276C178.283 23.0294 178.299 24.1322 178.299 25.2349C178.299 26.2949 178.244 27.3591 178.316 28.4149C178.375 29.2765 177.962 29.7027 177.244 29.8534Z" fill="#363636"/>
<path d="M138.671 15.5119C132.855 15.4826 128.926 19.3601 128.889 25.1684C128.849 31.1702 132.59 35.041 138.492 35.1055C144.515 35.1716 148.347 31.4624 148.395 25.5201C148.443 19.5192 144.578 15.5412 138.671 15.5119ZM142.021 25.1667C142.021 26.1497 141.968 26.9971 141.66 27.8C141.187 29.0325 140.398 29.8564 139.018 29.9703C137.522 30.0934 136.378 29.5257 135.783 28.1299C134.965 26.2134 134.978 24.2415 135.86 22.34C136.495 20.9719 137.667 20.5675 139.076 20.7006C140.388 20.8245 141.189 21.6007 141.635 22.7997C141.933 23.5985 142.061 24.4375 142.021 25.1667Z" fill="#363636"/>
<path d="M195.085 27.5892C198.039 27.1882 200.982 26.6849 203.916 26.1474C205.562 25.846 206.183 24.9852 206.111 23.2956C206.006 20.8155 205.023 18.7357 203.011 17.3432C199.616 14.9929 195.945 14.89 192.38 16.763C189.203 18.4326 187.958 21.4276 187.956 25.7966C187.914 28.7162 189.139 31.8603 192.425 33.6379C196.142 35.6474 200.086 35.6884 203.924 33.8606C205.406 33.1547 205.741 31.2825 204.867 29.9286C204.455 29.2906 204.028 29.0076 203.223 29.3894C201.536 30.189 199.718 30.4017 197.877 30.2242C196.664 30.1078 195.507 29.7645 194.683 28.7405C194.208 28.1511 193.935 27.745 195.085 27.5892ZM193.88 22.4541C194.263 21.1889 195.625 20.3642 197.357 20.3692C198.383 20.314 199.309 20.6849 199.967 21.6386C200.273 22.0823 200.268 22.4323 199.646 22.532C197.886 22.8116 196.127 23.1047 194.362 23.3559C193.531 23.4756 193.748 22.8886 193.88 22.4541Z" fill="#363636"/>
</svg>
