<svg xmlns="http://www.w3.org/2000/svg" width="33.4" height="33.4" viewBox="0 0 33.4 33.4">
  <g id="Group_502" data-name="Group 502" transform="translate(46.7 80.7)">
    <g id="Group_501" data-name="Group 501" transform="translate(-193 -142)">
      <g id="Group_441" data-name="Group 441" transform="translate(67.318 -134.682)">
        <g id="Ellipse_84" data-name="Ellipse 84" transform="translate(80.682 197.682)" fill="none" stroke="#fff" stroke-width="1.7">
          <circle cx="15" cy="15" r="15" stroke="none"/>
          <circle cx="15" cy="15" r="15.85" fill="none"/>
        </g>
        <g id="ic_round-done" transform="translate(84.732 201.595)" fill="#fff">
          <path d="M 8.863799095153809 17.16530418395996 C 8.590879440307617 17.16530418395996 8.334039688110352 17.05877304077148 8.140599250793457 16.86533355712891 L 8.137709617614746 16.8624439239502 L 8.134979248046875 16.85940361022949 L 3.054582834243774 11.19378185272217 C 2.960486888885498 11.09998416900635 2.886798143386841 10.99022006988525 2.835529327392578 10.86748313903809 C 2.783669471740723 10.74341297149658 2.75736927986145 10.61224365234375 2.75736927986145 10.47764301300049 C 2.75736927986145 10.34315299987793 2.783669471740723 10.21199321746826 2.835529327392578 10.08781337738037 C 2.887399435043335 9.963623046875 2.962239265441895 9.852713584899902 3.057949304580688 9.758163452148438 C 3.151319265365601 9.663702964782715 3.262199401855469 9.588883399963379 3.386249303817749 9.537043571472168 C 3.510329484939575 9.485213279724121 3.641499280929565 9.45893383026123 3.776119470596313 9.45893383026123 C 3.910739421844482 9.45893383026123 4.041909217834473 9.485213279724121 4.165979385375977 9.537043571472168 C 4.290039539337158 9.588883399963379 4.400919437408447 9.663702964782715 4.495559215545654 9.759433746337891 L 4.49847936630249 9.762392997741699 L 4.50123929977417 9.76551342010498 L 8.874880790710449 14.71089267730713 L 17.42831993103027 6.157493591308594 C 17.52220916748047 6.062443256378174 17.63307952880859 5.987613201141357 17.75720024108887 5.93574333190918 C 17.88142013549805 5.88386344909668 18.01260948181152 5.857573509216309 18.14715003967285 5.857573509216309 C 18.28163909912109 5.857573509216309 18.41279983520508 5.88386344909668 18.53697967529297 5.935723304748535 C 18.66106986999512 5.987583160400391 18.77194976806641 6.062393188476563 18.86656951904297 6.158093452453613 C 18.96097946166992 6.251383304595947 19.03577995300293 6.362263202667236 19.08765983581543 6.486443519592285 C 19.13955879211426 6.610683441162109 19.16586875915527 6.7418532371521 19.16586875915527 6.876323223114014 C 19.16586875915527 7.010793209075928 19.13955879211426 7.141953468322754 19.08766937255859 7.266183376312256 C 19.03577995300293 7.390363216400146 18.96097946166992 7.501243591308594 18.86536026000977 7.595763206481934 L 9.586959838867188 16.86538314819336 C 9.393559455871582 17.05877304077148 9.136719703674316 17.16530418395996 8.863799095153809 17.16530418395996 Z" stroke="none"/>
          <path d="M 8.863799095153809 17.01530647277832 C 9.087018966674805 17.01530647277832 9.310239791870117 16.92995834350586 9.480938911437988 16.75926399230957 L 18.75990867614746 7.489083290100098 C 18.84096908569336 7.408963203430176 18.90530967712402 7.313543319702148 18.94925880432129 7.20836353302002 C 18.99320030212402 7.10317325592041 19.015869140625 6.990313529968262 19.015869140625 6.876323223114014 C 19.015869140625 6.762323379516602 18.99320030212402 6.649463176727295 18.94925880432129 6.544273376464844 C 18.90530967712402 6.439093589782715 18.84096908569336 6.343673229217529 18.75990867614746 6.26356315612793 C 18.67972946166992 6.182473182678223 18.58432006835938 6.118083477020264 18.47917938232422 6.074143409729004 C 18.37395858764648 6.030203342437744 18.2611198425293 6.00757360458374 18.14715003967285 6.00757360458374 C 18.03308868408203 6.00757360458374 17.92025947570801 6.030203342437744 17.81503868103027 6.074143409729004 C 17.70989990234375 6.118083477020264 17.61448860168457 6.182473182678223 17.53438949584961 6.26356315612793 L 8.868179321289063 14.92973327636719 L 4.388879299163818 9.864883422851563 C 4.308759212493896 9.783833503723145 4.213349342346191 9.719403266906738 4.10815954208374 9.675453186035156 C 4.002979278564453 9.631513595581055 3.890119314193726 9.608933448791504 3.776119470596313 9.608933448791504 C 3.662119388580322 9.608933448791504 3.549259424209595 9.631513595581055 3.444079399108887 9.675453186035156 C 3.338889360427856 9.719403266906738 3.243479490280151 9.783833503723145 3.163359403610229 9.864883422851563 C 3.082269430160522 9.94498348236084 3.017889261245728 10.04040336608887 2.973939418792725 10.14562320709229 C 2.929999351501465 10.25083351135254 2.907369375228882 10.36367321014404 2.907369375228882 10.47764301300049 C 2.907369375228882 10.59162330627441 2.929999351501465 10.7045431137085 2.973939418792725 10.80967330932617 C 3.017889261245728 10.91489315032959 3.082269430160522 11.01031303405762 3.163359403610229 11.09040355682373 L 8.246659278869629 16.75926399230957 C 8.417359352111816 16.92995834350586 8.640579223632813 17.01530647277832 8.863799095153809 17.01530647277832 M 8.863799095153809 17.31530380249023 C 8.550808906555176 17.31530380249023 8.256299018859863 17.19316291809082 8.034529685974121 16.97139358520508 L 8.028759002685547 16.96562385559082 L 8.023309707641602 16.95954322814941 L 2.945628881454468 11.296950340271 C 2.83901309967041 11.18990230560303 2.755434989929199 11.06492042541504 2.697119474411011 10.92530345916748 C 2.637569427490234 10.78283309936523 2.607369422912598 10.63220310211182 2.607369422912598 10.47764301300049 C 2.607369422912598 10.32320308685303 2.637559413909912 10.17259311676025 2.697109460830688 10.03001308441162 C 2.756689310073853 9.887383460998535 2.8426194190979 9.76002311706543 2.952529430389404 9.651453018188477 C 3.058659315109253 9.544063568115234 3.185969352722168 9.458163261413574 3.32841944694519 9.398643493652344 C 3.470919370651245 9.339113235473633 3.621539354324341 9.308933258056641 3.776119470596313 9.308933258056641 C 3.930699348449707 9.308933258056641 4.081319332122803 9.339113235473633 4.223799228668213 9.398633003234863 C 4.366269588470459 9.458163261413574 4.493579387664795 9.544063568115234 4.602229595184326 9.653983116149902 L 4.608089447021484 9.659903526306152 L 4.613599300384521 9.666143417358398 L 8.881591796875 14.49206256866455 L 17.3222599029541 6.051433563232422 C 17.42951965332031 5.942833423614502 17.55682945251465 5.856913566589355 17.69935989379883 5.797343254089355 C 17.8420295715332 5.737763404846191 17.9926586151123 5.707573413848877 18.14715003967285 5.707573413848877 C 18.30158996582031 5.707573413848877 18.45218849182129 5.737763404846191 18.59478950500488 5.797313213348389 C 18.73728942871094 5.856873512268066 18.86459922790527 5.942763328552246 18.97323989868164 6.052633285522461 C 19.08059883117676 6.158713340759277 19.16648864746094 6.286033153533936 19.2260684967041 6.428613185882568 C 19.28565979003906 6.571273326873779 19.31587028503418 6.721893310546875 19.31587028503418 6.876323223114014 C 19.31587028503418 7.030743598937988 19.28565979003906 7.181363582611084 19.2260799407959 7.32399320602417 C 19.16648864746094 7.466593265533447 19.08061027526855 7.593913555145264 18.97079849243164 7.70245361328125 L 9.69296932220459 16.97149276733398 C 9.471299171447754 17.19316291809082 9.176789283752441 17.31530380249023 8.863799095153809 17.31530380249023 Z" stroke="none" fill="#fff"/>
        </g>
      </g>
    </g>
  </g>
</svg>
