<svg xmlns="http://www.w3.org/2000/svg" width="74" height="74" viewBox="0 0 74 74">
  <g id="Group_374" data-name="Group 374" transform="translate(-163.449 -151.449)">
    <rect id="Rectangle_32" data-name="Rectangle 32" width="74" height="74" rx="22" transform="translate(163.449 151.449)" fill="#38b24d" opacity="0.12"/>
    <g id="Group_489" data-name="Group 489" transform="translate(143.437 168.449)">
      <g id="Group_488" data-name="Group 488" transform="translate(41.012)">
        <path id="Path_1433" data-name="Path 1433" d="M64.779,62.669l-.1,0H43.254a2.142,2.142,0,0,0-2.24,2.04c0,.034,0,.068,0,.1V95.7l2.89-2.69a1.3,1.3,0,0,1,1.694,0L49.382,96.4l3.737-3.388a1.345,1.345,0,0,1,1.694,0L58.549,96.4l3.786-3.388a1.3,1.3,0,0,1,1.694,0l2.89,2.69V64.814A2.142,2.142,0,0,0,64.779,62.669ZM47.788,70.145h6.377a.747.747,0,0,1,0,1.495H47.788a.747.747,0,1,1,0-1.495ZM60.143,84.593H47.788a.747.747,0,1,1,0-1.495H60.143a.747.747,0,0,1,0,1.495Zm0-6.477H47.788a.747.747,0,1,1,0-1.495H60.143a.747.747,0,0,1,0,1.495Z" transform="translate(-41.012 -56.693)" fill="#38b24d"/>
        <path id="Path_1434" data-name="Path 1434" d="M127.371,0H105.948a2.292,2.292,0,0,0-2.242,2.292V4.484h17.686a3.687,3.687,0,0,1,3.737,3.636h0v22.27a1.3,1.3,0,0,1,1.594.05l2.89,2.69V2.292A2.292,2.292,0,0,0,127.371,0Z" transform="translate(-97.727)" fill="#38b24d"/>
      </g>
    </g>
  </g>
</svg>
